<?xml version="1.0" encoding="UTF-8"?><svg width="99.2188mm" height="66.9396mm" viewBox="0 0 375 253" xmlns="http://www.w3.org/2000/svg" xmlns:xlink="http://www.w3.org/1999/xlink"><g fill="none" stroke="black" stroke-width="1" fill-rule="evenodd" stroke-linecap="square" stroke-linejoin="bevel"><g clip-path="none" fill="#ffffff" fill-opacity="1" opacity="1" stroke="none" stroke-opacity="0" transform="matrix(1,0,0,1,0,0)"><path d="M0,0 L375.312,0 L375.312,253 L0,253 L0,0 z" fill-rule="evenodd" vector-effect="none"/></g><defs><clipPath id="clip3"><path d="M-232,-16 L143.312,-16 L143.312,237 L-232,237 L-232,-16 z"/></clipPath></defs><g clip-path="url(#clip3)" fill="#ffffff" fill-opacity="1" opacity="1" stroke="none" stroke-opacity="0" transform="matrix(1,0,0,1,232,16)"><path d="M0,10 C0,4.47715 4.47715,0 10,0 C15.5228,0 20,4.47715 20,10 C20,15.5228 15.5228,20 10,20 C4.47715,20 0,15.5228 0,10 z" fill-rule="nonzero" vector-effect="none"/></g><defs><clipPath id="clip7"><path d="M350,135 L370,135 L370,155 L350,155 L350,135 z"/></clipPath></defs><g clip-path="url(#clip7)" fill="none" opacity="1" stroke="#000000" stroke-linecap="butt" stroke-linejoin="miter" stroke-miterlimit="2" stroke-opacity="1" stroke-width="1" transform="matrix(1,0,0,1,-117.5,-118.5)"><polyline fill="none" points="363,145 367,145" vector-effect="none"/></g><defs><clipPath id="clip8"><path d="M350,135 L370,135 L370,155 L350,155 L350,135 z"/></clipPath></defs><g clip-path="url(#clip8)" fill="none" opacity="1" stroke="#000000" stroke-linecap="butt" stroke-linejoin="miter" stroke-miterlimit="2" stroke-opacity="1" stroke-width="1" transform="matrix(1,0,0,1,-117.5,-118.5)"><polyline fill="none" points="365,143 365,147" vector-effect="none"/></g><defs><clipPath id="clip9"><path d="M350,135 L370,135 L370,155 L350,155 L350,135 z"/></clipPath></defs><g clip-path="url(#clip9)" fill="none" opacity="1" stroke="#000000" stroke-linecap="butt" stroke-linejoin="miter" stroke-miterlimit="2" stroke-opacity="1" stroke-width="1" transform="matrix(1,0,0,1,-117.5,-118.5)"><polyline fill="none" points="358,150 362,150" vector-effect="none"/></g><defs><clipPath id="clip14"><path d="M-231.5,-16.5 L143.812,-16.5 L143.812,236.5 L-231.5,236.5 L-231.5,-16.5 z"/></clipPath></defs><g clip-path="url(#clip14)" fill="none" opacity="1" stroke="#000000" stroke-linecap="butt" stroke-linejoin="miter" stroke-miterlimit="2" stroke-opacity="1" stroke-width="1" transform="matrix(1,0,0,1,231.5,16.5)"><path d="M0,10 C0,4.47715 4.47715,0 10,0 C15.5228,0 20,4.47715 20,10 C20,15.5228 15.5228,20 10,20 C4.47715,20 0,15.5228 0,10 z" fill-rule="nonzero" vector-effect="none"/></g><defs><clipPath id="clip17"><path d="M-157,-101 L218.312,-101 L218.312,152 L-157,152 L-157,-101 z"/></clipPath></defs><g clip-path="url(#clip17)" fill="#ffffff" fill-opacity="1" opacity="1" stroke="none" stroke-opacity="0" transform="matrix(1,0,0,1,157,101)"><path d="M0,0 L30,15 L0,30 L0,0 z" fill-rule="nonzero" vector-effect="none"/></g><defs><clipPath id="clip21"><path d="M-8,-15 L22,-15 L22,15 L-8,15 L-8,-15 z"/></clipPath></defs><g clip-path="url(#clip21)" fill="none" opacity="1" stroke="#000000" stroke-linecap="butt" stroke-linejoin="miter" stroke-miterlimit="2" stroke-opacity="1" stroke-width="1" transform="matrix(1,0,0,1,165,116)"><text fill="#000000" fill-opacity="1" font-family="Liberation Sans" font-size="10" font-style="normal" font-weight="400" stroke="none" textLength="13.8594" x="-6.92188" xml:space="preserve" y="3.5">Laf</text></g><defs><clipPath id="clip26"><path d="M-156.5,-101.5 L218.812,-101.5 L218.812,151.5 L-156.5,151.5 L-156.5,-101.5 z"/></clipPath></defs><g clip-path="url(#clip26)" fill="none" opacity="1" stroke="#000000" stroke-linecap="butt" stroke-linejoin="miter" stroke-miterlimit="2" stroke-opacity="1" stroke-width="1" transform="matrix(1,0,0,1,156.5,101.5)"><path d="M0,0 L30,15 L0,30 L0,0 z" fill-rule="nonzero" vector-effect="none"/></g><defs><clipPath id="clip29"><path d="M-47,-98 L328.312,-98 L328.312,155 L-47,155 L-47,-98 z"/></clipPath></defs><g clip-path="url(#clip29)" fill="#ffffff" fill-opacity="1" opacity="1" stroke="none" stroke-opacity="0" transform="matrix(1,0,0,1,47,98)"><path d="M0,0 L30,0 L30,31 L0,31 L0,0 z" fill-rule="evenodd" vector-effect="none"/></g><defs><clipPath id="clip33"><path d="M165,217 L195,217 L195,248 L165,248 L165,217 z"/></clipPath></defs><g clip-path="url(#clip33)" fill="none" opacity="1" stroke="#000000" stroke-linecap="butt" stroke-linejoin="miter" stroke-miterlimit="2" stroke-opacity="1" stroke-width="1" transform="matrix(1,0,0,1,-117.5,-118.5)"><polyline fill="none" points="183,235 177,229" vector-effect="none"/></g><defs><clipPath id="clip34"><path d="M165,217 L195,217 L195,248 L165,248 L165,217 z"/></clipPath></defs><g clip-path="url(#clip34)" fill="none" opacity="1" stroke="#000000" stroke-linecap="butt" stroke-linejoin="miter" stroke-miterlimit="2" stroke-opacity="1" stroke-width="1" transform="matrix(1,0,0,1,-117.5,-118.5)"><polyline fill="none" points="183,229 177,235" vector-effect="none"/></g><defs><clipPath id="clip39"><path d="M-46.5,-98.5 L328.812,-98.5 L328.812,154.5 L-46.5,154.5 L-46.5,-98.5 z"/></clipPath></defs><g clip-path="url(#clip39)" fill="none" opacity="1" stroke="#000000" stroke-linecap="butt" stroke-linejoin="miter" stroke-miterlimit="2" stroke-opacity="1" stroke-width="1" transform="matrix(1,0,0,1,46.5,98.5)"><path d="M0,0 L30,0 L30,31 L0,31 L0,0 z" fill-rule="evenodd" vector-effect="none"/></g><defs><clipPath id="clip42"><path d="M-342,-11 L33.3125,-11 L33.3125,242 L-342,242 L-342,-11 z"/></clipPath></defs><g clip-path="url(#clip42)" fill="#ffffff" fill-opacity="1" opacity="1" stroke="none" stroke-opacity="0" transform="matrix(1,0,0,1,342,11)"><path d="M0,0 L30,0 L30,30 L0,30 L0,0 z" fill-rule="evenodd" vector-effect="none"/></g><defs><clipPath id="clip46"><path d="M0,0 L31,0 L31,31 L0,31 L0,0 z"/></clipPath></defs><g clip-path="url(#clip46)" fill="none" opacity="1" stroke="none" stroke-opacity="0" transform="matrix(1,0,0,1,341.5,11)"><path d="M0,0 L31,0 L31,31 L0,31 L0,0 z" fill-rule="evenodd" vector-effect="none"/></g><defs><clipPath id="clip56"><path d="M1,1 L31,1 L31,31 L1,31 L1,1 z"/></clipPath></defs><g clip-path="url(#clip56)" fill="none" opacity="1" stroke="#000000" stroke-linecap="round" stroke-linejoin="round" stroke-opacity="1" stroke-width="1" transform="matrix(1,0,0,1,340.5,9.9999)"><path d="M4.5,26.5 L16.5,26.5 L16.5,6.5 L28.5,6.5" fill-rule="nonzero" vector-effect="none"/></g><defs><clipPath id="clip76"><path d="M-341.5,-11.5 L33.8125,-11.5 L33.8125,241.5 L-341.5,241.5 L-341.5,-11.5 z"/></clipPath></defs><g clip-path="url(#clip76)" fill="none" opacity="1" stroke="#000000" stroke-linecap="butt" stroke-linejoin="miter" stroke-miterlimit="2" stroke-opacity="1" stroke-width="1" transform="matrix(1,0,0,1,341.5,11.5)"><path d="M0,0 L30,0 L30,30 L0,30 L0,0 z" fill-rule="evenodd" vector-effect="none"/></g><defs><clipPath id="clip79"><path d="M-356.5,-43 L18.8125,-43 L18.8125,210 L-356.5,210 L-356.5,-43 z"/></clipPath></defs><g clip-path="url(#clip79)" fill="none" opacity="1" stroke="none" stroke-opacity="0" transform="matrix(1,0,0,1,356.5,43)"><path d="M-16.8125,0 L16.8125,0 L16.8125,28 L-16.8125,28 L-16.8125,0 z" fill-rule="evenodd" vector-effect="none"/></g><defs><clipPath id="clip83"><path d="M0,0 L34,0 L34,28 L0,28 L0,0 z"/></clipPath></defs><g clip-path="url(#clip83)" fill="none" opacity="1" stroke="#000000" stroke-linecap="square" stroke-linejoin="bevel" stroke-opacity="1" stroke-width="1" transform="matrix(1,0,0,1,339.688,43)"><text fill="#000000" fill-opacity="1" font-family="Liberation Sans" font-size="10" font-style="normal" font-weight="400" stroke="none" textLength="26.0625" x="3.78125" xml:space="preserve" y="11">$V_t$</text><text fill="#000000" fill-opacity="1" font-family="Liberation Sans" font-size="10" font-style="normal" font-weight="400" stroke="none" textLength="31.625" x="1" xml:space="preserve" y="24">Source</text></g><defs><clipPath id="clip91"><path d="M-42,-2 L333.312,-2 L333.312,251 L-42,251 L-42,-2 z"/></clipPath></defs><g clip-path="url(#clip91)" fill="#ffffff" fill-opacity="1" opacity="1" stroke="none" stroke-opacity="0" transform="matrix(1,0,0,1,42,2)"><path d="M0,0 L145,0 L145,48 L0,48 L0,0 z" fill-rule="evenodd" vector-effect="none"/></g><defs><clipPath id="clip95"><path d="M0,0 L146,0 L146,49 L0,49 L0,0 z"/></clipPath></defs><g clip-path="url(#clip95)" fill="none" opacity="1" stroke="none" stroke-opacity="0" transform="matrix(1,0,0,1,41.5,2)"><path d="M0,0 L146,0 L146,49 L0,49 L0,0 z" fill-rule="evenodd" vector-effect="none"/></g><defs><clipPath id="clip106"><path d="M-69,-13 L74,-13 L74,18 L-69,18 L-69,-13 z"/></clipPath></defs><g clip-path="url(#clip106)" fill="#000000" fill-opacity="1" opacity="1" stroke="none" stroke-opacity="0" transform="matrix(0.7,0,0,0.7,112.5,24.5)"><path d="M-68,2 L72,2 L72,3 L-68,3 L-68,2 z" fill-rule="evenodd" vector-effect="none"/></g><defs><clipPath id="clip107"><path d="M-69,-13 L74,-13 L74,18 L-69,18 L-69,-13 z"/></clipPath></defs><g clip-path="url(#clip107)" fill="#000000" fill-opacity="1" opacity="1" stroke="none" stroke-opacity="0" transform="matrix(0.7,0,0,0.7,112.5,24.5)"><path d="M-26.6719,-2 L-26.6719,-2.1875 C-27.6562,-2.1875 -27.9062,-2.42188 -27.9062,-2.98438 L-27.9062,-10.75 L-28.0312,-10.7812 L-30.3594,-9.60938 L-30.3594,-9.42188 L-30,-9.54688 C-29.7656,-9.64062 -29.5469,-9.70312 -29.4219,-9.70312 C-29.1406,-9.70312 -29.0312,-9.51562 -29.0312,-9.07812 L-29.0312,-3.23438 C-29.0312,-2.51562 -29.2969,-2.25 -30.2656,-2.1875 L-30.2656,-2 L-26.6719,-2 z" fill-rule="nonzero" vector-effect="none"/></g><defs><clipPath id="clip108"><path d="M-69,-13 L74,-13 L74,18 L-69,18 L-69,-13 z"/></clipPath></defs><g clip-path="url(#clip108)" fill="#000000" fill-opacity="1" opacity="1" stroke="none" stroke-opacity="0" transform="matrix(0.7,0,0,0.7,112.5,24.5)"><path d="M-19.6094,-11.25 L-24.0312,0.984375 C-24.0938,1.16146 -24.1875,1.25 -24.3125,1.25 C-24.4792,1.25 -24.5625,1.16146 -24.5625,0.984375 C-24.5625,0.953125 -24.5417,0.875 -24.5,0.75 L-20.0781,-11.4844 C-20.0156,-11.6615 -19.9219,-11.75 -19.7969,-11.75 C-19.6198,-11.75 -19.5312,-11.6615 -19.5312,-11.4844 C-19.5312,-11.4531 -19.5573,-11.375 -19.6094,-11.25 z" fill-rule="nonzero" vector-effect="none"/></g><defs><clipPath id="clip109"><path d="M-69,-13 L74,-13 L74,18 L-69,18 L-69,-13 z"/></clipPath></defs><g clip-path="url(#clip109)" fill="#000000" fill-opacity="1" opacity="1" stroke="none" stroke-opacity="0" transform="matrix(0.7,0,0,0.7,112.5,24.5)"><path d="M-14.5,0.21875 C-14.5,0.302083 -14.5417,0.34375 -14.625,0.34375 C-14.7396,0.34375 -14.9948,0.15625 -15.3906,-0.21875 C-15.8906,-0.697917 -16.3125,-1.24479 -16.6562,-1.85938 C-17.2292,-2.91146 -17.5156,-4.13021 -17.5156,-5.51562 C-17.5156,-6.82812 -17.2396,-8.01562 -16.6875,-9.07812 C-16.3646,-9.71354 -15.9427,-10.2812 -15.4219,-10.7812 C-15.0156,-11.1667 -14.75,-11.3594 -14.625,-11.3594 C-14.5417,-11.3594 -14.5,-11.3229 -14.5,-11.25 C-14.5,-11.2083 -14.5521,-11.1406 -14.6562,-11.0469 C-16.0521,-9.78646 -16.75,-7.94271 -16.75,-5.51562 C-16.75,-3.09896 -16.0729,-1.27083 -14.7188,-0.03125 C-14.5729,0.104167 -14.5,0.1875 -14.5,0.21875 z" fill-rule="nonzero" vector-effect="none"/></g><defs><clipPath id="clip110"><path d="M-69,-13 L74,-13 L74,18 L-69,18 L-69,-13 z"/></clipPath></defs><g clip-path="url(#clip110)" fill="#000000" fill-opacity="1" opacity="1" stroke="none" stroke-opacity="0" transform="matrix(0.7,0,0,0.7,112.5,24.5)"><path d="M-11.3906,-10.5 L-11.3906,-10.2969 C-10.8438,-10.2188 -10.7969,-10.2031 -10.6562,-10.1094 C-10.5625,-10.0469 -10.4688,-9.89062 -10.4688,-9.75 C-10.4688,-9.53125 -10.5312,-9.28125 -10.625,-8.92188 L-12.1719,-3.29688 C-12.375,-2.53125 -12.5625,-2.28125 -13.2812,-2.1875 L-13.2812,-1.98438 L-10.125,-1.98438 L-10.125,-2.1875 C-10.8594,-2.26562 -10.9844,-2.42188 -10.9844,-2.8125 C-10.9844,-2.9375 -10.9688,-3.125 -10.8281,-3.625 L-10.1094,-6.28125 L-9.25,-6.21875 L-7.65625,-1.98438 L-5.73438,-1.98438 L-5.73438,-2.1875 C-6.32812,-2.1875 -6.57812,-2.5 -6.875,-3.26562 L-8.03125,-6.32812 C-7.15625,-6.53125 -6.71875,-6.6875 -6.32812,-7 C-5.79688,-7.40625 -5.46875,-8.03125 -5.46875,-8.67188 C-5.46875,-9.76562 -6.40625,-10.5 -8.10938,-10.5 L-11.3906,-10.5 M-9.125,-9.71875 C-9.0625,-9.96875 -8.79688,-10.1094 -8.39062,-10.1094 C-7.375,-10.1094 -6.82812,-9.54688 -6.82812,-8.65625 C-6.82812,-7.4375 -7.73438,-6.6875 -9.28125,-6.6875 C-9.51562,-6.6875 -9.625,-6.70312 -9.95312,-6.76562 L-9.125,-9.71875" fill-rule="nonzero" vector-effect="none"/></g><defs><clipPath id="clip111"><path d="M-69,-13 L74,-13 L74,18 L-69,18 L-69,-13 z"/></clipPath></defs><g clip-path="url(#clip111)" fill="#000000" fill-opacity="1" opacity="1" stroke="none" stroke-opacity="0" transform="matrix(0.7,0,0,0.7,112.5,24.5)"><path d="M0.84375,-3.4375 L0.5,-3.0625 C0.109375,-2.64062 -0.0625,-2.53125 -0.171875,-2.53125 C-0.28125,-2.53125 -0.359375,-2.60938 -0.359375,-2.70312 C-0.359375,-2.96875 0.1875,-5.20312 0.796875,-7.42188 C0.828125,-7.54688 0.84375,-7.57812 0.875,-7.6875 L0.78125,-7.73438 L-0.015625,-7.64062 L-0.046875,-7.60938 L-0.1875,-6.98438 C-0.296875,-7.45312 -0.671875,-7.73438 -1.23438,-7.73438 C-2.96875,-7.73438 -4.95312,-5.375 -4.95312,-3.35938 C-4.95312,-2.375 -4.375,-1.85938 -3.65625,-1.85938 C-2.73438,-1.85938 -1.98438,-2.42188 -1.01562,-3.89062 C-1.28125,-2.82812 -1.3125,-2.73438 -1.3125,-2.40625 C-1.3125,-2.03125 -1.15625,-1.875 -0.796875,-1.875 C-0.265625,-1.875 0.046875,-2.10938 1.01562,-3.29688 L0.84375,-3.4375 M-0.421875,-6.6875 C-0.421875,-5.76562 -0.8125,-4.65625 -1.42188,-3.76562 C-1.8125,-3.20312 -2.42188,-2.5 -3.07812,-2.5 C-3.54688,-2.5 -3.85938,-2.73438 -3.85938,-3.45312 C-3.85938,-4.28125 -3.40625,-5.4375 -2.85938,-6.25 C-2.3125,-7.04688 -1.73438,-7.45312 -1.15625,-7.45312 C-0.703125,-7.45312 -0.421875,-7.14062 -0.421875,-6.6875" fill-rule="nonzero" vector-effect="none"/></g><defs><clipPath id="clip112"><path d="M-69,-13 L74,-13 L74,18 L-69,18 L-69,-13 z"/></clipPath></defs><g clip-path="url(#clip112)" fill="#000000" fill-opacity="1" opacity="1" stroke="none" stroke-opacity="0" transform="matrix(0.7,0,0,0.7,112.5,24.5)"><path d="M12.4531,-4.85938 L12.4531,-5.71875 L9.0625,-5.71875 L9.0625,-9.10938 L8.20312,-9.10938 L8.20312,-5.71875 L4.8125,-5.71875 L4.8125,-4.85938 L8.20312,-4.85938 L8.20312,-1.46875 L9.0625,-1.46875 L9.0625,-4.85938 L12.4531,-4.85938 z" fill-rule="nonzero" vector-effect="none"/></g><defs><clipPath id="clip113"><path d="M-69,-13 L74,-13 L74,18 L-69,18 L-69,-13 z"/></clipPath></defs><g clip-path="url(#clip113)" fill="#000000" fill-opacity="1" opacity="1" stroke="none" stroke-opacity="0" transform="matrix(0.7,0,0,0.7,112.5,24.5)"><path d="M18.3281,-10.5 L18.3281,-10.2969 C18.875,-10.2188 18.9219,-10.2031 19.0625,-10.1094 C19.1562,-10.0469 19.25,-9.89062 19.25,-9.75 C19.25,-9.53125 19.1875,-9.28125 19.0938,-8.92188 L17.5469,-3.29688 C17.3438,-2.53125 17.1562,-2.28125 16.4375,-2.1875 L16.4375,-1.98438 L19.5938,-1.98438 L19.5938,-2.1875 C18.8594,-2.26562 18.7344,-2.42188 18.7344,-2.8125 C18.7344,-2.9375 18.75,-3.125 18.8906,-3.625 L19.6094,-6.28125 L20.4688,-6.21875 L22.0625,-1.98438 L23.9844,-1.98438 L23.9844,-2.1875 C23.3906,-2.1875 23.1406,-2.5 22.8438,-3.26562 L21.6875,-6.32812 C22.5625,-6.53125 23,-6.6875 23.3906,-7 C23.9219,-7.40625 24.25,-8.03125 24.25,-8.67188 C24.25,-9.76562 23.3125,-10.5 21.6094,-10.5 L18.3281,-10.5 M20.5938,-9.71875 C20.6562,-9.96875 20.9219,-10.1094 21.3281,-10.1094 C22.3438,-10.1094 22.8906,-9.54688 22.8906,-8.65625 C22.8906,-7.4375 21.9844,-6.6875 20.4375,-6.6875 C20.2031,-6.6875 20.0938,-6.70312 19.7656,-6.76562 L20.5938,-9.71875" fill-rule="nonzero" vector-effect="none"/></g><defs><clipPath id="clip114"><path d="M-69,-13 L74,-13 L74,18 L-69,18 L-69,-13 z"/></clipPath></defs><g clip-path="url(#clip114)" fill="#000000" fill-opacity="1" opacity="1" stroke="none" stroke-opacity="0" transform="matrix(0.7,0,0,0.7,112.5,24.5)"><path d="M25.0781,-7.5625 L24.9844,-7.14062 L26.1719,-7.14062 L25.0312,-1.6875 C24.7344,-0.28125 24.3125,0.421875 23.7656,0.421875 C23.6094,0.421875 23.5,0.328125 23.5,0.203125 C23.5,0.0625 23.625,0 23.625,-0.171875 C23.625,-0.4375 23.4219,-0.640625 23.125,-0.640625 C22.8594,-0.640625 22.6406,-0.40625 22.6406,-0.109375 C22.6406,0.359375 23.0781,0.6875 23.6562,0.6875 C24.8438,0.6875 25.7188,-0.578125 26.2656,-2.98438 L27.2031,-7.14062 L28.6094,-7.14062 L28.6875,-7.5625 L27.2969,-7.5625 C27.6719,-9.625 28.1406,-10.5312 28.875,-10.5312 C29.0625,-10.5312 29.1562,-10.4688 29.1562,-10.3594 C29.1562,-10.25 29.0312,-10.1719 29.0312,-9.95312 C29.0312,-9.64062 29.2812,-9.45312 29.5156,-9.45312 C29.8125,-9.45312 30.0625,-9.71875 30.0625,-10.0156 C30.0625,-10.4688 29.5781,-10.8125 28.9375,-10.8125 C28.1406,-10.8125 27.6094,-10.375 27.2188,-9.8125 C26.7969,-9.20312 26.5781,-8.48438 26.2812,-7.5625 L25.0781,-7.5625 z" fill-rule="nonzero" vector-effect="none"/></g><defs><clipPath id="clip115"><path d="M-69,-13 L74,-13 L74,18 L-69,18 L-69,-13 z"/></clipPath></defs><g clip-path="url(#clip115)" fill="#000000" fill-opacity="1" opacity="1" stroke="none" stroke-opacity="0" transform="matrix(0.7,0,0,0.7,112.5,24.5)"><path d="M34.5,-5.51562 C34.5,-4.19271 34.2292,-3.00521 33.6875,-1.95312 C33.3542,-1.30729 32.9323,-0.739583 32.4219,-0.25 C32.0052,0.145833 31.7396,0.34375 31.625,0.34375 C31.5312,0.34375 31.4844,0.302083 31.4844,0.21875 C31.4844,0.1875 31.5417,0.125 31.6562,0.03125 C33.0521,-1.23958 33.75,-3.08854 33.75,-5.51562 C33.75,-7.94271 33.0781,-9.76042 31.7344,-10.9688 C31.5677,-11.1146 31.4844,-11.2083 31.4844,-11.25 C31.4844,-11.3229 31.5312,-11.3594 31.625,-11.3594 C31.7396,-11.3594 31.9948,-11.1719 32.3906,-10.7969 C32.8906,-10.3281 33.3125,-9.78125 33.6562,-9.15625 C34.2188,-8.10417 34.5,-6.89062 34.5,-5.51562 z" fill-rule="nonzero" vector-effect="none"/></g><defs><clipPath id="clip116"><path d="M-69,-13 L74,-13 L74,18 L-69,18 L-69,-13 z"/></clipPath></defs><g clip-path="url(#clip116)" fill="#000000" fill-opacity="1" opacity="1" stroke="none" stroke-opacity="0" transform="matrix(0.7,0,0,0.7,112.5,24.5)"><path d="M-63.7031,16.2188 C-63.7031,16.3021 -63.7448,16.3438 -63.8281,16.3438 C-63.9427,16.3438 -64.1979,16.1562 -64.5938,15.7812 C-65.0938,15.3021 -65.5156,14.7552 -65.8594,14.1406 C-66.4323,13.0885 -66.7188,11.8698 -66.7188,10.4844 C-66.7188,9.17188 -66.4427,7.98438 -65.8906,6.92188 C-65.5677,6.28646 -65.1458,5.71875 -64.625,5.21875 C-64.2188,4.83333 -63.9531,4.64062 -63.8281,4.64062 C-63.7448,4.64062 -63.7031,4.67708 -63.7031,4.75 C-63.7031,4.79167 -63.7552,4.85938 -63.8594,4.95312 C-65.2552,6.21354 -65.9531,8.05729 -65.9531,10.4844 C-65.9531,12.901 -65.276,14.7292 -63.9219,15.9688 C-63.776,16.1042 -63.7031,16.1875 -63.7031,16.2188 z" fill-rule="nonzero" vector-effect="none"/></g><defs><clipPath id="clip117"><path d="M-69,-13 L74,-13 L74,18 L-69,18 L-69,-13 z"/></clipPath></defs><g clip-path="url(#clip117)" fill="#000000" fill-opacity="1" opacity="1" stroke="none" stroke-opacity="0" transform="matrix(0.7,0,0,0.7,112.5,24.5)"><path d="M-55.0469,11.6719 L-55.3125,11.5938 C-55.6719,12.3438 -55.9531,12.7812 -56.375,13.0469 C-57.0156,13.4844 -57.4062,13.5469 -58.7188,13.5469 C-59.7812,13.5469 -60.0781,13.4219 -60.0781,13.0156 C-60.0781,12.8281 -60.0312,12.6094 -59.9531,12.3125 L-58.3906,6.70312 C-58.1719,5.96875 -57.8594,5.75 -57.0781,5.70312 L-57.0781,5.5 L-60.625,5.5 L-60.625,5.70312 C-59.8125,5.75 -59.625,5.89062 -59.625,6.26562 C-59.625,6.46875 -59.6562,6.71875 -59.7656,7.07812 L-61.3438,12.7812 C-61.5781,13.6094 -61.6875,13.7344 -62.4219,13.8125 L-62.4219,14.0156 L-55.7969,14.0156 L-55.0469,11.6719 z" fill-rule="nonzero" vector-effect="none"/></g><defs><clipPath id="clip118"><path d="M-69,-13 L74,-13 L74,18 L-69,18 L-69,-13 z"/></clipPath></defs><g clip-path="url(#clip118)" fill="#000000" fill-opacity="1" opacity="1" stroke="none" stroke-opacity="0" transform="matrix(0.7,0,0,0.7,112.5,24.5)"><path d="M-49.0781,12.5625 L-49.4219,12.9375 C-49.8125,13.3594 -49.9844,13.4688 -50.0938,13.4688 C-50.2031,13.4688 -50.2812,13.3906 -50.2812,13.2969 C-50.2812,13.0312 -49.7344,10.7969 -49.125,8.57812 C-49.0938,8.45312 -49.0781,8.42188 -49.0469,8.3125 L-49.1406,8.26562 L-49.9375,8.35938 L-49.9688,8.39062 L-50.1094,9.01562 C-50.2188,8.54688 -50.5938,8.26562 -51.1562,8.26562 C-52.8906,8.26562 -54.875,10.625 -54.875,12.6406 C-54.875,13.625 -54.2969,14.1406 -53.5781,14.1406 C-52.6562,14.1406 -51.9062,13.5781 -50.9375,12.1094 C-51.2031,13.1719 -51.2344,13.2656 -51.2344,13.5938 C-51.2344,13.9688 -51.0781,14.125 -50.7188,14.125 C-50.1875,14.125 -49.875,13.8906 -48.9062,12.7031 L-49.0781,12.5625 M-50.3438,9.3125 C-50.3438,10.2344 -50.7344,11.3438 -51.3438,12.2344 C-51.7344,12.7969 -52.3438,13.5 -53,13.5 C-53.4688,13.5 -53.7812,13.2656 -53.7812,12.5469 C-53.7812,11.7188 -53.3281,10.5625 -52.7812,9.75 C-52.2344,8.95312 -51.6562,8.54688 -51.0781,8.54688 C-50.625,8.54688 -50.3438,8.85938 -50.3438,9.3125" fill-rule="nonzero" vector-effect="none"/></g><defs><clipPath id="clip119"><path d="M-69,-13 L74,-13 L74,18 L-69,18 L-69,-13 z"/></clipPath></defs><g clip-path="url(#clip119)" fill="#000000" fill-opacity="1" opacity="1" stroke="none" stroke-opacity="0" transform="matrix(0.7,0,0,0.7,112.5,24.5)"><path d="M-37.4531,11.1406 L-37.4531,10.2812 L-40.8438,10.2812 L-40.8438,6.89062 L-41.7031,6.89062 L-41.7031,10.2812 L-45.0938,10.2812 L-45.0938,11.1406 L-41.7031,11.1406 L-41.7031,14.5312 L-40.8438,14.5312 L-40.8438,11.1406 L-37.4531,11.1406 z" fill-rule="nonzero" vector-effect="none"/></g><defs><clipPath id="clip120"><path d="M-69,-13 L74,-13 L74,18 L-69,18 L-69,-13 z"/></clipPath></defs><g clip-path="url(#clip120)" fill="#000000" fill-opacity="1" opacity="1" stroke="none" stroke-opacity="0" transform="matrix(0.7,0,0,0.7,112.5,24.5)"><path d="M-26.0312,11.6719 L-26.2969,11.5938 C-26.6562,12.3438 -26.9375,12.7812 -27.3594,13.0469 C-28,13.4844 -28.3906,13.5469 -29.7031,13.5469 C-30.7656,13.5469 -31.0625,13.4219 -31.0625,13.0156 C-31.0625,12.8281 -31.0156,12.6094 -30.9375,12.3125 L-29.375,6.70312 C-29.1562,5.96875 -28.8438,5.75 -28.0625,5.70312 L-28.0625,5.5 L-31.6094,5.5 L-31.6094,5.70312 C-30.7969,5.75 -30.6094,5.89062 -30.6094,6.26562 C-30.6094,6.46875 -30.6406,6.71875 -30.75,7.07812 L-32.3281,12.7812 C-32.5625,13.6094 -32.6719,13.7344 -33.4062,13.8125 L-33.4062,14.0156 L-26.7812,14.0156 L-26.0312,11.6719 z" fill-rule="nonzero" vector-effect="none"/></g><defs><clipPath id="clip121"><path d="M-69,-13 L74,-13 L74,18 L-69,18 L-69,-13 z"/></clipPath></defs><g clip-path="url(#clip121)" fill="#000000" fill-opacity="1" opacity="1" stroke="none" stroke-opacity="0" transform="matrix(0.7,0,0,0.7,112.5,24.5)"><path d="M-25.5469,8.4375 L-25.6406,8.85938 L-24.4531,8.85938 L-25.5938,14.3125 C-25.8906,15.7188 -26.3125,16.4219 -26.8594,16.4219 C-27.0156,16.4219 -27.125,16.3281 -27.125,16.2031 C-27.125,16.0625 -27,16 -27,15.8281 C-27,15.5625 -27.2031,15.3594 -27.5,15.3594 C-27.7656,15.3594 -27.9844,15.5938 -27.9844,15.8906 C-27.9844,16.3594 -27.5469,16.6875 -26.9688,16.6875 C-25.7812,16.6875 -24.9062,15.4219 -24.3594,13.0156 L-23.4219,8.85938 L-22.0156,8.85938 L-21.9375,8.4375 L-23.3281,8.4375 C-22.9531,6.375 -22.4844,5.46875 -21.75,5.46875 C-21.5625,5.46875 -21.4688,5.53125 -21.4688,5.64062 C-21.4688,5.75 -21.5938,5.82812 -21.5938,6.04688 C-21.5938,6.35938 -21.3438,6.54688 -21.1094,6.54688 C-20.8125,6.54688 -20.5625,6.28125 -20.5625,5.98438 C-20.5625,5.53125 -21.0469,5.1875 -21.6875,5.1875 C-22.4844,5.1875 -23.0156,5.625 -23.4062,6.1875 C-23.8281,6.79688 -24.0469,7.51562 -24.3438,8.4375 L-25.5469,8.4375 z" fill-rule="nonzero" vector-effect="none"/></g><defs><clipPath id="clip122"><path d="M-69,-13 L74,-13 L74,18 L-69,18 L-69,-13 z"/></clipPath></defs><g clip-path="url(#clip122)" fill="#000000" fill-opacity="1" opacity="1" stroke="none" stroke-opacity="0" transform="matrix(0.7,0,0,0.7,112.5,24.5)"><path d="M-16.125,10.4844 C-16.125,11.8073 -16.3958,12.9948 -16.9375,14.0469 C-17.2708,14.6927 -17.6927,15.2604 -18.2031,15.75 C-18.6198,16.1458 -18.8854,16.3438 -19,16.3438 C-19.0938,16.3438 -19.1406,16.3021 -19.1406,16.2188 C-19.1406,16.1875 -19.0833,16.125 -18.9688,16.0312 C-17.5729,14.7604 -16.875,12.9115 -16.875,10.4844 C-16.875,8.05729 -17.5469,6.23958 -18.8906,5.03125 C-19.0573,4.88542 -19.1406,4.79167 -19.1406,4.75 C-19.1406,4.67708 -19.0938,4.64062 -19,4.64062 C-18.8854,4.64062 -18.6302,4.82812 -18.2344,5.20312 C-17.7344,5.67188 -17.3125,6.21875 -16.9688,6.84375 C-16.4062,7.89583 -16.125,9.10938 -16.125,10.4844 z" fill-rule="nonzero" vector-effect="none"/></g><defs><clipPath id="clip123"><path d="M-69,-13 L74,-13 L74,18 L-69,18 L-69,-13 z"/></clipPath></defs><g clip-path="url(#clip123)" fill="#000000" fill-opacity="1" opacity="1" stroke="none" stroke-opacity="0" transform="matrix(0.7,0,0,0.7,112.5,24.5)"><path d="M-9.14062,4.75 L-13.5625,16.9844 C-13.625,17.1615 -13.7188,17.25 -13.8438,17.25 C-14.0104,17.25 -14.0938,17.1615 -14.0938,16.9844 C-14.0938,16.9531 -14.0729,16.875 -14.0312,16.75 L-9.60938,4.51562 C-9.54688,4.33854 -9.45312,4.25 -9.32812,4.25 C-9.15104,4.25 -9.0625,4.33854 -9.0625,4.51562 C-9.0625,4.54688 -9.08854,4.625 -9.14062,4.75 z" fill-rule="nonzero" vector-effect="none"/></g><defs><clipPath id="clip124"><path d="M-69,-13 L74,-13 L74,18 L-69,18 L-69,-13 z"/></clipPath></defs><g clip-path="url(#clip124)" fill="#000000" fill-opacity="1" opacity="1" stroke="none" stroke-opacity="0" transform="matrix(0.7,0,0,0.7,112.5,24.5)"><path d="M-4.03125,16.2188 C-4.03125,16.3021 -4.07292,16.3438 -4.15625,16.3438 C-4.27083,16.3438 -4.52604,16.1562 -4.92188,15.7812 C-5.42188,15.3021 -5.84375,14.7552 -6.1875,14.1406 C-6.76042,13.0885 -7.04688,11.8698 -7.04688,10.4844 C-7.04688,9.17188 -6.77083,7.98438 -6.21875,6.92188 C-5.89583,6.28646 -5.47396,5.71875 -4.95312,5.21875 C-4.54688,4.83333 -4.28125,4.64062 -4.15625,4.64062 C-4.07292,4.64062 -4.03125,4.67708 -4.03125,4.75 C-4.03125,4.79167 -4.08333,4.85938 -4.1875,4.95312 C-5.58333,6.21354 -6.28125,8.05729 -6.28125,10.4844 C-6.28125,12.901 -5.60417,14.7292 -4.25,15.9688 C-4.10417,16.1042 -4.03125,16.1875 -4.03125,16.2188 z" fill-rule="nonzero" vector-effect="none"/></g><defs><clipPath id="clip125"><path d="M-69,-13 L74,-13 L74,18 L-69,18 L-69,-13 z"/></clipPath></defs><g clip-path="url(#clip125)" fill="#000000" fill-opacity="1" opacity="1" stroke="none" stroke-opacity="0" transform="matrix(0.7,0,0,0.7,112.5,24.5)"><path d="M-0.921875,5.5 L-0.921875,5.70312 C-0.375,5.78125 -0.328125,5.79688 -0.1875,5.89062 C-0.09375,5.95312 0,6.10938 0,6.25 C0,6.46875 -0.0625,6.71875 -0.15625,7.07812 L-1.70312,12.7031 C-1.90625,13.4688 -2.09375,13.7188 -2.8125,13.8125 L-2.8125,14.0156 L0.34375,14.0156 L0.34375,13.8125 C-0.390625,13.7344 -0.515625,13.5781 -0.515625,13.1875 C-0.515625,13.0625 -0.5,12.875 -0.359375,12.375 L0.359375,9.71875 L1.21875,9.78125 L2.8125,14.0156 L4.73438,14.0156 L4.73438,13.8125 C4.14062,13.8125 3.89062,13.5 3.59375,12.7344 L2.4375,9.67188 C3.3125,9.46875 3.75,9.3125 4.14062,9 C4.67188,8.59375 5,7.96875 5,7.32812 C5,6.23438 4.0625,5.5 2.35938,5.5 L-0.921875,5.5 M1.34375,6.28125 C1.40625,6.03125 1.67188,5.89062 2.07812,5.89062 C3.09375,5.89062 3.64062,6.45312 3.64062,7.34375 C3.64062,8.5625 2.73438,9.3125 1.1875,9.3125 C0.953125,9.3125 0.84375,9.29688 0.515625,9.23438 L1.34375,6.28125" fill-rule="nonzero" vector-effect="none"/></g><defs><clipPath id="clip126"><path d="M-69,-13 L74,-13 L74,18 L-69,18 L-69,-13 z"/></clipPath></defs><g clip-path="url(#clip126)" fill="#000000" fill-opacity="1" opacity="1" stroke="none" stroke-opacity="0" transform="matrix(0.7,0,0,0.7,112.5,24.5)"><path d="M11.3125,12.5625 L10.9688,12.9375 C10.5781,13.3594 10.4062,13.4688 10.2969,13.4688 C10.1875,13.4688 10.1094,13.3906 10.1094,13.2969 C10.1094,13.0312 10.6562,10.7969 11.2656,8.57812 C11.2969,8.45312 11.3125,8.42188 11.3438,8.3125 L11.25,8.26562 L10.4531,8.35938 L10.4219,8.39062 L10.2812,9.01562 C10.1719,8.54688 9.79688,8.26562 9.23438,8.26562 C7.5,8.26562 5.51562,10.625 5.51562,12.6406 C5.51562,13.625 6.09375,14.1406 6.8125,14.1406 C7.73438,14.1406 8.48438,13.5781 9.45312,12.1094 C9.1875,13.1719 9.15625,13.2656 9.15625,13.5938 C9.15625,13.9688 9.3125,14.125 9.67188,14.125 C10.2031,14.125 10.5156,13.8906 11.4844,12.7031 L11.3125,12.5625 M10.0469,9.3125 C10.0469,10.2344 9.65625,11.3438 9.04688,12.2344 C8.65625,12.7969 8.04688,13.5 7.39062,13.5 C6.92188,13.5 6.60938,13.2656 6.60938,12.5469 C6.60938,11.7188 7.0625,10.5625 7.60938,9.75 C8.15625,8.95312 8.73438,8.54688 9.3125,8.54688 C9.76562,8.54688 10.0469,8.85938 10.0469,9.3125" fill-rule="nonzero" vector-effect="none"/></g><defs><clipPath id="clip127"><path d="M-69,-13 L74,-13 L74,18 L-69,18 L-69,-13 z"/></clipPath></defs><g clip-path="url(#clip127)" fill="#000000" fill-opacity="1" opacity="1" stroke="none" stroke-opacity="0" transform="matrix(0.7,0,0,0.7,112.5,24.5)"><path d="M22.9375,11.1406 L22.9375,10.2812 L19.5469,10.2812 L19.5469,6.89062 L18.6875,6.89062 L18.6875,10.2812 L15.2969,10.2812 L15.2969,11.1406 L18.6875,11.1406 L18.6875,14.5312 L19.5469,14.5312 L19.5469,11.1406 L22.9375,11.1406 z" fill-rule="nonzero" vector-effect="none"/></g><defs><clipPath id="clip128"><path d="M-69,-13 L74,-13 L74,18 L-69,18 L-69,-13 z"/></clipPath></defs><g clip-path="url(#clip128)" fill="#000000" fill-opacity="1" opacity="1" stroke="none" stroke-opacity="0" transform="matrix(0.7,0,0,0.7,112.5,24.5)"><path d="M28.8125,5.5 L28.8125,5.70312 C29.3594,5.78125 29.4062,5.79688 29.5469,5.89062 C29.6406,5.95312 29.7344,6.10938 29.7344,6.25 C29.7344,6.46875 29.6719,6.71875 29.5781,7.07812 L28.0312,12.7031 C27.8281,13.4688 27.6406,13.7188 26.9219,13.8125 L26.9219,14.0156 L30.0781,14.0156 L30.0781,13.8125 C29.3438,13.7344 29.2188,13.5781 29.2188,13.1875 C29.2188,13.0625 29.2344,12.875 29.375,12.375 L30.0938,9.71875 L30.9531,9.78125 L32.5469,14.0156 L34.4688,14.0156 L34.4688,13.8125 C33.875,13.8125 33.625,13.5 33.3281,12.7344 L32.1719,9.67188 C33.0469,9.46875 33.4844,9.3125 33.875,9 C34.4062,8.59375 34.7344,7.96875 34.7344,7.32812 C34.7344,6.23438 33.7969,5.5 32.0938,5.5 L28.8125,5.5 M31.0781,6.28125 C31.1406,6.03125 31.4062,5.89062 31.8125,5.89062 C32.8281,5.89062 33.375,6.45312 33.375,7.34375 C33.375,8.5625 32.4688,9.3125 30.9219,9.3125 C30.6875,9.3125 30.5781,9.29688 30.25,9.23438 L31.0781,6.28125" fill-rule="nonzero" vector-effect="none"/></g><defs><clipPath id="clip129"><path d="M-69,-13 L74,-13 L74,18 L-69,18 L-69,-13 z"/></clipPath></defs><g clip-path="url(#clip129)" fill="#000000" fill-opacity="1" opacity="1" stroke="none" stroke-opacity="0" transform="matrix(0.7,0,0,0.7,112.5,24.5)"><path d="M35.5625,8.4375 L35.4688,8.85938 L36.6562,8.85938 L35.5156,14.3125 C35.2188,15.7188 34.7969,16.4219 34.25,16.4219 C34.0938,16.4219 33.9844,16.3281 33.9844,16.2031 C33.9844,16.0625 34.1094,16 34.1094,15.8281 C34.1094,15.5625 33.9062,15.3594 33.6094,15.3594 C33.3438,15.3594 33.125,15.5938 33.125,15.8906 C33.125,16.3594 33.5625,16.6875 34.1406,16.6875 C35.3281,16.6875 36.2031,15.4219 36.75,13.0156 L37.6875,8.85938 L39.0938,8.85938 L39.1719,8.4375 L37.7812,8.4375 C38.1562,6.375 38.625,5.46875 39.3594,5.46875 C39.5469,5.46875 39.6406,5.53125 39.6406,5.64062 C39.6406,5.75 39.5156,5.82812 39.5156,6.04688 C39.5156,6.35938 39.7656,6.54688 40,6.54688 C40.2969,6.54688 40.5469,6.28125 40.5469,5.98438 C40.5469,5.53125 40.0625,5.1875 39.4219,5.1875 C38.625,5.1875 38.0938,5.625 37.7031,6.1875 C37.2812,6.79688 37.0625,7.51562 36.7656,8.4375 L35.5625,8.4375 z" fill-rule="nonzero" vector-effect="none"/></g><defs><clipPath id="clip130"><path d="M-69,-13 L74,-13 L74,18 L-69,18 L-69,-13 z"/></clipPath></defs><g clip-path="url(#clip130)" fill="#000000" fill-opacity="1" opacity="1" stroke="none" stroke-opacity="0" transform="matrix(0.7,0,0,0.7,112.5,24.5)"><path d="M44.9844,10.4844 C44.9844,11.8073 44.7135,12.9948 44.1719,14.0469 C43.8385,14.6927 43.4167,15.2604 42.9062,15.75 C42.4896,16.1458 42.224,16.3438 42.1094,16.3438 C42.0156,16.3438 41.9688,16.3021 41.9688,16.2188 C41.9688,16.1875 42.026,16.125 42.1406,16.0312 C43.5365,14.7604 44.2344,12.9115 44.2344,10.4844 C44.2344,8.05729 43.5625,6.23958 42.2188,5.03125 C42.0521,4.88542 41.9688,4.79167 41.9688,4.75 C41.9688,4.67708 42.0156,4.64062 42.1094,4.64062 C42.224,4.64062 42.4792,4.82812 42.875,5.20312 C43.375,5.67188 43.7969,6.21875 44.1406,6.84375 C44.7031,7.89583 44.9844,9.10938 44.9844,10.4844 z" fill-rule="nonzero" vector-effect="none"/></g><defs><clipPath id="clip131"><path d="M-69,-13 L74,-13 L74,18 L-69,18 L-69,-13 z"/></clipPath></defs><g clip-path="url(#clip131)" fill="#000000" fill-opacity="1" opacity="1" stroke="none" stroke-opacity="0" transform="matrix(0.7,0,0,0.7,112.5,24.5)"><path d="M51.0469,8.25 L50.8594,8.25 C50.75,8.4375 50.6562,8.48438 50.4688,8.48438 C50.3594,8.48438 50.25,8.46875 50,8.39062 C49.6719,8.3125 49.5,8.26562 49.2656,8.26562 C48.3125,8.26562 47.7031,8.8125 47.7031,9.67188 C47.7031,10.0938 47.9531,10.6719 48.5156,11.375 C49.0312,12.0156 49.25,12.4531 49.25,12.875 C49.25,13.5 48.875,13.875 48.25,13.875 C47.5781,13.875 47.1406,13.3438 46.9531,12.1094 L46.75,12.1094 L46.4844,14.1719 L46.7031,14.1719 C46.7812,13.9688 46.9375,13.8906 47.0781,13.8906 C47.2188,13.8906 47.4062,13.9062 47.6406,14.0156 C47.9531,14.125 48.1406,14.1406 48.3594,14.1406 C49.4375,14.1406 50.2344,13.4844 50.2344,12.4062 C50.2344,11.8906 50,11.3906 49.3438,10.6406 C48.8438,10.0312 48.6406,9.65625 48.6406,9.3125 C48.6406,8.82812 48.9531,8.5625 49.4219,8.5625 C50.0469,8.5625 50.4375,9 50.5781,10.0781 L50.7812,10.0781 L51.0469,8.25 z" fill-rule="nonzero" vector-effect="none"/></g><defs><clipPath id="clip132"><path d="M-69,-13 L74,-13 L74,18 L-69,18 L-69,-13 z"/></clipPath></defs><g clip-path="url(#clip132)" fill="#000000" fill-opacity="1" opacity="1" stroke="none" stroke-opacity="0" transform="matrix(0.7,0,0,0.7,112.5,24.5)"><path d="M62.4688,11.1406 L62.4688,10.2812 L59.0781,10.2812 L59.0781,6.89062 L58.2188,6.89062 L58.2188,10.2812 L54.8281,10.2812 L54.8281,11.1406 L58.2188,11.1406 L58.2188,14.5312 L59.0781,14.5312 L59.0781,11.1406 L62.4688,11.1406 z" fill-rule="nonzero" vector-effect="none"/></g><defs><clipPath id="clip133"><path d="M-69,-13 L74,-13 L74,18 L-69,18 L-69,-13 z"/></clipPath></defs><g clip-path="url(#clip133)" fill="#000000" fill-opacity="1" opacity="1" stroke="none" stroke-opacity="0" transform="matrix(0.7,0,0,0.7,112.5,24.5)"><path d="M71.0938,14 L71.0938,13.8125 C70.1094,13.8125 69.8594,13.5781 69.8594,13.0156 L69.8594,5.25 L69.7344,5.21875 L67.4062,6.39062 L67.4062,6.57812 L67.7656,6.45312 C68,6.35938 68.2188,6.29688 68.3438,6.29688 C68.625,6.29688 68.7344,6.48438 68.7344,6.92188 L68.7344,12.7656 C68.7344,13.4844 68.4688,13.75 67.5,13.8125 L67.5,14 L71.0938,14 z" fill-rule="nonzero" vector-effect="none"/></g><defs><clipPath id="clip156"><path d="M-41.5,-2.5 L333.812,-2.5 L333.812,250.5 L-41.5,250.5 L-41.5,-2.5 z"/></clipPath></defs><g clip-path="url(#clip156)" fill="none" opacity="1" stroke="#000000" stroke-linecap="butt" stroke-linejoin="miter" stroke-miterlimit="2" stroke-opacity="1" stroke-width="1" transform="matrix(1,0,0,1,41.5,2.5)"><path d="M0,0 L145,0 L145,48 L0,48 L0,0 z" fill-rule="evenodd" vector-effect="none"/></g><defs><clipPath id="clip159"><path d="M-47,-218 L328.312,-218 L328.312,35 L-47,35 L-47,-218 z"/></clipPath></defs><g clip-path="url(#clip159)" fill="#ffffff" fill-opacity="1" opacity="1" stroke="none" stroke-opacity="0" transform="matrix(1,0,0,1,47,218)"><path d="M0,0 L30,0 L30,31 L0,31 L0,0 z" fill-rule="evenodd" vector-effect="none"/></g><defs><clipPath id="clip163"><path d="M165,337 L195,337 L195,368 L165,368 L165,337 z"/></clipPath></defs><g clip-path="url(#clip163)" fill="none" opacity="1" stroke="#000000" stroke-linecap="butt" stroke-linejoin="miter" stroke-miterlimit="2" stroke-opacity="1" stroke-width="1" transform="matrix(1,0,0,1,-117.5,-118.5)"><polyline fill="none" points="183,355 177,349" vector-effect="none"/></g><defs><clipPath id="clip164"><path d="M165,337 L195,337 L195,368 L165,368 L165,337 z"/></clipPath></defs><g clip-path="url(#clip164)" fill="none" opacity="1" stroke="#000000" stroke-linecap="butt" stroke-linejoin="miter" stroke-miterlimit="2" stroke-opacity="1" stroke-width="1" transform="matrix(1,0,0,1,-117.5,-118.5)"><polyline fill="none" points="183,349 177,355" vector-effect="none"/></g><defs><clipPath id="clip169"><path d="M-46.5,-218.5 L328.812,-218.5 L328.812,34.5 L-46.5,34.5 L-46.5,-218.5 z"/></clipPath></defs><g clip-path="url(#clip169)" fill="none" opacity="1" stroke="#000000" stroke-linecap="butt" stroke-linejoin="miter" stroke-miterlimit="2" stroke-opacity="1" stroke-width="1" transform="matrix(1,0,0,1,46.5,218.5)"><path d="M0,0 L30,0 L30,31 L0,31 L0,0 z" fill-rule="evenodd" vector-effect="none"/></g><defs><clipPath id="clip172"><path d="M-92,-155 L283.312,-155 L283.312,98 L-92,98 L-92,-155 z"/></clipPath></defs><g clip-path="url(#clip172)" fill="#ffffff" fill-opacity="1" opacity="1" stroke="none" stroke-opacity="0" transform="matrix(1,0,0,1,92,155)"><path d="M0,0 L95,0 L95,42 L0,42 L0,0 z" fill-rule="evenodd" vector-effect="none"/></g><defs><clipPath id="clip176"><path d="M0,0 L96,0 L96,43 L0,43 L0,0 z"/></clipPath></defs><g clip-path="url(#clip176)" fill="none" opacity="1" stroke="none" stroke-opacity="0" transform="matrix(1,0,0,1,91.5,155)"><path d="M0,0 L96,0 L96,43 L0,43 L0,0 z" fill-rule="evenodd" vector-effect="none"/></g><defs><clipPath id="clip187"><path d="M-26,-13 L31,-13 L31,18 L-26,18 L-26,-13 z"/></clipPath></defs><g clip-path="url(#clip187)" fill="#000000" fill-opacity="1" opacity="1" stroke="none" stroke-opacity="0" transform="matrix(1,0,0,1,136.5,173.5)"><path d="M-25,2 L30,2 L30,3 L-25,3 L-25,2 z" fill-rule="evenodd" vector-effect="none"/></g><defs><clipPath id="clip188"><path d="M-26,-13 L31,-13 L31,18 L-26,18 L-26,-13 z"/></clipPath></defs><g clip-path="url(#clip188)" fill="#000000" fill-opacity="1" opacity="1" stroke="none" stroke-opacity="0" transform="matrix(1,0,0,1,136.5,173.5)"><path d="M3.875,-2 L3.875,-2.1875 C2.89062,-2.1875 2.64062,-2.42188 2.64062,-2.98438 L2.64062,-10.75 L2.51562,-10.7812 L0.1875,-9.60938 L0.1875,-9.42188 L0.546875,-9.54688 C0.78125,-9.64062 1,-9.70312 1.125,-9.70312 C1.40625,-9.70312 1.51562,-9.51562 1.51562,-9.07812 L1.51562,-3.23438 C1.51562,-2.51562 1.25,-2.25 0.28125,-2.1875 L0.28125,-2 L3.875,-2 z" fill-rule="nonzero" vector-effect="none"/></g><defs><clipPath id="clip189"><path d="M-26,-13 L31,-13 L31,18 L-26,18 L-26,-13 z"/></clipPath></defs><g clip-path="url(#clip189)" fill="#000000" fill-opacity="1" opacity="1" stroke="none" stroke-opacity="0" transform="matrix(1,0,0,1,136.5,173.5)"><path d="M-17.9688,5.5 L-21.2812,5.5 L-21.2812,5.70312 C-20.4531,5.78125 -20.2812,5.89062 -20.2812,6.23438 C-20.2812,6.4375 -20.3281,6.70312 -20.4375,7.07812 L-22.0781,12.9844 C-22.2344,13.5 -22.4688,13.8125 -22.7656,13.8125 C-23.0781,13.8125 -23.2344,13.6719 -23.2344,13.3125 C-23.2344,13.1875 -23.1875,13.1094 -23.1875,12.9531 C-23.1875,12.6406 -23.5,12.3594 -23.8594,12.3594 C-24.2031,12.3594 -24.4375,12.6719 -24.4375,13.0938 C-24.4375,13.7812 -23.8281,14.2344 -22.9219,14.2344 C-22.25,14.2344 -21.6875,14.0156 -21.2969,13.5156 C-20.9688,13.0781 -20.6562,12.4375 -20.375,11.4531 L-19.0469,6.67188 C-18.8281,5.89062 -18.7188,5.8125 -17.9688,5.70312 L-17.9688,5.5 z" fill-rule="nonzero" vector-effect="none"/></g><defs><clipPath id="clip190"><path d="M-26,-13 L31,-13 L31,18 L-26,18 L-26,-13 z"/></clipPath></defs><g clip-path="url(#clip190)" fill="#000000" fill-opacity="1" opacity="1" stroke="none" stroke-opacity="0" transform="matrix(1,0,0,1,136.5,173.5)"><path d="M-11.7812,10.7031 C-11.7812,10.2969 -12.1406,9.9375 -12.5469,9.9375 C-12.9844,9.9375 -13.3438,10.3281 -13.3438,10.7031 C-13.3438,11.0938 -12.9844,11.4844 -12.5469,11.4844 C-12.1406,11.4844 -11.7812,11.125 -11.7812,10.7031 z" fill-rule="nonzero" vector-effect="none"/></g><defs><clipPath id="clip191"><path d="M-26,-13 L31,-13 L31,18 L-26,18 L-26,-13 z"/></clipPath></defs><g clip-path="url(#clip191)" fill="#000000" fill-opacity="1" opacity="1" stroke="none" stroke-opacity="0" transform="matrix(1,0,0,1,136.5,173.5)"><path d="M-3.07812,8.25 L-3.26562,8.25 C-3.375,8.4375 -3.46875,8.48438 -3.65625,8.48438 C-3.76562,8.48438 -3.875,8.46875 -4.125,8.39062 C-4.45312,8.3125 -4.625,8.26562 -4.85938,8.26562 C-5.8125,8.26562 -6.42188,8.8125 -6.42188,9.67188 C-6.42188,10.0938 -6.17188,10.6719 -5.60938,11.375 C-5.09375,12.0156 -4.875,12.4531 -4.875,12.875 C-4.875,13.5 -5.25,13.875 -5.875,13.875 C-6.54688,13.875 -6.98438,13.3438 -7.17188,12.1094 L-7.375,12.1094 L-7.64062,14.1719 L-7.42188,14.1719 C-7.34375,13.9688 -7.1875,13.8906 -7.04688,13.8906 C-6.90625,13.8906 -6.71875,13.9062 -6.48438,14.0156 C-6.17188,14.125 -5.98438,14.1406 -5.76562,14.1406 C-4.6875,14.1406 -3.89062,13.4844 -3.89062,12.4062 C-3.89062,11.8906 -4.125,11.3906 -4.78125,10.6406 C-5.28125,10.0312 -5.48438,9.65625 -5.48438,9.3125 C-5.48438,8.82812 -5.17188,8.5625 -4.70312,8.5625 C-4.07812,8.5625 -3.6875,9 -3.54688,10.0781 L-3.34375,10.0781 L-3.07812,8.25 z" fill-rule="nonzero" vector-effect="none"/></g><defs><clipPath id="clip192"><path d="M-26,-13 L31,-13 L31,18 L-26,18 L-26,-13 z"/></clipPath></defs><g clip-path="url(#clip192)" fill="#000000" fill-opacity="1" opacity="1" stroke="none" stroke-opacity="0" transform="matrix(1,0,0,1,136.5,173.5)"><path d="M8.34375,11.1406 L8.34375,10.2812 L4.95312,10.2812 L4.95312,6.89062 L4.09375,6.89062 L4.09375,10.2812 L0.703125,10.2812 L0.703125,11.1406 L4.09375,11.1406 L4.09375,14.5312 L4.95312,14.5312 L4.95312,11.1406 L8.34375,11.1406 z" fill-rule="nonzero" vector-effect="none"/></g><defs><clipPath id="clip193"><path d="M-26,-13 L31,-13 L31,18 L-26,18 L-26,-13 z"/></clipPath></defs><g clip-path="url(#clip193)" fill="#000000" fill-opacity="1" opacity="1" stroke="none" stroke-opacity="0" transform="matrix(1,0,0,1,136.5,173.5)"><path d="M14.1875,5.5 L14.1875,5.70312 C15.0156,5.76562 15.1875,5.85938 15.1875,6.23438 C15.1875,6.4375 15.1406,6.75 15.0469,7.07812 L13.4688,12.7656 C13.25,13.5781 13.1094,13.7031 12.3906,13.8125 L12.3906,14.0156 L15.9375,14.0156 C18.0312,14.0156 19.5,13.1562 19.5,11.4062 C19.5,10.4844 18.9844,9.78125 17.875,9.45312 L17.875,9.4375 C18.4219,9.3125 18.9062,9.20312 19.3125,8.92188 C19.7812,8.60938 20.1406,8.15625 20.1406,7.45312 C20.1406,6.15625 19.25,5.5 17.4375,5.5 L14.1875,5.5 M15.7188,9.28125 L16.5469,6.35938 C16.6719,5.89062 16.7969,5.89062 17.3125,5.89062 C18.3594,5.89062 18.8281,6.32812 18.8281,7.29688 C18.8281,8.59375 17.9219,9.28125 16.2188,9.28125 L15.7188,9.28125 M15.5938,9.70312 C16.4062,9.70312 16.9688,9.76562 17.2344,9.85938 C17.7188,10.0156 18.1094,10.5938 18.1094,11.4062 C18.1094,12.8594 17.0938,13.625 15.5938,13.625 C15.0469,13.625 14.7188,13.4375 14.7188,13.0781 C14.7188,12.9062 14.9219,12.2344 15.1719,11.25 L15.5938,9.70312" fill-rule="nonzero" vector-effect="none"/></g><defs><clipPath id="clip194"><path d="M-26,-13 L31,-13 L31,18 L-26,18 L-26,-13 z"/></clipPath></defs><g clip-path="url(#clip194)" fill="#000000" fill-opacity="1" opacity="1" stroke="none" stroke-opacity="0" transform="matrix(1,0,0,1,136.5,173.5)"><path d="M29.5938,12.6406 L29.3906,12.4844 L29.125,12.8125 C28.7344,13.2969 28.5,13.5 28.2812,13.5 C28.1719,13.5 28.125,13.4375 28.125,13.2969 C28.125,13.25 28.1719,13.0156 28.25,12.7188 L29.1406,9.45312 C29.1406,9.39062 29.1719,9.17188 29.1719,9.07812 C29.1719,8.625 28.9062,8.26562 28.4219,8.26562 C28.1562,8.26562 27.9062,8.32812 27.5938,8.53125 C26.9688,8.9375 26.4375,9.57812 25.5156,11.0156 C25.875,10.0156 26.0469,9.29688 26.0469,9.04688 C26.0469,8.57812 25.7812,8.26562 25.2656,8.26562 C24.4688,8.26562 23.5625,9.125 22.4062,11.0156 L23.1562,8.29688 L23.1094,8.26562 L21.0156,8.67188 L21.0156,8.875 L21.3281,8.875 C21.6875,8.875 21.875,8.96875 21.875,9.15625 C21.875,9.3125 21.6719,10.4062 21.1562,12.125 L20.5938,14.0156 L21.5625,14.0156 C22.1875,11.9531 22.375,11.4844 22.8125,10.8125 C23.5469,9.70312 24.3125,8.9375 24.75,8.9375 C24.9219,8.9375 25.0469,9.0625 25.0469,9.26562 C25.0469,9.4375 24.7344,10.8125 24.1562,12.7969 L23.7969,14.0156 L24.7812,14.0156 C25.2812,12 25.5469,11.375 26.1875,10.4688 C26.8281,9.5625 27.5,8.9375 27.8906,8.9375 C28.0312,8.9375 28.1406,9.0625 28.1406,9.21875 C28.1406,9.28125 28.125,9.45312 28.0625,9.71875 L27.2969,12.6719 C27.1719,13.1719 27.125,13.4062 27.125,13.5312 C27.125,13.9062 27.3125,14.1094 27.6562,14.1094 C28.2656,14.1094 28.8281,13.6875 29.5312,12.7188 L29.5938,12.6406 z" fill-rule="nonzero" vector-effect="none"/></g><defs><clipPath id="clip217"><path d="M-91.5,-155.5 L283.812,-155.5 L283.812,97.5 L-91.5,97.5 L-91.5,-155.5 z"/></clipPath></defs><g clip-path="url(#clip217)" fill="none" opacity="1" stroke="#000000" stroke-linecap="butt" stroke-linejoin="miter" stroke-miterlimit="2" stroke-opacity="1" stroke-width="1" transform="matrix(1,0,0,1,91.5,155.5)"><path d="M0,0 L95,0 L95,42 L0,42 L0,0 z" fill-rule="evenodd" vector-effect="none"/></g><defs><clipPath id="clip220"><path d="M-232,-166 L143.312,-166 L143.312,87 L-232,87 L-232,-166 z"/></clipPath></defs><g clip-path="url(#clip220)" fill="#ffffff" fill-opacity="1" opacity="1" stroke="none" stroke-opacity="0" transform="matrix(1,0,0,1,232,166)"><path d="M0,10 C0,4.47715 4.47715,0 10,0 C15.5228,0 20,4.47715 20,10 C20,15.5228 15.5228,20 10,20 C4.47715,20 0,15.5228 0,10 z" fill-rule="nonzero" vector-effect="none"/></g><defs><clipPath id="clip224"><path d="M350,285 L370,285 L370,305 L350,305 L350,285 z"/></clipPath></defs><g clip-path="url(#clip224)" fill="none" opacity="1" stroke="#000000" stroke-linecap="butt" stroke-linejoin="miter" stroke-miterlimit="2" stroke-opacity="1" stroke-width="1" transform="matrix(1,0,0,1,-117.5,-118.5)"><polyline fill="none" points="363,295 367,295" vector-effect="none"/></g><defs><clipPath id="clip225"><path d="M350,285 L370,285 L370,305 L350,305 L350,285 z"/></clipPath></defs><g clip-path="url(#clip225)" fill="none" opacity="1" stroke="#000000" stroke-linecap="butt" stroke-linejoin="miter" stroke-miterlimit="2" stroke-opacity="1" stroke-width="1" transform="matrix(1,0,0,1,-117.5,-118.5)"><polyline fill="none" points="358,300 362,300" vector-effect="none"/></g><defs><clipPath id="clip226"><path d="M350,285 L370,285 L370,305 L350,305 L350,285 z"/></clipPath></defs><g clip-path="url(#clip226)" fill="none" opacity="1" stroke="#000000" stroke-linecap="butt" stroke-linejoin="miter" stroke-miterlimit="2" stroke-opacity="1" stroke-width="1" transform="matrix(1,0,0,1,-117.5,-118.5)"><polyline fill="none" points="360,298 360,302" vector-effect="none"/></g><defs><clipPath id="clip231"><path d="M-231.5,-166.5 L143.812,-166.5 L143.812,86.5 L-231.5,86.5 L-231.5,-166.5 z"/></clipPath></defs><g clip-path="url(#clip231)" fill="none" opacity="1" stroke="#000000" stroke-linecap="butt" stroke-linejoin="miter" stroke-miterlimit="2" stroke-opacity="1" stroke-width="1" transform="matrix(1,0,0,1,231.5,166.5)"><path d="M0,10 C0,4.47715 4.47715,0 10,0 C15.5228,0 20,4.47715 20,10 C20,15.5228 15.5228,20 10,20 C4.47715,20 0,15.5228 0,10 z" fill-rule="nonzero" vector-effect="none"/></g><defs><clipPath id="clip234"><path d="M-157,-221 L218.312,-221 L218.312,32 L-157,32 L-157,-221 z"/></clipPath></defs><g clip-path="url(#clip234)" fill="#ffffff" fill-opacity="1" opacity="1" stroke="none" stroke-opacity="0" transform="matrix(1,0,0,1,157,221)"><path d="M0,0 L30,15 L0,30 L0,0 z" fill-rule="nonzero" vector-effect="none"/></g><defs><clipPath id="clip238"><path d="M-8,-15 L22,-15 L22,15 L-8,15 L-8,-15 z"/></clipPath></defs><g clip-path="url(#clip238)" fill="none" opacity="1" stroke="#000000" stroke-linecap="butt" stroke-linejoin="miter" stroke-miterlimit="2" stroke-opacity="1" stroke-width="1" transform="matrix(1,0,0,1,165,236)"><text fill="#000000" fill-opacity="1" font-family="Liberation Sans" font-size="10" font-style="normal" font-weight="400" stroke="none" textLength="13.8594" x="-6.92188" xml:space="preserve" y="3.5">Laf</text></g><defs><clipPath id="clip243"><path d="M-156.5,-221.5 L218.812,-221.5 L218.812,31.5 L-156.5,31.5 L-156.5,-221.5 z"/></clipPath></defs><g clip-path="url(#clip243)" fill="none" opacity="1" stroke="#000000" stroke-linecap="butt" stroke-linejoin="miter" stroke-miterlimit="2" stroke-opacity="1" stroke-width="1" transform="matrix(1,0,0,1,156.5,221.5)"><path d="M0,0 L30,15 L0,30 L0,0 z" fill-rule="nonzero" vector-effect="none"/></g><defs><clipPath id="clip246"><path d="M-342,-161 L33.3125,-161 L33.3125,92 L-342,92 L-342,-161 z"/></clipPath></defs><g clip-path="url(#clip246)" fill="#ffffff" fill-opacity="1" opacity="1" stroke="none" stroke-opacity="0" transform="matrix(1,0,0,1,342,161)"><path d="M0,0 L30,0 L30,30 L0,30 L0,0 z" fill-rule="evenodd" vector-effect="none"/></g><defs><clipPath id="clip250"><path d="M0,0 L31,0 L31,31 L0,31 L0,0 z"/></clipPath></defs><g clip-path="url(#clip250)" fill="none" opacity="1" stroke="none" stroke-opacity="0" transform="matrix(1,0,0,1,341.5,161)"><path d="M0,0 L31,0 L31,31 L0,31 L0,0 z" fill-rule="evenodd" vector-effect="none"/></g><defs><clipPath id="clip260"><path d="M1,1 L31,1 L31,31 L1,31 L1,1 z"/></clipPath></defs><g clip-path="url(#clip260)" fill="none" opacity="1" stroke="#000000" stroke-linecap="round" stroke-linejoin="round" stroke-opacity="1" stroke-width="1" transform="matrix(1,0,0,1,340.5,160)"><path d="M4.5,26.5 L16.5,26.5 L16.5,6.5 L28.5,6.5" fill-rule="nonzero" vector-effect="none"/></g><defs><clipPath id="clip280"><path d="M-341.5,-161.5 L33.8125,-161.5 L33.8125,91.5 L-341.5,91.5 L-341.5,-161.5 z"/></clipPath></defs><g clip-path="url(#clip280)" fill="none" opacity="1" stroke="#000000" stroke-linecap="butt" stroke-linejoin="miter" stroke-miterlimit="2" stroke-opacity="1" stroke-width="1" transform="matrix(1,0,0,1,341.5,161.5)"><path d="M0,0 L30,0 L30,30 L0,30 L0,0 z" fill-rule="evenodd" vector-effect="none"/></g><defs><clipPath id="clip283"><path d="M-356.5,-193 L18.8125,-193 L18.8125,60 L-356.5,60 L-356.5,-193 z"/></clipPath></defs><g clip-path="url(#clip283)" fill="none" opacity="1" stroke="none" stroke-opacity="0" transform="matrix(1,0,0,1,356.5,193)"><path d="M-15.1406,0 L15.1406,0 L15.1406,28 L-15.1406,28 L-15.1406,0 z" fill-rule="evenodd" vector-effect="none"/></g><defs><clipPath id="clip287"><path d="M0,0 L30,0 L30,28 L0,28 L0,0 z"/></clipPath></defs><g clip-path="url(#clip287)" fill="none" opacity="1" stroke="#000000" stroke-linecap="square" stroke-linejoin="bevel" stroke-opacity="1" stroke-width="1" transform="matrix(1,0,0,1,341.359,193)"><text fill="#000000" fill-opacity="1" font-family="Liberation Sans" font-size="10" font-style="normal" font-weight="400" stroke="none" textLength="28.2812" x="1" xml:space="preserve" y="11">$T_L$</text><text fill="#000000" fill-opacity="1" font-family="Liberation Sans" font-size="10" font-style="normal" font-weight="400" stroke="none" textLength="22.1875" x="4.04688" xml:space="preserve" y="24">Load</text></g><defs><clipPath id="clip295"><path d="M35.5,-241.5 L35.5,133.812 L-217.5,133.812 L-217.5,-241.5 L35.5,-241.5 z"/></clipPath></defs><g clip-path="url(#clip295)" fill="#000000" fill-opacity="1" opacity="1" stroke="none" stroke-opacity="0" transform="matrix(6.12323e-17,-1,1,6.12323e-17,241.5,35.5)"><path d="M0,0 L-8,-4 L-8,4 L0,0 z" fill-rule="nonzero" vector-effect="none"/></g><defs><clipPath id="clip298"><path d="M118.5,119 L493.812,119 L493.812,372 L118.5,372 L118.5,119 z"/></clipPath></defs><g clip-path="url(#clip298)" fill="none" opacity="1" stroke="#000000" stroke-linecap="butt" stroke-linejoin="miter" stroke-miterlimit="2" stroke-opacity="1" stroke-width="1" transform="matrix(1,0,0,1,-118.5,-119)"><path d="M305,235.5 L360,235.5 L360,163.5" fill-rule="evenodd" vector-effect="none"/></g><defs><clipPath id="clip301"><path d="M-243,-83.5 L132.312,-83.5 L132.312,169.5 L-243,169.5 L-243,-83.5 z"/></clipPath></defs><g clip-path="url(#clip301)" fill="none" opacity="1" stroke="none" stroke-opacity="0" transform="matrix(1,0,0,1,243,83.5)"><path d="M0,-6.5 L95.7188,-6.5 L95.7188,6.5 L0,6.5 L0,-6.5 z" fill-rule="evenodd" vector-effect="none"/></g><defs><clipPath id="clip305"><path d="M0,0 L96,0 L96,13 L0,13 L0,0 z"/></clipPath></defs><g clip-path="url(#clip305)" fill="none" opacity="1" stroke="#000000" stroke-linecap="square" stroke-linejoin="bevel" stroke-opacity="1" stroke-width="1" transform="matrix(1,0,0,1,243,77)"><text fill="#000000" fill-opacity="1" font-family="Liberation Sans" font-size="9" font-style="normal" font-weight="400" stroke="none" textLength="93.7188" x="1" xml:space="preserve" y="10">$E_a = W_r L_{af} I_a$</text></g><defs><clipPath id="clip313"><path d="M-157,-116 L218.312,-116 L218.312,137 L-157,137 L-157,-116 z"/></clipPath></defs><g clip-path="url(#clip313)" fill="#000000" fill-opacity="1" opacity="1" stroke="none" stroke-opacity="0" transform="matrix(1,0,0,1,157,116)"><path d="M0,0 L-8,-4 L-8,4 L0,0 z" fill-rule="nonzero" vector-effect="none"/></g><defs><clipPath id="clip316"><path d="M118.5,119 L493.812,119 L493.812,372 L118.5,372 L118.5,119 z"/></clipPath></defs><g clip-path="url(#clip316)" fill="none" opacity="1" stroke="#000000" stroke-linecap="butt" stroke-linejoin="miter" stroke-miterlimit="2" stroke-opacity="1" stroke-width="1" transform="matrix(1,0,0,1,-118.5,-119)"><path d="M195,235.5 L267,235.5" fill-rule="evenodd" vector-effect="none"/></g><defs><clipPath id="clip319"><path d="M251,26 L-124.312,26 L-124.312,-227 L251,-227 L251,26 z"/></clipPath></defs><g clip-path="url(#clip319)" fill="#000000" fill-opacity="1" opacity="1" stroke="none" stroke-opacity="0" transform="matrix(-1,1.22465e-16,-1.22465e-16,-1,251,26)"><path d="M0,0 L-8,-4 L-8,4 L0,0 z" fill-rule="nonzero" vector-effect="none"/></g><defs><clipPath id="clip322"><path d="M118.5,119 L493.812,119 L493.812,372 L118.5,372 L118.5,119 z"/></clipPath></defs><g clip-path="url(#clip322)" fill="none" opacity="1" stroke="#000000" stroke-linecap="butt" stroke-linejoin="miter" stroke-miterlimit="2" stroke-opacity="1" stroke-width="1" transform="matrix(1,0,0,1,-118.5,-119)"><path d="M460,145.5 L378,145.5" fill-rule="evenodd" vector-effect="none"/></g><defs><clipPath id="clip325"><path d="M186,26 L-189.312,26 L-189.312,-227 L186,-227 L186,26 z"/></clipPath></defs><g clip-path="url(#clip325)" fill="#000000" fill-opacity="1" opacity="1" stroke="none" stroke-opacity="0" transform="matrix(-1,1.22465e-16,-1.22465e-16,-1,186,26)"><path d="M0,0 L-8,-4 L-8,4 L0,0 z" fill-rule="nonzero" vector-effect="none"/></g><defs><clipPath id="clip328"><path d="M118.5,119 L493.812,119 L493.812,372 L118.5,372 L118.5,119 z"/></clipPath></defs><g clip-path="url(#clip328)" fill="none" opacity="1" stroke="#000000" stroke-linecap="butt" stroke-linejoin="miter" stroke-miterlimit="2" stroke-opacity="1" stroke-width="1" transform="matrix(1,0,0,1,-118.5,-119)"><path d="M350,145.5 L313,145.5" fill-rule="evenodd" vector-effect="none"/></g><defs><clipPath id="clip331"><path d="M118.5,119 L493.812,119 L493.812,372 L118.5,372 L118.5,119 z"/></clipPath></defs><g clip-path="url(#clip331)" fill="none" opacity="1" stroke="#000000" stroke-linecap="butt" stroke-linejoin="miter" stroke-miterlimit="2" stroke-opacity="1" stroke-width="1" transform="matrix(1,0,0,1,-118.5,-119)"><path d="M160,145.5 L123,145.5 L123,225.5" fill-rule="evenodd" vector-effect="none"/></g><defs><clipPath id="clip334"><path d="M-20.5,-24.5 L354.812,-24.5 L354.812,228.5 L-20.5,228.5 L-20.5,-24.5 z"/></clipPath></defs><g clip-path="url(#clip334)" fill="none" opacity="1" stroke="none" stroke-opacity="0" transform="matrix(1,0,0,1,20.5,24.5)"><path d="M-12.25,-13 L12.25,-13 L12.25,0 L-12.25,0 L-12.25,-13 z" fill-rule="evenodd" vector-effect="none"/></g><defs><clipPath id="clip338"><path d="M0,0 L25,0 L25,13 L0,13 L0,0 z"/></clipPath></defs><g clip-path="url(#clip338)" fill="none" opacity="1" stroke="#000000" stroke-linecap="square" stroke-linejoin="bevel" stroke-opacity="1" stroke-width="1" transform="matrix(1,0,0,1,8.25,11.5)"><text fill="#000000" fill-opacity="1" font-family="Liberation Sans" font-size="9" font-style="normal" font-weight="400" stroke="none" textLength="22.5" x="1" xml:space="preserve" y="10">$I_a$</text></g><defs><clipPath id="clip348"><path d="M-47,-106 L328.312,-106 L328.312,147 L-47,147 L-47,-106 z"/></clipPath></defs><g clip-path="url(#clip348)" fill="#000000" fill-opacity="1" opacity="1" stroke="none" stroke-opacity="0" transform="matrix(1,0,0,1,47,106)"><path d="M0,0 L-8,-4 L-8,4 L0,0 z" fill-rule="nonzero" vector-effect="none"/></g><defs><clipPath id="clip351"><path d="M118.5,119 L493.812,119 L493.812,372 L118.5,372 L118.5,119 z"/></clipPath></defs><g clip-path="url(#clip351)" fill="none" opacity="1" stroke="#000000" stroke-linecap="butt" stroke-linejoin="miter" stroke-miterlimit="2" stroke-opacity="1" stroke-width="1" transform="matrix(1,0,0,1,-118.5,-119)"><path d="M123,225.5 L157,225.5" fill-rule="evenodd" vector-effect="none"/></g><defs><clipPath id="clip354"><path d="M118.5,119 L493.812,119 L493.812,372 L118.5,372 L118.5,119 z"/></clipPath></defs><g clip-path="url(#clip354)" fill="none" opacity="1" stroke="#000000" stroke-linecap="butt" stroke-linejoin="miter" stroke-miterlimit="2" stroke-opacity="1" stroke-width="1" transform="matrix(1,0,0,1,-118.5,-119)"><path d="M123,225.5 L123,345.5" fill-rule="evenodd" vector-effect="none"/></g><defs><clipPath id="clip359"><path d="M-47,-226 L328.312,-226 L328.312,27 L-47,27 L-47,-226 z"/></clipPath></defs><g clip-path="url(#clip359)" fill="#000000" fill-opacity="1" opacity="1" stroke="none" stroke-opacity="0" transform="matrix(1,0,0,1,47,226)"><path d="M0,0 L-8,-4 L-8,4 L0,0 z" fill-rule="nonzero" vector-effect="none"/></g><defs><clipPath id="clip362"><path d="M118.5,119 L493.812,119 L493.812,372 L118.5,372 L118.5,119 z"/></clipPath></defs><g clip-path="url(#clip362)" fill="none" opacity="1" stroke="#000000" stroke-linecap="butt" stroke-linejoin="miter" stroke-miterlimit="2" stroke-opacity="1" stroke-width="1" transform="matrix(1,0,0,1,-118.5,-119)"><path d="M123,345.5 L157,345.5" fill-rule="evenodd" vector-effect="none"/></g><defs><clipPath id="clip365"><path d="M-47,-241 L328.312,-241 L328.312,12 L-47,12 L-47,-241 z"/></clipPath></defs><g clip-path="url(#clip365)" fill="#000000" fill-opacity="1" opacity="1" stroke="none" stroke-opacity="0" transform="matrix(1,0,0,1,47,241)"><path d="M0,0 L-8,-4 L-8,4 L0,0 z" fill-rule="nonzero" vector-effect="none"/></g><defs><clipPath id="clip368"><path d="M118.5,119 L493.812,119 L493.812,372 L118.5,372 L118.5,119 z"/></clipPath></defs><g clip-path="url(#clip368)" fill="none" opacity="1" stroke="#000000" stroke-linecap="butt" stroke-linejoin="miter" stroke-miterlimit="2" stroke-opacity="1" stroke-width="1" transform="matrix(1,0,0,1,-118.5,-119)"><path d="M123,345.5 L123,360.5 L157,360.5" fill-rule="evenodd" vector-effect="none"/></g><defs><clipPath id="clip371"><path d="M-4.5,-226 L370.812,-226 L370.812,27 L-4.5,27 L-4.5,-226 z"/></clipPath></defs><g clip-path="url(#clip371)" fill="#000000" fill-opacity="1" opacity="1" stroke="none" stroke-opacity="0" transform="matrix(1,0,0,1,4.5,226)"><path d="M2.5,0.5 C2.5,1.88071 1.38071,3 0,3 C-1.38071,3 -2.5,1.88071 -2.5,0.5 C-2.5,-0.880712 -1.38071,-2 0,-2 C1.38071,-2 2.5,-0.880712 2.5,0.5 z" fill-rule="evenodd" vector-effect="none"/></g><defs><clipPath id="clip374"><path d="M-4.5,-106 L370.812,-106 L370.812,147 L-4.5,147 L-4.5,-106 z"/></clipPath></defs><g clip-path="url(#clip374)" fill="#000000" fill-opacity="1" opacity="1" stroke="none" stroke-opacity="0" transform="matrix(1,0,0,1,4.5,106)"><path d="M2.5,0.5 C2.5,1.88071 1.38071,3 0,3 C-1.38071,3 -2.5,1.88071 -2.5,0.5 C-2.5,-0.880712 -1.38071,-2 0,-2 C1.38071,-2 2.5,-0.880712 2.5,0.5 z" fill-rule="evenodd" vector-effect="none"/></g><defs><clipPath id="clip377"><path d="M-47,-121 L328.312,-121 L328.312,132 L-47,132 L-47,-121 z"/></clipPath></defs><g clip-path="url(#clip377)" fill="#000000" fill-opacity="1" opacity="1" stroke="none" stroke-opacity="0" transform="matrix(1,0,0,1,47,121)"><path d="M0,0 L-8,-4 L-8,4 L0,0 z" fill-rule="nonzero" vector-effect="none"/></g><defs><clipPath id="clip380"><path d="M118.5,119 L493.812,119 L493.812,372 L118.5,372 L118.5,119 z"/></clipPath></defs><g clip-path="url(#clip380)" fill="none" opacity="1" stroke="#000000" stroke-linecap="butt" stroke-linejoin="miter" stroke-miterlimit="2" stroke-opacity="1" stroke-width="1" transform="matrix(1,0,0,1,-118.5,-119)"><path d="M210,295.5 L137,295.5 L137,240.5 L157,240.5" fill-rule="evenodd" vector-effect="none"/></g><defs><clipPath id="clip383"><path d="M-52.5,-174.5 L322.812,-174.5 L322.812,78.5 L-52.5,78.5 L-52.5,-174.5 z"/></clipPath></defs><g clip-path="url(#clip383)" fill="none" opacity="1" stroke="none" stroke-opacity="0" transform="matrix(1,0,0,1,52.5,174.5)"><path d="M-24.9844,-13 L24.9844,-13 L24.9844,0 L-24.9844,0 L-24.9844,-13 z" fill-rule="evenodd" vector-effect="none"/></g><defs><clipPath id="clip387"><path d="M0,0 L50,0 L50,13 L0,13 L0,0 z"/></clipPath></defs><g clip-path="url(#clip387)" fill="none" opacity="1" stroke="#000000" stroke-linecap="square" stroke-linejoin="bevel" stroke-opacity="1" stroke-width="1" transform="matrix(1,0,0,1,27.5156,161.5)"><text fill="#000000" fill-opacity="1" font-family="Liberation Sans" font-size="9" font-style="normal" font-weight="400" stroke="none" textLength="47.9688" x="1" xml:space="preserve" y="10">$\omega_r$</text></g><defs><clipPath id="clip395"><path d="M186,176 L-189.312,176 L-189.312,-77 L186,-77 L186,176 z"/></clipPath></defs><g clip-path="url(#clip395)" fill="#000000" fill-opacity="1" opacity="1" stroke="none" stroke-opacity="0" transform="matrix(-1,1.22465e-16,-1.22465e-16,-1,186,176)"><path d="M0,0 L-8,-4 L-8,4 L0,0 z" fill-rule="nonzero" vector-effect="none"/></g><defs><clipPath id="clip398"><path d="M118.5,119 L493.812,119 L493.812,372 L118.5,372 L118.5,119 z"/></clipPath></defs><g clip-path="url(#clip398)" fill="none" opacity="1" stroke="#000000" stroke-linecap="butt" stroke-linejoin="miter" stroke-miterlimit="2" stroke-opacity="1" stroke-width="1" transform="matrix(1,0,0,1,-118.5,-119)"><path d="M350,295.5 L313,295.5" fill-rule="evenodd" vector-effect="none"/></g><defs><clipPath id="clip401"><path d="M-157,-236 L218.312,-236 L218.312,17 L-157,17 L-157,-236 z"/></clipPath></defs><g clip-path="url(#clip401)" fill="#000000" fill-opacity="1" opacity="1" stroke="none" stroke-opacity="0" transform="matrix(1,0,0,1,157,236)"><path d="M0,0 L-8,-4 L-8,4 L0,0 z" fill-rule="nonzero" vector-effect="none"/></g><defs><clipPath id="clip404"><path d="M118.5,119 L493.812,119 L493.812,372 L118.5,372 L118.5,119 z"/></clipPath></defs><g clip-path="url(#clip404)" fill="none" opacity="1" stroke="#000000" stroke-linecap="butt" stroke-linejoin="miter" stroke-miterlimit="2" stroke-opacity="1" stroke-width="1" transform="matrix(1,0,0,1,-118.5,-119)"><path d="M195,355.5 L267,355.5" fill-rule="evenodd" vector-effect="none"/></g><defs><clipPath id="clip407"><path d="M185.5,-241.5 L185.5,133.812 L-67.5,133.812 L-67.5,-241.5 L185.5,-241.5 z"/></clipPath></defs><g clip-path="url(#clip407)" fill="#000000" fill-opacity="1" opacity="1" stroke="none" stroke-opacity="0" transform="matrix(6.12323e-17,-1,1,6.12323e-17,241.5,185.5)"><path d="M0,0 L-8,-4 L-8,4 L0,0 z" fill-rule="nonzero" vector-effect="none"/></g><defs><clipPath id="clip410"><path d="M118.5,119 L493.812,119 L493.812,372 L118.5,372 L118.5,119 z"/></clipPath></defs><g clip-path="url(#clip410)" fill="none" opacity="1" stroke="#000000" stroke-linecap="butt" stroke-linejoin="miter" stroke-miterlimit="2" stroke-opacity="1" stroke-width="1" transform="matrix(1,0,0,1,-118.5,-119)"><path d="M305,355.5 L360,355.5 L360,313.5" fill-rule="evenodd" vector-effect="none"/></g><defs><clipPath id="clip413"><path d="M-216.5,-237.5 L158.812,-237.5 L158.812,15.5 L-216.5,15.5 L-216.5,-237.5 z"/></clipPath></defs><g clip-path="url(#clip413)" fill="none" opacity="1" stroke="none" stroke-opacity="0" transform="matrix(1,0,0,1,216.5,237.5)"><path d="M-13.7422,0 L13.7422,0 L13.7422,13 L-13.7422,13 L-13.7422,0 z" fill-rule="evenodd" vector-effect="none"/></g><defs><clipPath id="clip417"><path d="M0,0 L27,0 L27,13 L0,13 L0,0 z"/></clipPath></defs><g clip-path="url(#clip417)" fill="none" opacity="1" stroke="#000000" stroke-linecap="square" stroke-linejoin="bevel" stroke-opacity="1" stroke-width="1" transform="matrix(1,0,0,1,202.758,237.5)"><text fill="#000000" fill-opacity="1" font-family="Liberation Sans" font-size="9" font-style="normal" font-weight="400" stroke="none" textLength="25.4844" x="1" xml:space="preserve" y="10">$T_e$</text></g><defs><clipPath id="clip425"><path d="M251,176 L-124.312,176 L-124.312,-77 L251,-77 L251,176 z"/></clipPath></defs><g clip-path="url(#clip425)" fill="#000000" fill-opacity="1" opacity="1" stroke="none" stroke-opacity="0" transform="matrix(-1,1.22465e-16,-1.22465e-16,-1,251,176)"><path d="M0,0 L-8,-4 L-8,4 L0,0 z" fill-rule="nonzero" vector-effect="none"/></g><defs><clipPath id="clip428"><path d="M118.5,119 L493.812,119 L493.812,372 L118.5,372 L118.5,119 z"/></clipPath></defs><g clip-path="url(#clip428)" fill="none" opacity="1" stroke="#000000" stroke-linecap="butt" stroke-linejoin="miter" stroke-miterlimit="2" stroke-opacity="1" stroke-width="1" transform="matrix(1,0,0,1,-118.5,-119)"><path d="M460,295.5 L378,295.5" fill-rule="evenodd" vector-effect="none"/></g></g><!--generated on void @ 2019-02-28 13:55:00 PST--></svg>
