<?xml version="1.0" encoding="utf-8" standalone="no"?>
<!DOCTYPE svg PUBLIC "-//W3C//DTD SVG 1.1//EN"
  "http://www.w3.org/Graphics/SVG/1.1/DTD/svg11.dtd">
<!-- Created with matplotlib (http://matplotlib.org/) -->
<svg height="151.96pt" version="1.1" viewBox="0 0 619.504 151.96" width="619.504pt" xmlns="http://www.w3.org/2000/svg" xmlns:xlink="http://www.w3.org/1999/xlink">
 <defs>
  <style type="text/css">
*{stroke-linecap:butt;stroke-linejoin:round;}
  </style>
 </defs>
 <g id="figure_1">
  <g id="patch_1">
   <path d="M 0 151.96 
L 619.504 151.96 
L 619.504 0 
L 0 0 
z
" style="fill:none;"/>
  </g>
  <g id="axes_1">
   <g id="patch_2">
    <path clip-path="url(#p7f937f78b8)" d="M 57.032 79.295 
L 58.652 85.415 
L 57.0482 85.415 
L 57.0482 94.595 
L 57.0158 94.595 
L 57.0158 85.415 
L 55.412 85.415 
z
" style="stroke:#000000;stroke-linejoin:miter;stroke-width:1.5;"/>
   </g>
   <g id="patch_3">
    <path clip-path="url(#p7f937f78b8)" d="M 168.812 28.805 
L 159.092 31.865 
L 159.092 28.8203 
L 139.652 28.8203 
L 139.652 28.7897 
L 159.092 28.7897 
L 159.092 25.745 
z
" style="stroke:#000000;stroke-linejoin:miter;stroke-width:1.5;"/>
   </g>
   <g id="patch_4">
    <path clip-path="url(#p7f937f78b8)" d="M 450.692 28.805 
L 460.412 25.745 
L 460.412 28.7897 
L 479.852 28.7897 
L 479.852 28.8203 
L 460.412 28.8203 
L 460.412 31.865 
z
" style="stroke:#000000;stroke-linejoin:miter;stroke-width:1.5;"/>
   </g>
   <g id="patch_5">
    <path clip-path="url(#p7f937f78b8)" d="M 562.472 79.295 
L 564.092 85.415 
L 562.4882 85.415 
L 562.4882 94.595 
L 562.4558 94.595 
L 562.4558 85.415 
L 560.852 85.415 
z
" style="stroke:#000000;stroke-linejoin:miter;stroke-width:1.5;"/>
   </g>
   <g id="line2d_1">
    <path clip-path="url(#p7f937f78b8)" d="M 57.032 41.045 
L 57.032 71.645 
L 57.032 71.645 
M 57.032 102.245 
L 57.032 102.245 
L 57.032 132.845 
" style="fill:none;stroke:#000000;stroke-linecap:round;stroke-width:1.5;"/>
   </g>
   <g id="line2d_2">
    <path clip-path="url(#p7f937f78b8)" d="M 57.032 41.045 
L 89.432 41.045 
L 89.432 41.045 
M 121.832 41.045 
L 121.832 41.045 
L 154.232 41.045 
" style="fill:none;stroke:#000000;stroke-linecap:round;stroke-width:1.5;"/>
   </g>
   <g id="line2d_3">
    <path clip-path="url(#p7f937f78b8)" d="M 154.232 41.045 
" style="fill:none;stroke:#000000;stroke-linecap:round;stroke-width:1.5;"/>
   </g>
   <g id="line2d_4">
    <path clip-path="url(#p7f937f78b8)" d="M 154.232 41.045 
L 154.232 71.645 
L 154.232 71.645 
M 154.232 102.245 
L 154.232 102.245 
L 154.232 132.845 
" style="fill:none;stroke:#000000;stroke-linecap:round;stroke-width:1.5;"/>
   </g>
   <g id="line2d_5">
    <path clip-path="url(#p7f937f78b8)" d="M 154.232 132.845 
L 105.632 132.845 
L 57.032 132.845 
" style="fill:none;stroke:#000000;stroke-linecap:round;stroke-width:1.5;"/>
   </g>
   <g id="line2d_6">
    <path clip-path="url(#p7f937f78b8)" d="M 154.232 41.045 
L 186.632 41.045 
L 189.332 33.395 
L 194.732 48.695 
L 200.132 33.395 
L 205.532 48.695 
L 210.932 33.395 
L 216.332 48.695 
L 219.032 41.045 
L 251.432 41.045 
" style="fill:none;stroke:#000000;stroke-linecap:round;stroke-width:1.5;"/>
   </g>
   <g id="line2d_7">
    <path clip-path="url(#p7f937f78b8)" d="M 251.432 41.045 
L 251.432 71.645 
L 254.099768 71.758959 
L 256.791596 72.105496 
L 259.281725 72.676901 
L 261.361312 73.446607 
L 262.855944 74.371415 
L 263.342493 74.874802 
L 263.640269 75.395117 
L 263.742996 75.924076 
L 263.648508 76.453212 
L 263.358796 76.974057 
L 262.879968 77.478314 
L 262.222117 77.95804 
L 260.428288 78.814855 
L 258.127757 79.493997 
L 255.513464 79.959862 
L 252.804668 80.194734 
L 250.228549 80.20027 
L 248.001165 79.99736 
L 246.309321 79.624376 
L 245.29491 79.133956 
L 245.070779 78.863989 
L 245.04301 78.588585 
L 245.212187 78.316233 
L 245.574746 78.055357 
L 246.845523 77.600348 
L 248.748763 77.283075 
L 251.124844 77.151501 
L 253.774488 77.238016 
L 256.475472 77.556719 
L 259.00127 78.102236 
L 261.140047 78.85017 
L 262.712427 79.759148 
L 263.242818 80.257287 
L 263.586537 80.774291 
L 263.736339 81.301946 
L 263.689066 81.831814 
L 263.445715 82.35541 
L 263.011416 82.864381 
L 262.395322 83.350681 
L 260.673253 84.225642 
L 258.423936 84.928267 
L 255.836019 85.420982 
L 253.126545 85.683819 
L 250.522754 85.71609 
L 248.243022 85.536442 
L 246.478547 85.181297 
L 245.377312 84.701796 
L 245.106692 84.434382 
L 245.031677 84.159509 
L 245.153847 83.885653 
L 245.470628 83.621271 
L 246.657353 83.153579 
L 248.492322 82.817012 
L 250.82164 82.661152 
L 253.449949 82.720426 
L 256.156818 83.011218 
L 258.715225 83.530494 
L 260.910602 84.256059 
L 262.558825 85.148415 
L 263.132414 85.640856 
L 263.521659 86.154077 
L 263.718355 86.679944 
L 263.718355 87.210056 
L 263.521659 87.735923 
L 263.132414 88.249144 
L 262.558825 88.741585 
L 261.81298 89.205549 
L 259.870711 90.020414 
L 257.468502 90.646752 
L 254.807822 91.053388 
L 252.11182 91.227574 
L 249.606604 91.176054 
L 247.502283 90.924506 
L 245.975343 90.515381 
L 245.153847 90.004347 
L 245.031677 89.730491 
L 245.106692 89.455618 
L 245.377312 89.188204 
L 246.478547 88.708703 
L 248.243022 88.353558 
L 250.522754 88.17391 
L 253.126545 88.206181 
L 255.836019 88.469018 
L 258.423936 88.961733 
L 260.673253 89.664358 
L 262.395322 90.539319 
L 263.011416 91.025619 
L 263.445715 91.53459 
L 263.689066 92.058186 
L 263.736339 92.588054 
L 263.586537 93.115709 
L 263.242818 93.632713 
L 262.712427 94.130852 
L 262.006544 94.602309 
L 260.131201 95.436877 
L 257.774072 96.087779 
L 255.132844 96.52178 
L 252.429034 96.723834 
L 249.889407 96.698353 
L 247.726956 96.468826 
L 246.123044 96.07586 
L 245.212187 95.573767 
L 245.04301 95.301415 
L 245.070779 95.026011 
L 245.29491 94.756044 
L 245.710678 94.499887 
L 247.078218 94.060875 
L 249.058705 93.767149 
L 251.486039 93.664698 
L 254.156642 93.783471 
L 256.846535 94.134859 
L 259.330122 94.710749 
L 261.399107 95.484195 
L 262.879968 96.411686 
L 263.358796 96.915943 
L 263.648508 97.436788 
L 263.742996 97.965924 
L 263.640269 98.494883 
L 263.342493 99.015198 
L 262.855944 99.518585 
L 262.190877 99.997118 
L 260.384733 100.850687 
L 258.075538 101.525673 
L 255.456962 101.986821 
L 252.748621 102.216809 
L 251.432 102.245 
L 251.432 132.845 
L 251.432 132.845 
" style="fill:none;stroke:#000000;stroke-linecap:round;stroke-width:1.5;"/>
   </g>
   <g id="line2d_8">
    <path clip-path="url(#p7f937f78b8)" d="M 251.432 132.845 
L 202.832 132.845 
L 154.232 132.845 
" style="fill:none;stroke:#000000;stroke-linecap:round;stroke-width:1.5;"/>
   </g>
   <g id="line2d_9">
    <path clip-path="url(#p7f937f78b8)" d="M 368.072 41.045 
L 400.472 41.045 
L 403.172 33.395 
L 408.572 48.695 
L 413.972 33.395 
L 419.372 48.695 
L 424.772 33.395 
L 430.172 48.695 
L 432.872 41.045 
L 465.272 41.045 
" style="fill:none;stroke:#000000;stroke-linecap:round;stroke-width:1.5;"/>
   </g>
   <g id="line2d_10">
    <path clip-path="url(#p7f937f78b8)" d="M 465.272 41.045 
" style="fill:none;stroke:#000000;stroke-linecap:round;stroke-width:1.5;"/>
   </g>
   <g id="line2d_11">
    <path clip-path="url(#p7f937f78b8)" d="M 465.272 41.045 
L 465.272 71.645 
L 465.272 71.645 
M 465.272 102.245 
L 465.272 102.245 
L 465.272 132.845 
" style="fill:none;stroke:#000000;stroke-linecap:round;stroke-width:1.5;"/>
   </g>
   <g id="line2d_12">
    <path clip-path="url(#p7f937f78b8)" d="M 465.272 132.845 
L 416.672 132.845 
L 368.072 132.845 
" style="fill:none;stroke:#000000;stroke-linecap:round;stroke-width:1.5;"/>
   </g>
   <g id="line2d_13">
    <path clip-path="url(#p7f937f78b8)" d="M 368.072 132.845 
L 368.072 117.545 
L 368.072 117.545 
M 351.872 102.245 
L 351.872 117.545 
L 384.272 117.545 
L 384.272 102.245 
M 351.872 71.645 
L 351.872 56.345 
L 384.272 56.345 
L 384.272 71.645 
M 368.072 56.345 
L 368.072 56.345 
L 368.072 41.045 
" style="fill:none;stroke:#000000;stroke-linecap:round;stroke-width:1.5;"/>
   </g>
   <g id="line2d_14">
    <path clip-path="url(#p7f937f78b8)" d="M 465.272 41.045 
L 497.672 41.045 
L 497.672 41.045 
M 530.072 41.045 
L 530.072 41.045 
L 562.472 41.045 
" style="fill:none;stroke:#000000;stroke-linecap:round;stroke-width:1.5;"/>
   </g>
   <g id="line2d_15">
    <path clip-path="url(#p7f937f78b8)" d="M 562.472 41.045 
L 562.472 71.645 
L 562.472 71.645 
M 562.472 102.245 
L 562.472 102.245 
L 562.472 132.845 
" style="fill:none;stroke:#000000;stroke-linecap:round;stroke-width:1.5;"/>
   </g>
   <g id="line2d_16">
    <path clip-path="url(#p7f937f78b8)" d="M 562.472 132.845 
L 513.872 132.845 
L 465.272 132.845 
" style="fill:none;stroke:#000000;stroke-linecap:round;stroke-width:1.5;"/>
   </g>
   <g id="patch_6">
    <path clip-path="url(#p7f937f78b8)" d="M 57.032 102.245 
C 61.32829 102.245 65.449194 100.632895 68.48713 97.763734 
C 71.525066 94.894572 73.232 91.002607 73.232 86.945 
C 73.232 82.887393 71.525066 78.995428 68.48713 76.126266 
C 65.449194 73.257105 61.32829 71.645 57.032 71.645 
C 52.73571 71.645 48.614806 73.257105 45.57687 76.126266 
C 42.538934 78.995428 40.832 82.887393 40.832 86.945 
C 40.832 91.002607 42.538934 94.894572 45.57687 97.763734 
C 48.614806 100.632895 52.73571 102.245 57.032 102.245 
z
" style="fill:none;stroke:#000000;stroke-linejoin:miter;stroke-width:1.5;"/>
   </g>
   <g id="patch_7">
    <path clip-path="url(#p7f937f78b8)" d="M 105.632 56.345 
C 109.92829 56.345 114.049194 54.732895 117.08713 51.863734 
C 120.125066 48.994572 121.832 45.102607 121.832 41.045 
C 121.832 36.987393 120.125066 33.095428 117.08713 30.226266 
C 114.049194 27.357105 109.92829 25.745 105.632 25.745 
C 101.33571 25.745 97.214806 27.357105 94.17687 30.226266 
C 91.138934 33.095428 89.432 36.987393 89.432 41.045 
C 89.432 45.102607 91.138934 48.994572 94.17687 51.863734 
C 97.214806 54.732895 101.33571 56.345 105.632 56.345 
z
" style="fill:none;stroke:#000000;stroke-linejoin:miter;stroke-width:1.5;"/>
   </g>
   <g id="patch_8">
    <path clip-path="url(#p7f937f78b8)" d="M 154.232 43.34 
C 154.876444 43.34 155.494579 43.098184 155.950269 42.66781 
C 156.40596 42.237436 156.662 41.653641 156.662 41.045 
C 156.662 40.436359 156.40596 39.852564 155.950269 39.42219 
C 155.494579 38.991816 154.876444 38.75 154.232 38.75 
C 153.587556 38.75 152.969421 38.991816 152.513731 39.42219 
C 152.05804 39.852564 151.802 40.436359 151.802 41.045 
C 151.802 41.653641 152.05804 42.237436 152.513731 42.66781 
C 152.969421 43.098184 153.587556 43.34 154.232 43.34 
z
" style="stroke:#000000;stroke-linejoin:miter;stroke-width:1.5;"/>
   </g>
   <g id="patch_9">
    <path clip-path="url(#p7f937f78b8)" d="M 154.232 102.245 
C 158.52829 102.245 162.649194 100.632895 165.68713 97.763734 
C 168.725066 94.894572 170.432 91.002607 170.432 86.945 
C 170.432 82.887393 168.725066 78.995428 165.68713 76.126266 
C 162.649194 73.257105 158.52829 71.645 154.232 71.645 
C 149.93571 71.645 145.814806 73.257105 142.77687 76.126266 
C 139.738934 78.995428 138.032 82.887393 138.032 86.945 
C 138.032 91.002607 139.738934 94.894572 142.77687 97.763734 
C 145.814806 100.632895 149.93571 102.245 154.232 102.245 
z
" style="fill:none;stroke:#000000;stroke-linejoin:miter;stroke-width:1.5;"/>
   </g>
   <g id="patch_10">
    <path clip-path="url(#p7f937f78b8)" d="M 465.272 43.34 
C 465.916444 43.34 466.534579 43.098184 466.990269 42.66781 
C 467.44596 42.237436 467.702 41.653641 467.702 41.045 
C 467.702 40.436359 467.44596 39.852564 466.990269 39.42219 
C 466.534579 38.991816 465.916444 38.75 465.272 38.75 
C 464.627556 38.75 464.009421 38.991816 463.553731 39.42219 
C 463.09804 39.852564 462.842 40.436359 462.842 41.045 
C 462.842 41.653641 463.09804 42.237436 463.553731 42.66781 
C 464.009421 43.098184 464.627556 43.34 465.272 43.34 
z
" style="stroke:#000000;stroke-linejoin:miter;stroke-width:1.5;"/>
   </g>
   <g id="patch_11">
    <path clip-path="url(#p7f937f78b8)" d="M 465.272 102.245 
C 469.56829 102.245 473.689194 100.632895 476.72713 97.763734 
C 479.765066 94.894572 481.472 91.002607 481.472 86.945 
C 481.472 82.887393 479.765066 78.995428 476.72713 76.126266 
C 473.689194 73.257105 469.56829 71.645 465.272 71.645 
C 460.97571 71.645 456.854806 73.257105 453.81687 76.126266 
C 450.778934 78.995428 449.072 82.887393 449.072 86.945 
C 449.072 91.002607 450.778934 94.894572 453.81687 97.763734 
C 456.854806 100.632895 460.97571 102.245 465.272 102.245 
z
" style="fill:none;stroke:#000000;stroke-linejoin:miter;stroke-width:1.5;"/>
   </g>
   <g id="patch_12">
    <path clip-path="url(#p7f937f78b8)" d="M 368.072 108.365 
C 374.086806 108.365 379.856071 106.108054 384.109182 102.091227 
C 388.362292 98.074401 390.752 92.62565 390.752 86.945 
C 390.752 81.26435 388.362292 75.815599 384.109182 71.798773 
C 379.856071 67.781946 374.086806 65.525 368.072 65.525 
C 362.057194 65.525 356.287929 67.781946 352.034818 71.798773 
C 347.781708 75.815599 345.392 81.26435 345.392 86.945 
C 345.392 92.62565 347.781708 98.074401 352.034818 102.091227 
C 356.287929 106.108054 362.057194 108.365 368.072 108.365 
z
" style="fill:none;stroke:#000000;stroke-linejoin:miter;stroke-width:1.5;"/>
   </g>
   <g id="patch_13">
    <path clip-path="url(#p7f937f78b8)" d="M 513.872 56.345 
C 518.16829 56.345 522.289194 54.732895 525.32713 51.863734 
C 528.365066 48.994572 530.072 45.102607 530.072 41.045 
C 530.072 36.987393 528.365066 33.095428 525.32713 30.226266 
C 522.289194 27.357105 518.16829 25.745 513.872 25.745 
C 509.57571 25.745 505.454806 27.357105 502.41687 30.226266 
C 499.378934 33.095428 497.672 36.987393 497.672 41.045 
C 497.672 45.102607 499.378934 48.994572 502.41687 51.863734 
C 505.454806 54.732895 509.57571 56.345 513.872 56.345 
z
" style="fill:none;stroke:#000000;stroke-linejoin:miter;stroke-width:1.5;"/>
   </g>
   <g id="patch_14">
    <path clip-path="url(#p7f937f78b8)" d="M 562.472 102.245 
C 566.76829 102.245 570.889194 100.632895 573.92713 97.763734 
C 576.965066 94.894572 578.672 91.002607 578.672 86.945 
C 578.672 82.887393 576.965066 78.995428 573.92713 76.126266 
C 570.889194 73.257105 566.76829 71.645 562.472 71.645 
C 558.17571 71.645 554.054806 73.257105 551.01687 76.126266 
C 547.978934 78.995428 546.272 82.887393 546.272 86.945 
C 546.272 91.002607 547.978934 94.894572 551.01687 97.763734 
C 554.054806 100.632895 558.17571 102.245 562.472 102.245 
z
" style="fill:none;stroke:#000000;stroke-linejoin:miter;stroke-width:1.5;"/>
   </g>
   <g id="text_1">
    <!-- $V_{DC}$ -->
    <defs>
     <path d="M 28.609375 0 
L 0.78125 72.90625 
L 11.078125 72.90625 
L 34.1875 11.53125 
L 57.328125 72.90625 
L 67.578125 72.90625 
L 39.796875 0 
z
" id="DejaVuSans-56"/>
     <path d="M 19.671875 64.796875 
L 19.671875 8.109375 
L 31.59375 8.109375 
Q 46.6875 8.109375 53.6875 14.9375 
Q 60.6875 21.78125 60.6875 36.53125 
Q 60.6875 51.171875 53.6875 57.984375 
Q 46.6875 64.796875 31.59375 64.796875 
z
M 9.8125 72.90625 
L 30.078125 72.90625 
Q 51.265625 72.90625 61.171875 64.09375 
Q 71.09375 55.28125 71.09375 36.53125 
Q 71.09375 17.671875 61.125 8.828125 
Q 51.171875 0 30.078125 0 
L 9.8125 0 
z
" id="DejaVuSans-44"/>
     <path d="M 64.40625 67.28125 
L 64.40625 56.890625 
Q 59.421875 61.53125 53.78125 63.8125 
Q 48.140625 66.109375 41.796875 66.109375 
Q 29.296875 66.109375 22.65625 58.46875 
Q 16.015625 50.828125 16.015625 36.375 
Q 16.015625 21.96875 22.65625 14.328125 
Q 29.296875 6.6875 41.796875 6.6875 
Q 48.140625 6.6875 53.78125 8.984375 
Q 59.421875 11.28125 64.40625 15.921875 
L 64.40625 5.609375 
Q 59.234375 2.09375 53.4375 0.328125 
Q 47.65625 -1.421875 41.21875 -1.421875 
Q 24.65625 -1.421875 15.125 8.703125 
Q 5.609375 18.84375 5.609375 36.375 
Q 5.609375 53.953125 15.125 64.078125 
Q 24.65625 74.21875 41.21875 74.21875 
Q 47.75 74.21875 53.53125 72.484375 
Q 59.328125 70.75 64.40625 67.28125 
z
" id="DejaVuSans-43"/>
    </defs>
    <g transform="translate(9.592 91.36)scale(0.16 -0.16)">
     <use transform="translate(0 0.09375)" xlink:href="#DejaVuSans-56"/>
     <use transform="translate(69.365234 -16.3125)scale(0.7)" xlink:href="#DejaVuSans-44"/>
     <use transform="translate(123.266602 -16.3125)scale(0.7)" xlink:href="#DejaVuSans-43"/>
    </g>
   </g>
   <g id="text_2">
    <!-- A -->
    <defs>
     <path d="M 34.1875 63.1875 
L 20.796875 26.90625 
L 47.609375 26.90625 
z
M 28.609375 72.90625 
L 39.796875 72.90625 
L 67.578125 0 
L 57.328125 0 
L 50.6875 18.703125 
L 17.828125 18.703125 
L 11.1875 0 
L 0.78125 0 
z
" id="DejaVuSans-41"/>
    </defs>
    <g transform="translate(100.1595 45.46)scale(0.16 -0.16)">
     <use xlink:href="#DejaVuSans-41"/>
    </g>
   </g>
   <g id="text_3">
    <!-- $I_f$ -->
    <defs>
     <path d="M 9.8125 72.90625 
L 19.671875 72.90625 
L 19.671875 0 
L 9.8125 0 
z
" id="DejaVuSans-49"/>
     <path d="M 37.109375 75.984375 
L 37.109375 68.5 
L 28.515625 68.5 
Q 23.6875 68.5 21.796875 66.546875 
Q 19.921875 64.59375 19.921875 59.515625 
L 19.921875 54.6875 
L 34.71875 54.6875 
L 34.71875 47.703125 
L 19.921875 47.703125 
L 19.921875 0 
L 10.890625 0 
L 10.890625 47.703125 
L 2.296875 47.703125 
L 2.296875 54.6875 
L 10.890625 54.6875 
L 10.890625 58.5 
Q 10.890625 67.625 15.140625 71.796875 
Q 19.390625 75.984375 28.609375 75.984375 
z
" id="DejaVuSans-66"/>
    </defs>
    <g transform="translate(149.592 19.3575)scale(0.16 -0.16)">
     <use transform="translate(0 0.09375)" xlink:href="#DejaVuSans-49"/>
     <use transform="translate(30.449219 -16.3125)scale(0.7)" xlink:href="#DejaVuSans-66"/>
    </g>
   </g>
   <g id="text_4">
    <!-- $V_f$ -->
    <g transform="translate(119.272 91.36)scale(0.16 -0.16)">
     <use transform="translate(0 0.09375)" xlink:href="#DejaVuSans-56"/>
     <use transform="translate(69.365234 -16.3125)scale(0.7)" xlink:href="#DejaVuSans-66"/>
    </g>
   </g>
   <g id="text_5">
    <!-- V -->
    <g transform="translate(148.7595 91.36)scale(0.16 -0.16)">
     <use xlink:href="#DejaVuSans-56"/>
    </g>
   </g>
   <g id="text_6">
    <!-- $R_f$ -->
    <defs>
     <path d="M 44.390625 34.1875 
Q 47.5625 33.109375 50.5625 29.59375 
Q 53.5625 26.078125 56.59375 19.921875 
L 66.609375 0 
L 56 0 
L 46.6875 18.703125 
Q 43.0625 26.03125 39.671875 28.421875 
Q 36.28125 30.8125 30.421875 30.8125 
L 19.671875 30.8125 
L 19.671875 0 
L 9.8125 0 
L 9.8125 72.90625 
L 32.078125 72.90625 
Q 44.578125 72.90625 50.734375 67.671875 
Q 56.890625 62.453125 56.890625 51.90625 
Q 56.890625 45.015625 53.6875 40.46875 
Q 50.484375 35.9375 44.390625 34.1875 
z
M 19.671875 64.796875 
L 19.671875 38.921875 
L 32.078125 38.921875 
Q 39.203125 38.921875 42.84375 42.21875 
Q 46.484375 45.515625 46.484375 51.90625 
Q 46.484375 58.296875 42.84375 61.546875 
Q 39.203125 64.796875 32.078125 64.796875 
z
" id="DejaVuSans-52"/>
    </defs>
    <g transform="translate(194.992 27.0075)scale(0.16 -0.16)">
     <use transform="translate(0 0.09375)" xlink:href="#DejaVuSans-52"/>
     <use transform="translate(70.439453 -16.3125)scale(0.7)" xlink:href="#DejaVuSans-66"/>
    </g>
   </g>
   <g id="text_7">
    <!-- $L_f$ -->
    <defs>
     <path d="M 9.8125 72.90625 
L 19.671875 72.90625 
L 19.671875 8.296875 
L 55.171875 8.296875 
L 55.171875 0 
L 9.8125 0 
z
" id="DejaVuSans-4c"/>
    </defs>
    <g transform="translate(228.191677 91.36)scale(0.16 -0.16)">
     <use transform="translate(0 0.09375)" xlink:href="#DejaVuSans-4c"/>
     <use transform="translate(56.669922 -16.3125)scale(0.7)" xlink:href="#DejaVuSans-66"/>
    </g>
   </g>
   <g id="text_8">
    <!-- $R_a$ -->
    <defs>
     <path d="M 34.28125 27.484375 
Q 23.390625 27.484375 19.1875 25 
Q 14.984375 22.515625 14.984375 16.5 
Q 14.984375 11.71875 18.140625 8.90625 
Q 21.296875 6.109375 26.703125 6.109375 
Q 34.1875 6.109375 38.703125 11.40625 
Q 43.21875 16.703125 43.21875 25.484375 
L 43.21875 27.484375 
z
M 52.203125 31.203125 
L 52.203125 0 
L 43.21875 0 
L 43.21875 8.296875 
Q 40.140625 3.328125 35.546875 0.953125 
Q 30.953125 -1.421875 24.3125 -1.421875 
Q 15.921875 -1.421875 10.953125 3.296875 
Q 6 8.015625 6 15.921875 
Q 6 25.140625 12.171875 29.828125 
Q 18.359375 34.515625 30.609375 34.515625 
L 43.21875 34.515625 
L 43.21875 35.40625 
Q 43.21875 41.609375 39.140625 45 
Q 35.0625 48.390625 27.6875 48.390625 
Q 23 48.390625 18.546875 47.265625 
Q 14.109375 46.140625 10.015625 43.890625 
L 10.015625 52.203125 
Q 14.9375 54.109375 19.578125 55.046875 
Q 24.21875 56 28.609375 56 
Q 40.484375 56 46.34375 49.84375 
Q 52.203125 43.703125 52.203125 31.203125 
z
" id="DejaVuSans-61"/>
    </defs>
    <g transform="translate(407.312 27.0075)scale(0.16 -0.16)">
     <use transform="translate(0 0.09375)" xlink:href="#DejaVuSans-52"/>
     <use transform="translate(70.439453 -16.3125)scale(0.7)" xlink:href="#DejaVuSans-61"/>
    </g>
   </g>
   <g id="text_9">
    <!-- $I_a$ -->
    <g transform="translate(459.112 19.3575)scale(0.16 -0.16)">
     <use transform="translate(0 0.09375)" xlink:href="#DejaVuSans-49"/>
     <use transform="translate(30.449219 -16.3125)scale(0.7)" xlink:href="#DejaVuSans-61"/>
    </g>
   </g>
   <g id="text_10">
    <!-- $V_t$ -->
    <defs>
     <path d="M 18.3125 70.21875 
L 18.3125 54.6875 
L 36.8125 54.6875 
L 36.8125 47.703125 
L 18.3125 47.703125 
L 18.3125 18.015625 
Q 18.3125 11.328125 20.140625 9.421875 
Q 21.96875 7.515625 27.59375 7.515625 
L 36.8125 7.515625 
L 36.8125 0 
L 27.59375 0 
Q 17.1875 0 13.234375 3.875 
Q 9.28125 7.765625 9.28125 18.015625 
L 9.28125 47.703125 
L 2.6875 47.703125 
L 2.6875 54.6875 
L 9.28125 54.6875 
L 9.28125 70.21875 
z
" id="DejaVuSans-74"/>
    </defs>
    <g transform="translate(429.832 91.36)scale(0.16 -0.16)">
     <use transform="translate(0 0.09375)" xlink:href="#DejaVuSans-56"/>
     <use transform="translate(69.365234 -16.3125)scale(0.7)" xlink:href="#DejaVuSans-74"/>
    </g>
   </g>
   <g id="text_11">
    <!-- V -->
    <g transform="translate(459.7995 91.36)scale(0.16 -0.16)">
     <use xlink:href="#DejaVuSans-56"/>
    </g>
   </g>
   <g id="text_12">
    <!-- $\omega_m = 0$ -->
    <defs>
     <path d="M 26.859375 -1.421875 
Q 6.59375 -1.421875 6.59375 27.59375 
Q 6.59375 39.0625 14.15625 54.6875 
L 23.828125 54.6875 
Q 16.84375 39.0625 16.84375 27.34375 
Q 16.84375 6.203125 27.6875 6.203125 
Q 37.59375 6.203125 37.59375 32.46875 
L 45.90625 32.46875 
Q 45.90625 6.203125 55.8125 6.203125 
Q 66.65625 6.203125 66.65625 27.34375 
Q 66.65625 39.0625 59.671875 54.6875 
L 69.34375 54.6875 
Q 76.90625 39.0625 76.90625 27.59375 
Q 76.90625 -1.421875 56.640625 -1.421875 
Q 43.359375 -1.421875 41.75 13.1875 
Q 39.75 -1.421875 26.859375 -1.421875 
z
" id="DejaVuSans-3c9"/>
     <path d="M 52 44.1875 
Q 55.375 50.25 60.0625 53.125 
Q 64.75 56 71.09375 56 
Q 79.640625 56 84.28125 50.015625 
Q 88.921875 44.046875 88.921875 33.015625 
L 88.921875 0 
L 79.890625 0 
L 79.890625 32.71875 
Q 79.890625 40.578125 77.09375 44.375 
Q 74.3125 48.1875 68.609375 48.1875 
Q 61.625 48.1875 57.5625 43.546875 
Q 53.515625 38.921875 53.515625 30.90625 
L 53.515625 0 
L 44.484375 0 
L 44.484375 32.71875 
Q 44.484375 40.625 41.703125 44.40625 
Q 38.921875 48.1875 33.109375 48.1875 
Q 26.21875 48.1875 22.15625 43.53125 
Q 18.109375 38.875 18.109375 30.90625 
L 18.109375 0 
L 9.078125 0 
L 9.078125 54.6875 
L 18.109375 54.6875 
L 18.109375 46.1875 
Q 21.1875 51.21875 25.484375 53.609375 
Q 29.78125 56 35.6875 56 
Q 41.65625 56 45.828125 52.96875 
Q 50 49.953125 52 44.1875 
z
" id="DejaVuSans-6d"/>
     <path d="M 10.59375 45.40625 
L 73.1875 45.40625 
L 73.1875 37.203125 
L 10.59375 37.203125 
z
M 10.59375 25.484375 
L 73.1875 25.484375 
L 73.1875 17.1875 
L 10.59375 17.1875 
z
" id="DejaVuSans-3d"/>
     <path d="M 31.78125 66.40625 
Q 24.171875 66.40625 20.328125 58.90625 
Q 16.5 51.421875 16.5 36.375 
Q 16.5 21.390625 20.328125 13.890625 
Q 24.171875 6.390625 31.78125 6.390625 
Q 39.453125 6.390625 43.28125 13.890625 
Q 47.125 21.390625 47.125 36.375 
Q 47.125 51.421875 43.28125 58.90625 
Q 39.453125 66.40625 31.78125 66.40625 
z
M 31.78125 74.21875 
Q 44.046875 74.21875 50.515625 64.515625 
Q 56.984375 54.828125 56.984375 36.375 
Q 56.984375 17.96875 50.515625 8.265625 
Q 44.046875 -1.421875 31.78125 -1.421875 
Q 19.53125 -1.421875 13.0625 8.265625 
Q 6.59375 17.96875 6.59375 36.375 
Q 6.59375 54.828125 13.0625 64.515625 
Q 19.53125 74.21875 31.78125 74.21875 
z
" id="DejaVuSans-30"/>
    </defs>
    <g transform="translate(287.432 91.36)scale(0.16 -0.16)">
     <use transform="translate(0 0.78125)" xlink:href="#DejaVuSans-3c9"/>
     <use transform="translate(84.697266 -15.625)scale(0.7)" xlink:href="#DejaVuSans-6d"/>
     <use transform="translate(175.102539 0.78125)" xlink:href="#DejaVuSans-3d"/>
     <use transform="translate(278.374023 0.78125)" xlink:href="#DejaVuSans-30"/>
    </g>
   </g>
   <g id="text_13">
    <!-- A -->
    <g transform="translate(508.3995 45.46)scale(0.16 -0.16)">
     <use xlink:href="#DejaVuSans-41"/>
    </g>
   </g>
   <g id="text_14">
    <!-- $V_{DC}$ -->
    <g transform="translate(515.032 91.36)scale(0.16 -0.16)">
     <use transform="translate(0 0.09375)" xlink:href="#DejaVuSans-56"/>
     <use transform="translate(69.365234 -16.3125)scale(0.7)" xlink:href="#DejaVuSans-44"/>
     <use transform="translate(123.266602 -16.3125)scale(0.7)" xlink:href="#DejaVuSans-43"/>
    </g>
   </g>
  </g>
 </g>
 <defs>
  <clipPath id="p7f937f78b8">
   <rect height="123.93" width="598.104" x="10.7" y="17.33"/>
  </clipPath>
 </defs>
</svg>
