<?xml version="1.0" encoding="utf-8" standalone="no"?>
<!DOCTYPE svg PUBLIC "-//W3C//DTD SVG 1.1//EN"
  "http://www.w3.org/Graphics/SVG/1.1/DTD/svg11.dtd">
<!-- Created with matplotlib (http://matplotlib.org/) -->
<svg height="141.4975pt" version="1.1" viewBox="0 0 542.8 141.4975" width="542.8pt" xmlns="http://www.w3.org/2000/svg" xmlns:xlink="http://www.w3.org/1999/xlink">
 <defs>
  <style type="text/css">
*{stroke-linecap:butt;stroke-linejoin:round;}
  </style>
 </defs>
 <g id="figure_1">
  <g id="patch_1">
   <path d="M 0 141.4975 
L 542.8 141.4975 
L 542.8 0 
L 0 0 
z
" style="fill:none;"/>
  </g>
  <g id="axes_1">
   <g id="patch_2">
    <path clip-path="url(#p46730a4c31)" d="M 54.64 74.3 
L 56.26 79.88 
L 54.6562 79.88 
L 54.6562 88.25 
L 54.6238 88.25 
L 54.6238 79.88 
L 53.02 79.88 
z
" style="stroke:#000000;stroke-linejoin:miter;stroke-width:1.5;"/>
   </g>
   <g id="patch_3">
    <path clip-path="url(#p46730a4c31)" d="M 166.42 28.265 
L 156.7 31.055 
L 156.7 28.27895 
L 137.26 28.27895 
L 137.26 28.25105 
L 156.7 28.25105 
L 156.7 25.475 
z
" style="stroke:#000000;stroke-linejoin:miter;stroke-width:1.5;"/>
   </g>
   <g id="line2d_1">
    <path clip-path="url(#p46730a4c31)" d="M 54.64 39.425 
L 54.64 67.325 
L 54.64 67.325 
M 54.64 95.225 
L 54.64 95.225 
L 54.64 123.125 
" style="fill:none;stroke:#000000;stroke-linecap:round;stroke-width:1.5;"/>
   </g>
   <g id="line2d_2">
    <path clip-path="url(#p46730a4c31)" d="M 54.64 39.425 
L 87.04 39.425 
L 87.04 39.425 
M 119.44 39.425 
L 119.44 39.425 
L 151.84 39.425 
" style="fill:none;stroke:#000000;stroke-linecap:round;stroke-width:1.5;"/>
   </g>
   <g id="line2d_3">
    <path clip-path="url(#p46730a4c31)" d="M 151.84 39.425 
" style="fill:none;stroke:#000000;stroke-linecap:round;stroke-width:1.5;"/>
   </g>
   <g id="line2d_4">
    <path clip-path="url(#p46730a4c31)" d="M 151.84 39.425 
L 151.84 67.325 
L 151.84 67.325 
M 151.84 95.225 
L 151.84 95.225 
L 151.84 123.125 
" style="fill:none;stroke:#000000;stroke-linecap:round;stroke-width:1.5;"/>
   </g>
   <g id="line2d_5">
    <path clip-path="url(#p46730a4c31)" d="M 151.84 123.125 
L 103.24 123.125 
L 54.64 123.125 
" style="fill:none;stroke:#000000;stroke-linecap:round;stroke-width:1.5;"/>
   </g>
   <g id="line2d_6">
    <path clip-path="url(#p46730a4c31)" d="M 151.84 39.425 
L 184.24 39.425 
L 186.94 32.45 
L 192.34 46.4 
L 197.74 32.45 
L 203.14 46.4 
L 208.54 32.45 
L 213.94 46.4 
L 216.64 39.425 
L 249.04 39.425 
" style="fill:none;stroke:#000000;stroke-linecap:round;stroke-width:1.5;"/>
   </g>
   <g id="line2d_7">
    <path clip-path="url(#p46730a4c31)" d="M 249.04 39.425 
L 249.04 67.325 
L 251.707768 67.428904 
L 254.399596 67.744864 
L 256.889725 68.265851 
L 258.969312 68.967642 
L 260.463944 69.810849 
L 260.950493 70.26982 
L 261.248269 70.744224 
L 261.350996 71.22651 
L 261.256508 71.708958 
L 260.966796 72.183846 
L 260.487968 72.64361 
L 259.830117 73.081007 
L 258.036288 73.86222 
L 255.735757 74.481438 
L 253.121464 74.906198 
L 250.412668 75.120346 
L 247.836549 75.125393 
L 245.609165 74.940387 
L 243.917321 74.600314 
L 242.90291 74.153166 
L 242.678779 73.907019 
L 242.65101 73.655916 
L 242.820187 73.407595 
L 243.182746 73.169737 
L 244.453523 72.754877 
L 246.356763 72.465598 
L 248.732844 72.345633 
L 251.382488 72.424514 
L 254.083472 72.715097 
L 256.60927 73.21248 
L 258.748047 73.89442 
L 260.320427 74.723194 
L 260.850818 75.177379 
L 261.194537 75.648765 
L 261.344339 76.129863 
L 261.297066 76.612978 
L 261.053715 77.090374 
L 260.619416 77.554435 
L 260.003322 77.997827 
L 258.281253 78.795586 
L 256.031936 79.436214 
L 253.444019 79.885454 
L 250.734545 80.1251 
L 248.130754 80.154523 
L 245.851022 79.990726 
L 244.086547 79.666918 
L 242.985312 79.229726 
L 242.714692 78.985907 
L 242.639677 78.735287 
L 242.761847 78.485595 
L 243.078628 78.244541 
L 244.265353 77.818116 
L 246.100322 77.511246 
L 248.42964 77.369138 
L 251.057949 77.423183 
L 253.764818 77.688317 
L 256.323225 78.161774 
L 258.518602 78.823319 
L 260.166825 79.636937 
L 260.740414 80.085928 
L 261.129659 80.553864 
L 261.326355 81.033331 
L 261.326355 81.516669 
L 261.129659 81.996136 
L 260.740414 82.464072 
L 260.166825 82.913063 
L 258.518602 83.726681 
L 256.323225 84.388226 
L 253.764818 84.861683 
L 251.057949 85.126817 
L 248.42964 85.180862 
L 246.100322 85.038754 
L 244.265353 84.731884 
L 243.078628 84.305459 
L 242.761847 84.064405 
L 242.639677 83.814713 
L 242.714692 83.564093 
L 242.985312 83.320274 
L 244.086547 82.883082 
L 245.851022 82.559274 
L 248.130754 82.395477 
L 250.734545 82.4249 
L 253.444019 82.664546 
L 256.031936 83.113786 
L 258.281253 83.754414 
L 260.003322 84.552173 
L 260.619416 84.995565 
L 261.053715 85.459626 
L 261.297066 85.937022 
L 261.344339 86.420137 
L 261.194537 86.901235 
L 260.850818 87.372621 
L 260.320427 87.826806 
L 258.748047 88.65558 
L 256.60927 89.33752 
L 254.083472 89.834903 
L 251.382488 90.125486 
L 248.732844 90.204367 
L 246.356763 90.084402 
L 244.453523 89.795123 
L 243.182746 89.380263 
L 242.820187 89.142405 
L 242.65101 88.894084 
L 242.678779 88.642981 
L 242.90291 88.396834 
L 243.917321 87.949686 
L 245.609165 87.609613 
L 247.836549 87.424607 
L 250.412668 87.429654 
L 253.121464 87.643802 
L 255.735757 88.068562 
L 258.036288 88.68778 
L 259.830117 89.468993 
L 260.487968 89.90639 
L 260.966796 90.366154 
L 261.256508 90.841042 
L 261.350996 91.32349 
L 261.248269 91.805776 
L 260.950493 92.28018 
L 260.463944 92.739151 
L 259.798877 93.17546 
L 257.992733 93.953715 
L 255.683538 94.569143 
L 253.064962 94.989601 
L 250.356621 95.199296 
L 249.04 95.225 
L 249.04 123.125 
L 249.04 123.125 
" style="fill:none;stroke:#000000;stroke-linecap:round;stroke-width:1.5;"/>
   </g>
   <g id="line2d_8">
    <path clip-path="url(#p46730a4c31)" d="M 249.04 123.125 
L 200.44 123.125 
L 151.84 123.125 
" style="fill:none;stroke:#000000;stroke-linecap:round;stroke-width:1.5;"/>
   </g>
   <g id="line2d_9">
    <path clip-path="url(#p46730a4c31)" d="M 365.68 39.425 
L 398.08 39.425 
L 400.78 32.45 
L 406.18 46.4 
L 411.58 32.45 
L 416.98 46.4 
L 422.38 32.45 
L 427.78 46.4 
L 430.48 39.425 
L 462.88 39.425 
" style="fill:none;stroke:#000000;stroke-linecap:round;stroke-width:1.5;"/>
   </g>
   <g id="line2d_10">
    <path clip-path="url(#p46730a4c31)" d="M 462.88 39.425 
L 462.88 67.325 
L 462.88 67.325 
M 462.88 95.225 
L 462.88 95.225 
L 462.88 123.125 
" style="fill:none;stroke:#000000;stroke-linecap:round;stroke-width:1.5;"/>
   </g>
   <g id="line2d_11">
    <path clip-path="url(#p46730a4c31)" d="M 462.88 123.125 
L 414.28 123.125 
L 365.68 123.125 
" style="fill:none;stroke:#000000;stroke-linecap:round;stroke-width:1.5;"/>
   </g>
   <g id="line2d_12">
    <path clip-path="url(#p46730a4c31)" d="M 365.68 123.125 
L 365.68 109.175 
L 365.68 109.175 
M 349.48 95.225 
L 349.48 109.175 
L 381.88 109.175 
L 381.88 95.225 
M 349.48 67.325 
L 349.48 53.375 
L 381.88 53.375 
L 381.88 67.325 
M 365.68 53.375 
L 365.68 53.375 
L 365.68 39.425 
" style="fill:none;stroke:#000000;stroke-linecap:round;stroke-width:1.5;"/>
   </g>
   <g id="patch_4">
    <path clip-path="url(#p46730a4c31)" d="M 54.64 95.225 
C 58.93629 95.225 63.057194 93.75514 66.09513 91.13914 
C 69.133066 88.523139 70.84 84.974583 70.84 81.275 
C 70.84 77.575417 69.133066 74.026861 66.09513 71.41086 
C 63.057194 68.79486 58.93629 67.325 54.64 67.325 
C 50.34371 67.325 46.222806 68.79486 43.18487 71.41086 
C 40.146934 74.026861 38.44 77.575417 38.44 81.275 
C 38.44 84.974583 40.146934 88.523139 43.18487 91.13914 
C 46.222806 93.75514 50.34371 95.225 54.64 95.225 
z
" style="fill:none;stroke:#000000;stroke-linejoin:miter;stroke-width:1.5;"/>
   </g>
   <g id="patch_5">
    <path clip-path="url(#p46730a4c31)" d="M 103.24 53.375 
C 107.53629 53.375 111.657194 51.90514 114.69513 49.28914 
C 117.733066 46.673139 119.44 43.124583 119.44 39.425 
C 119.44 35.725417 117.733066 32.176861 114.69513 29.56086 
C 111.657194 26.94486 107.53629 25.475 103.24 25.475 
C 98.94371 25.475 94.822806 26.94486 91.78487 29.56086 
C 88.746934 32.176861 87.04 35.725417 87.04 39.425 
C 87.04 43.124583 88.746934 46.673139 91.78487 49.28914 
C 94.822806 51.90514 98.94371 53.375 103.24 53.375 
z
" style="fill:none;stroke:#000000;stroke-linejoin:miter;stroke-width:1.5;"/>
   </g>
   <g id="patch_6">
    <path clip-path="url(#p46730a4c31)" d="M 151.84 41.5175 
C 152.484444 41.5175 153.102579 41.297021 153.558269 40.904621 
C 154.01396 40.512221 154.27 39.979937 154.27 39.425 
C 154.27 38.870063 154.01396 38.337779 153.558269 37.945379 
C 153.102579 37.552979 152.484444 37.3325 151.84 37.3325 
C 151.195556 37.3325 150.577421 37.552979 150.121731 37.945379 
C 149.66604 38.337779 149.41 38.870063 149.41 39.425 
C 149.41 39.979937 149.66604 40.512221 150.121731 40.904621 
C 150.577421 41.297021 151.195556 41.5175 151.84 41.5175 
z
" style="stroke:#000000;stroke-linejoin:miter;stroke-width:1.5;"/>
   </g>
   <g id="patch_7">
    <path clip-path="url(#p46730a4c31)" d="M 151.84 95.225 
C 156.13629 95.225 160.257194 93.75514 163.29513 91.13914 
C 166.333066 88.523139 168.04 84.974583 168.04 81.275 
C 168.04 77.575417 166.333066 74.026861 163.29513 71.41086 
C 160.257194 68.79486 156.13629 67.325 151.84 67.325 
C 147.54371 67.325 143.422806 68.79486 140.38487 71.41086 
C 137.346934 74.026861 135.64 77.575417 135.64 81.275 
C 135.64 84.974583 137.346934 88.523139 140.38487 91.13914 
C 143.422806 93.75514 147.54371 95.225 151.84 95.225 
z
" style="fill:none;stroke:#000000;stroke-linejoin:miter;stroke-width:1.5;"/>
   </g>
   <g id="patch_8">
    <path clip-path="url(#p46730a4c31)" d="M 462.88 95.225 
C 467.17629 95.225 471.297194 93.75514 474.33513 91.13914 
C 477.373066 88.523139 479.08 84.974583 479.08 81.275 
C 479.08 77.575417 477.373066 74.026861 474.33513 71.41086 
C 471.297194 68.79486 467.17629 67.325 462.88 67.325 
C 458.58371 67.325 454.462806 68.79486 451.42487 71.41086 
C 448.386934 74.026861 446.68 77.575417 446.68 81.275 
C 446.68 84.974583 448.386934 88.523139 451.42487 91.13914 
C 454.462806 93.75514 458.58371 95.225 462.88 95.225 
z
" style="fill:none;stroke:#000000;stroke-linejoin:miter;stroke-width:1.5;"/>
   </g>
   <g id="patch_9">
    <path clip-path="url(#p46730a4c31)" d="M 365.68 100.805 
C 371.694806 100.805 377.464071 98.747196 381.717182 95.084795 
C 385.970292 91.422395 388.36 86.454417 388.36 81.275 
C 388.36 76.095583 385.970292 71.127605 381.717182 67.465205 
C 377.464071 63.802804 371.694806 61.745 365.68 61.745 
C 359.665194 61.745 353.895929 63.802804 349.642818 67.465205 
C 345.389708 71.127605 343 76.095583 343 81.275 
C 343 86.454417 345.389708 91.422395 349.642818 95.084795 
C 353.895929 98.747196 359.665194 100.805 365.68 100.805 
z
" style="fill:none;stroke:#000000;stroke-linejoin:miter;stroke-width:1.5;"/>
   </g>
   <g id="text_1">
    <!-- $V_{DC}$ -->
    <defs>
     <path d="M 28.609375 0 
L 0.78125 72.90625 
L 11.078125 72.90625 
L 34.1875 11.53125 
L 57.328125 72.90625 
L 67.578125 72.90625 
L 39.796875 0 
z
" id="DejaVuSans-56"/>
     <path d="M 19.671875 64.796875 
L 19.671875 8.109375 
L 31.59375 8.109375 
Q 46.6875 8.109375 53.6875 14.9375 
Q 60.6875 21.78125 60.6875 36.53125 
Q 60.6875 51.171875 53.6875 57.984375 
Q 46.6875 64.796875 31.59375 64.796875 
z
M 9.8125 72.90625 
L 30.078125 72.90625 
Q 51.265625 72.90625 61.171875 64.09375 
Q 71.09375 55.28125 71.09375 36.53125 
Q 71.09375 17.671875 61.125 8.828125 
Q 51.171875 0 30.078125 0 
L 9.8125 0 
z
" id="DejaVuSans-44"/>
     <path d="M 64.40625 67.28125 
L 64.40625 56.890625 
Q 59.421875 61.53125 53.78125 63.8125 
Q 48.140625 66.109375 41.796875 66.109375 
Q 29.296875 66.109375 22.65625 58.46875 
Q 16.015625 50.828125 16.015625 36.375 
Q 16.015625 21.96875 22.65625 14.328125 
Q 29.296875 6.6875 41.796875 6.6875 
Q 48.140625 6.6875 53.78125 8.984375 
Q 59.421875 11.28125 64.40625 15.921875 
L 64.40625 5.609375 
Q 59.234375 2.09375 53.4375 0.328125 
Q 47.65625 -1.421875 41.21875 -1.421875 
Q 24.65625 -1.421875 15.125 8.703125 
Q 5.609375 18.84375 5.609375 36.375 
Q 5.609375 53.953125 15.125 64.078125 
Q 24.65625 74.21875 41.21875 74.21875 
Q 47.75 74.21875 53.53125 72.484375 
Q 59.328125 70.75 64.40625 67.28125 
z
" id="DejaVuSans-43"/>
    </defs>
    <g transform="translate(7.2 85.69)scale(0.16 -0.16)">
     <use transform="translate(0 0.09375)" xlink:href="#DejaVuSans-56"/>
     <use transform="translate(69.365234 -16.3125)scale(0.7)" xlink:href="#DejaVuSans-44"/>
     <use transform="translate(123.266602 -16.3125)scale(0.7)" xlink:href="#DejaVuSans-43"/>
    </g>
   </g>
   <g id="text_2">
    <!-- A -->
    <defs>
     <path d="M 34.1875 63.1875 
L 20.796875 26.90625 
L 47.609375 26.90625 
z
M 28.609375 72.90625 
L 39.796875 72.90625 
L 67.578125 0 
L 57.328125 0 
L 50.6875 18.703125 
L 17.828125 18.703125 
L 11.1875 0 
L 0.78125 0 
z
" id="DejaVuSans-41"/>
    </defs>
    <g transform="translate(97.7675 43.84)scale(0.16 -0.16)">
     <use xlink:href="#DejaVuSans-41"/>
    </g>
   </g>
   <g id="text_3">
    <!-- $I_f$ -->
    <defs>
     <path d="M 9.8125 72.90625 
L 19.671875 72.90625 
L 19.671875 0 
L 9.8125 0 
z
" id="DejaVuSans-49"/>
     <path d="M 37.109375 75.984375 
L 37.109375 68.5 
L 28.515625 68.5 
Q 23.6875 68.5 21.796875 66.546875 
Q 19.921875 64.59375 19.921875 59.515625 
L 19.921875 54.6875 
L 34.71875 54.6875 
L 34.71875 47.703125 
L 19.921875 47.703125 
L 19.921875 0 
L 10.890625 0 
L 10.890625 47.703125 
L 2.296875 47.703125 
L 2.296875 54.6875 
L 10.890625 54.6875 
L 10.890625 58.5 
Q 10.890625 67.625 15.140625 71.796875 
Q 19.390625 75.984375 28.609375 75.984375 
z
" id="DejaVuSans-66"/>
    </defs>
    <g transform="translate(147.2 19.3575)scale(0.16 -0.16)">
     <use transform="translate(0 0.09375)" xlink:href="#DejaVuSans-49"/>
     <use transform="translate(30.449219 -16.3125)scale(0.7)" xlink:href="#DejaVuSans-66"/>
    </g>
   </g>
   <g id="text_4">
    <!-- $V_f$ -->
    <g transform="translate(116.88 85.69)scale(0.16 -0.16)">
     <use transform="translate(0 0.09375)" xlink:href="#DejaVuSans-56"/>
     <use transform="translate(69.365234 -16.3125)scale(0.7)" xlink:href="#DejaVuSans-66"/>
    </g>
   </g>
   <g id="text_5">
    <!-- V -->
    <g transform="translate(146.3675 85.69)scale(0.16 -0.16)">
     <use xlink:href="#DejaVuSans-56"/>
    </g>
   </g>
   <g id="text_6">
    <!-- $R_f$ -->
    <defs>
     <path d="M 44.390625 34.1875 
Q 47.5625 33.109375 50.5625 29.59375 
Q 53.5625 26.078125 56.59375 19.921875 
L 66.609375 0 
L 56 0 
L 46.6875 18.703125 
Q 43.0625 26.03125 39.671875 28.421875 
Q 36.28125 30.8125 30.421875 30.8125 
L 19.671875 30.8125 
L 19.671875 0 
L 9.8125 0 
L 9.8125 72.90625 
L 32.078125 72.90625 
Q 44.578125 72.90625 50.734375 67.671875 
Q 56.890625 62.453125 56.890625 51.90625 
Q 56.890625 45.015625 53.6875 40.46875 
Q 50.484375 35.9375 44.390625 34.1875 
z
M 19.671875 64.796875 
L 19.671875 38.921875 
L 32.078125 38.921875 
Q 39.203125 38.921875 42.84375 42.21875 
Q 46.484375 45.515625 46.484375 51.90625 
Q 46.484375 58.296875 42.84375 61.546875 
Q 39.203125 64.796875 32.078125 64.796875 
z
" id="DejaVuSans-52"/>
    </defs>
    <g transform="translate(192.6 26.3325)scale(0.16 -0.16)">
     <use transform="translate(0 0.09375)" xlink:href="#DejaVuSans-52"/>
     <use transform="translate(70.439453 -16.3125)scale(0.7)" xlink:href="#DejaVuSans-66"/>
    </g>
   </g>
   <g id="text_7">
    <!-- $L_f$ -->
    <defs>
     <path d="M 9.8125 72.90625 
L 19.671875 72.90625 
L 19.671875 8.296875 
L 55.171875 8.296875 
L 55.171875 0 
L 9.8125 0 
z
" id="DejaVuSans-4c"/>
    </defs>
    <g transform="translate(225.799677 85.69)scale(0.16 -0.16)">
     <use transform="translate(0 0.09375)" xlink:href="#DejaVuSans-4c"/>
     <use transform="translate(56.669922 -16.3125)scale(0.7)" xlink:href="#DejaVuSans-66"/>
    </g>
   </g>
   <g id="text_8">
    <!-- $R_a$ -->
    <defs>
     <path d="M 34.28125 27.484375 
Q 23.390625 27.484375 19.1875 25 
Q 14.984375 22.515625 14.984375 16.5 
Q 14.984375 11.71875 18.140625 8.90625 
Q 21.296875 6.109375 26.703125 6.109375 
Q 34.1875 6.109375 38.703125 11.40625 
Q 43.21875 16.703125 43.21875 25.484375 
L 43.21875 27.484375 
z
M 52.203125 31.203125 
L 52.203125 0 
L 43.21875 0 
L 43.21875 8.296875 
Q 40.140625 3.328125 35.546875 0.953125 
Q 30.953125 -1.421875 24.3125 -1.421875 
Q 15.921875 -1.421875 10.953125 3.296875 
Q 6 8.015625 6 15.921875 
Q 6 25.140625 12.171875 29.828125 
Q 18.359375 34.515625 30.609375 34.515625 
L 43.21875 34.515625 
L 43.21875 35.40625 
Q 43.21875 41.609375 39.140625 45 
Q 35.0625 48.390625 27.6875 48.390625 
Q 23 48.390625 18.546875 47.265625 
Q 14.109375 46.140625 10.015625 43.890625 
L 10.015625 52.203125 
Q 14.9375 54.109375 19.578125 55.046875 
Q 24.21875 56 28.609375 56 
Q 40.484375 56 46.34375 49.84375 
Q 52.203125 43.703125 52.203125 31.203125 
z
" id="DejaVuSans-61"/>
    </defs>
    <g transform="translate(404.92 26.3325)scale(0.16 -0.16)">
     <use transform="translate(0 0.09375)" xlink:href="#DejaVuSans-52"/>
     <use transform="translate(70.439453 -16.3125)scale(0.7)" xlink:href="#DejaVuSans-61"/>
    </g>
   </g>
   <g id="text_9">
    <!-- $V_t=E_a$ -->
    <defs>
     <path d="M 18.3125 70.21875 
L 18.3125 54.6875 
L 36.8125 54.6875 
L 36.8125 47.703125 
L 18.3125 47.703125 
L 18.3125 18.015625 
Q 18.3125 11.328125 20.140625 9.421875 
Q 21.96875 7.515625 27.59375 7.515625 
L 36.8125 7.515625 
L 36.8125 0 
L 27.59375 0 
Q 17.1875 0 13.234375 3.875 
Q 9.28125 7.765625 9.28125 18.015625 
L 9.28125 47.703125 
L 2.6875 47.703125 
L 2.6875 54.6875 
L 9.28125 54.6875 
L 9.28125 70.21875 
z
" id="DejaVuSans-74"/>
     <path d="M 10.59375 45.40625 
L 73.1875 45.40625 
L 73.1875 37.203125 
L 10.59375 37.203125 
z
M 10.59375 25.484375 
L 73.1875 25.484375 
L 73.1875 17.1875 
L 10.59375 17.1875 
z
" id="DejaVuSans-3d"/>
     <path d="M 9.8125 72.90625 
L 55.90625 72.90625 
L 55.90625 64.59375 
L 19.671875 64.59375 
L 19.671875 43.015625 
L 54.390625 43.015625 
L 54.390625 34.71875 
L 19.671875 34.71875 
L 19.671875 8.296875 
L 56.78125 8.296875 
L 56.78125 0 
L 9.8125 0 
z
" id="DejaVuSans-45"/>
    </defs>
    <g transform="translate(482.32 85.69)scale(0.16 -0.16)">
     <use transform="translate(0 0.09375)" xlink:href="#DejaVuSans-56"/>
     <use transform="translate(69.365234 -16.3125)scale(0.7)" xlink:href="#DejaVuSans-74"/>
     <use transform="translate(119.02832 0.09375)" xlink:href="#DejaVuSans-3d"/>
     <use transform="translate(222.299805 0.09375)" xlink:href="#DejaVuSans-45"/>
     <use transform="translate(286.44043 -16.3125)scale(0.7)" xlink:href="#DejaVuSans-61"/>
    </g>
   </g>
   <g id="text_10">
    <!-- V -->
    <g transform="translate(457.4075 85.69)scale(0.16 -0.16)">
     <use xlink:href="#DejaVuSans-56"/>
    </g>
   </g>
   <g id="text_11">
    <!-- $\omega_m$ -->
    <defs>
     <path d="M 26.859375 -1.421875 
Q 6.59375 -1.421875 6.59375 27.59375 
Q 6.59375 39.0625 14.15625 54.6875 
L 23.828125 54.6875 
Q 16.84375 39.0625 16.84375 27.34375 
Q 16.84375 6.203125 27.6875 6.203125 
Q 37.59375 6.203125 37.59375 32.46875 
L 45.90625 32.46875 
Q 45.90625 6.203125 55.8125 6.203125 
Q 66.65625 6.203125 66.65625 27.34375 
Q 66.65625 39.0625 59.671875 54.6875 
L 69.34375 54.6875 
Q 76.90625 39.0625 76.90625 27.59375 
Q 76.90625 -1.421875 56.640625 -1.421875 
Q 43.359375 -1.421875 41.75 13.1875 
Q 39.75 -1.421875 26.859375 -1.421875 
z
" id="DejaVuSans-3c9"/>
     <path d="M 52 44.1875 
Q 55.375 50.25 60.0625 53.125 
Q 64.75 56 71.09375 56 
Q 79.640625 56 84.28125 50.015625 
Q 88.921875 44.046875 88.921875 33.015625 
L 88.921875 0 
L 79.890625 0 
L 79.890625 32.71875 
Q 79.890625 40.578125 77.09375 44.375 
Q 74.3125 48.1875 68.609375 48.1875 
Q 61.625 48.1875 57.5625 43.546875 
Q 53.515625 38.921875 53.515625 30.90625 
L 53.515625 0 
L 44.484375 0 
L 44.484375 32.71875 
Q 44.484375 40.625 41.703125 44.40625 
Q 38.921875 48.1875 33.109375 48.1875 
Q 26.21875 48.1875 22.15625 43.53125 
Q 18.109375 38.875 18.109375 30.90625 
L 18.109375 0 
L 9.078125 0 
L 9.078125 54.6875 
L 18.109375 54.6875 
L 18.109375 46.1875 
Q 21.1875 51.21875 25.484375 53.609375 
Q 29.78125 56 35.6875 56 
Q 41.65625 56 45.828125 52.96875 
Q 50 49.953125 52 44.1875 
z
" id="DejaVuSans-6d"/>
    </defs>
    <g transform="translate(314.8 85.69)scale(0.16 -0.16)">
     <use transform="translate(0 0.3125)" xlink:href="#DejaVuSans-3c9"/>
     <use transform="translate(84.697266 -16.09375)scale(0.7)" xlink:href="#DejaVuSans-6d"/>
    </g>
   </g>
  </g>
 </g>
 <defs>
  <clipPath id="p46730a4c31">
   <rect height="112.995" width="491.184" x="13.168" y="17.8025"/>
  </clipPath>
 </defs>
</svg>
