<?xml version="1.0" encoding="utf-8" standalone="no"?>
<!DOCTYPE svg PUBLIC "-//W3C//DTD SVG 1.1//EN"
  "http://www.w3.org/Graphics/SVG/1.1/DTD/svg11.dtd">
<!-- Created with matplotlib (http://matplotlib.org/) -->
<svg height="141.4975pt" version="1.1" viewBox="0 0 396.344 141.4975" width="396.344pt" xmlns="http://www.w3.org/2000/svg" xmlns:xlink="http://www.w3.org/1999/xlink">
 <defs>
  <style type="text/css">
*{stroke-linecap:butt;stroke-linejoin:round;}
  </style>
 </defs>
 <g id="figure_1">
  <g id="patch_1">
   <path d="M 0 141.4975 
L 396.344 141.4975 
L 396.344 0 
L 0 0 
z
" style="fill:none;"/>
  </g>
  <g id="axes_1">
   <g id="patch_2">
    <path clip-path="url(#p2d5930f19a)" d="M 140.7 28.265 
L 150.42 25.475 
L 150.42 28.25105 
L 169.86 28.25105 
L 169.86 28.27895 
L 150.42 28.27895 
L 150.42 31.055 
z
" style="stroke:#000000;stroke-linejoin:miter;stroke-width:1.5;"/>
   </g>
   <g id="patch_3">
    <path clip-path="url(#p2d5930f19a)" d="M 349.68 74.3 
L 351.3 79.88 
L 349.6962 79.88 
L 349.6962 88.25 
L 349.6638 88.25 
L 349.6638 79.88 
L 348.06 79.88 
z
" style="stroke:#000000;stroke-linejoin:miter;stroke-width:1.5;"/>
   </g>
   <g id="line2d_1">
    <path clip-path="url(#p2d5930f19a)" d="M 58.08 39.425 
L 90.48 39.425 
L 93.18 32.45 
L 98.58 46.4 
L 103.98 32.45 
L 109.38 46.4 
L 114.78 32.45 
L 120.18 46.4 
L 122.88 39.425 
L 155.28 39.425 
" style="fill:none;stroke:#000000;stroke-linecap:round;stroke-width:1.5;"/>
   </g>
   <g id="line2d_2">
    <path clip-path="url(#p2d5930f19a)" d="M 155.28 39.425 
" style="fill:none;stroke:#000000;stroke-linecap:round;stroke-width:1.5;"/>
   </g>
   <g id="line2d_3">
    <path clip-path="url(#p2d5930f19a)" d="M 155.28 39.425 
L 155.28 67.325 
L 155.28 67.325 
M 155.28 95.225 
L 155.28 95.225 
L 155.28 123.125 
" style="fill:none;stroke:#000000;stroke-linecap:round;stroke-width:1.5;"/>
   </g>
   <g id="line2d_4">
    <path clip-path="url(#p2d5930f19a)" d="M 155.28 123.125 
L 106.68 123.125 
L 58.08 123.125 
" style="fill:none;stroke:#000000;stroke-linecap:round;stroke-width:1.5;"/>
   </g>
   <g id="line2d_5">
    <path clip-path="url(#p2d5930f19a)" d="M 58.08 123.125 
L 58.08 109.175 
L 58.08 109.175 
M 41.88 95.225 
L 41.88 109.175 
L 74.28 109.175 
L 74.28 95.225 
M 41.88 67.325 
L 41.88 53.375 
L 74.28 53.375 
L 74.28 67.325 
M 58.08 53.375 
L 58.08 53.375 
L 58.08 39.425 
" style="fill:none;stroke:#000000;stroke-linecap:round;stroke-width:1.5;"/>
   </g>
   <g id="line2d_6">
    <path clip-path="url(#p2d5930f19a)" d="M 155.28 39.425 
L 187.68 39.425 
L 187.68 39.425 
M 220.08 39.425 
L 220.08 39.425 
L 252.48 39.425 
" style="fill:none;stroke:#000000;stroke-linecap:round;stroke-width:1.5;"/>
   </g>
   <g id="line2d_7">
    <path clip-path="url(#p2d5930f19a)" d="M 252.48 39.425 
L 284.88 39.425 
M 292.656 36.635 
L 310.8 26.87 
M 317.28 39.425 
L 349.68 39.425 
" style="fill:none;stroke:#000000;stroke-linecap:round;stroke-width:1.5;"/>
   </g>
   <g id="line2d_8">
    <path clip-path="url(#p2d5930f19a)" d="M 349.68 39.425 
L 349.68 67.325 
L 349.68 67.325 
M 349.68 95.225 
L 349.68 95.225 
L 349.68 123.125 
" style="fill:none;stroke:#000000;stroke-linecap:round;stroke-width:1.5;"/>
   </g>
   <g id="line2d_9">
    <path clip-path="url(#p2d5930f19a)" d="M 349.68 123.125 
L 252.48 123.125 
L 155.28 123.125 
" style="fill:none;stroke:#000000;stroke-linecap:round;stroke-width:1.5;"/>
   </g>
   <g id="patch_4">
    <path clip-path="url(#p2d5930f19a)" d="M 155.28 41.5175 
C 155.924444 41.5175 156.542579 41.297021 156.998269 40.904621 
C 157.45396 40.512221 157.71 39.979937 157.71 39.425 
C 157.71 38.870063 157.45396 38.337779 156.998269 37.945379 
C 156.542579 37.552979 155.924444 37.3325 155.28 37.3325 
C 154.635556 37.3325 154.017421 37.552979 153.561731 37.945379 
C 153.10604 38.337779 152.85 38.870063 152.85 39.425 
C 152.85 39.979937 153.10604 40.512221 153.561731 40.904621 
C 154.017421 41.297021 154.635556 41.5175 155.28 41.5175 
z
" style="stroke:#000000;stroke-linejoin:miter;stroke-width:1.5;"/>
   </g>
   <g id="patch_5">
    <path clip-path="url(#p2d5930f19a)" d="M 155.28 95.225 
C 159.57629 95.225 163.697194 93.75514 166.73513 91.13914 
C 169.773066 88.523139 171.48 84.974583 171.48 81.275 
C 171.48 77.575417 169.773066 74.026861 166.73513 71.41086 
C 163.697194 68.79486 159.57629 67.325 155.28 67.325 
C 150.98371 67.325 146.862806 68.79486 143.82487 71.41086 
C 140.786934 74.026861 139.08 77.575417 139.08 81.275 
C 139.08 84.974583 140.786934 88.523139 143.82487 91.13914 
C 146.862806 93.75514 150.98371 95.225 155.28 95.225 
z
" style="fill:none;stroke:#000000;stroke-linejoin:miter;stroke-width:1.5;"/>
   </g>
   <g id="patch_6">
    <path clip-path="url(#p2d5930f19a)" d="M 58.08 100.805 
C 64.094806 100.805 69.864071 98.747196 74.117182 95.084795 
C 78.370292 91.422395 80.76 86.454417 80.76 81.275 
C 80.76 76.095583 78.370292 71.127605 74.117182 67.465205 
C 69.864071 63.802804 64.094806 61.745 58.08 61.745 
C 52.065194 61.745 46.295929 63.802804 42.042818 67.465205 
C 37.789708 71.127605 35.4 76.095583 35.4 81.275 
C 35.4 86.454417 37.789708 91.422395 42.042818 95.084795 
C 46.295929 98.747196 52.065194 100.805 58.08 100.805 
z
" style="fill:none;stroke:#000000;stroke-linejoin:miter;stroke-width:1.5;"/>
   </g>
   <g id="patch_7">
    <path clip-path="url(#p2d5930f19a)" d="M 203.88 53.375 
C 208.17629 53.375 212.297194 51.90514 215.33513 49.28914 
C 218.373066 46.673139 220.08 43.124583 220.08 39.425 
C 220.08 35.725417 218.373066 32.176861 215.33513 29.56086 
C 212.297194 26.94486 208.17629 25.475 203.88 25.475 
C 199.58371 25.475 195.462806 26.94486 192.42487 29.56086 
C 189.386934 32.176861 187.68 35.725417 187.68 39.425 
C 187.68 43.124583 189.386934 46.673139 192.42487 49.28914 
C 195.462806 51.90514 199.58371 53.375 203.88 53.375 
z
" style="fill:none;stroke:#000000;stroke-linejoin:miter;stroke-width:1.5;"/>
   </g>
   <g id="patch_8">
    <path clip-path="url(#p2d5930f19a)" d="M 288.768 42.773 
C 289.79911 42.773 290.788127 42.420234 291.517231 41.792394 
C 292.246336 41.164553 292.656 40.3129 292.656 39.425 
C 292.656 38.5371 292.246336 37.685447 291.517231 37.057606 
C 290.788127 36.429766 289.79911 36.077 288.768 36.077 
C 287.73689 36.077 286.747873 36.429766 286.018769 37.057606 
C 285.289664 37.685447 284.88 38.5371 284.88 39.425 
C 284.88 40.3129 285.289664 41.164553 286.018769 41.792394 
C 286.747873 42.420234 287.73689 42.773 288.768 42.773 
z
" style="fill:none;stroke:#000000;stroke-linejoin:miter;stroke-width:1.5;"/>
   </g>
   <g id="patch_9">
    <path clip-path="url(#p2d5930f19a)" d="M 313.392 42.773 
C 314.42311 42.773 315.412127 42.420234 316.141231 41.792394 
C 316.870336 41.164553 317.28 40.3129 317.28 39.425 
C 317.28 38.5371 316.870336 37.685447 316.141231 37.057606 
C 315.412127 36.429766 314.42311 36.077 313.392 36.077 
C 312.36089 36.077 311.371873 36.429766 310.642769 37.057606 
C 309.913664 37.685447 309.504 38.5371 309.504 39.425 
C 309.504 40.3129 309.913664 41.164553 310.642769 41.792394 
C 311.371873 42.420234 312.36089 42.773 313.392 42.773 
z
" style="fill:none;stroke:#000000;stroke-linejoin:miter;stroke-width:1.5;"/>
   </g>
   <g id="patch_10">
    <path clip-path="url(#p2d5930f19a)" d="M 349.68 95.225 
C 353.97629 95.225 358.097194 93.75514 361.13513 91.13914 
C 364.173066 88.523139 365.88 84.974583 365.88 81.275 
C 365.88 77.575417 364.173066 74.026861 361.13513 71.41086 
C 358.097194 68.79486 353.97629 67.325 349.68 67.325 
C 345.38371 67.325 341.262806 68.79486 338.22487 71.41086 
C 335.186934 74.026861 333.48 77.575417 333.48 81.275 
C 333.48 84.974583 335.186934 88.523139 338.22487 91.13914 
C 341.262806 93.75514 345.38371 95.225 349.68 95.225 
z
" style="fill:none;stroke:#000000;stroke-linejoin:miter;stroke-width:1.5;"/>
   </g>
   <g id="text_1">
    <!-- $R_a$ -->
    <defs>
     <path d="M 44.390625 34.1875 
Q 47.5625 33.109375 50.5625 29.59375 
Q 53.5625 26.078125 56.59375 19.921875 
L 66.609375 0 
L 56 0 
L 46.6875 18.703125 
Q 43.0625 26.03125 39.671875 28.421875 
Q 36.28125 30.8125 30.421875 30.8125 
L 19.671875 30.8125 
L 19.671875 0 
L 9.8125 0 
L 9.8125 72.90625 
L 32.078125 72.90625 
Q 44.578125 72.90625 50.734375 67.671875 
Q 56.890625 62.453125 56.890625 51.90625 
Q 56.890625 45.015625 53.6875 40.46875 
Q 50.484375 35.9375 44.390625 34.1875 
z
M 19.671875 64.796875 
L 19.671875 38.921875 
L 32.078125 38.921875 
Q 39.203125 38.921875 42.84375 42.21875 
Q 46.484375 45.515625 46.484375 51.90625 
Q 46.484375 58.296875 42.84375 61.546875 
Q 39.203125 64.796875 32.078125 64.796875 
z
" id="DejaVuSans-52"/>
     <path d="M 34.28125 27.484375 
Q 23.390625 27.484375 19.1875 25 
Q 14.984375 22.515625 14.984375 16.5 
Q 14.984375 11.71875 18.140625 8.90625 
Q 21.296875 6.109375 26.703125 6.109375 
Q 34.1875 6.109375 38.703125 11.40625 
Q 43.21875 16.703125 43.21875 25.484375 
L 43.21875 27.484375 
z
M 52.203125 31.203125 
L 52.203125 0 
L 43.21875 0 
L 43.21875 8.296875 
Q 40.140625 3.328125 35.546875 0.953125 
Q 30.953125 -1.421875 24.3125 -1.421875 
Q 15.921875 -1.421875 10.953125 3.296875 
Q 6 8.015625 6 15.921875 
Q 6 25.140625 12.171875 29.828125 
Q 18.359375 34.515625 30.609375 34.515625 
L 43.21875 34.515625 
L 43.21875 35.40625 
Q 43.21875 41.609375 39.140625 45 
Q 35.0625 48.390625 27.6875 48.390625 
Q 23 48.390625 18.546875 47.265625 
Q 14.109375 46.140625 10.015625 43.890625 
L 10.015625 52.203125 
Q 14.9375 54.109375 19.578125 55.046875 
Q 24.21875 56 28.609375 56 
Q 40.484375 56 46.34375 49.84375 
Q 52.203125 43.703125 52.203125 31.203125 
z
" id="DejaVuSans-61"/>
    </defs>
    <g transform="translate(97.32 26.3325)scale(0.16 -0.16)">
     <use transform="translate(0 0.09375)" xlink:href="#DejaVuSans-52"/>
     <use transform="translate(70.439453 -16.3125)scale(0.7)" xlink:href="#DejaVuSans-61"/>
    </g>
   </g>
   <g id="text_2">
    <!-- $I_a$ -->
    <defs>
     <path d="M 9.8125 72.90625 
L 19.671875 72.90625 
L 19.671875 0 
L 9.8125 0 
z
" id="DejaVuSans-49"/>
    </defs>
    <g transform="translate(149.12 19.3575)scale(0.16 -0.16)">
     <use transform="translate(0 0.09375)" xlink:href="#DejaVuSans-49"/>
     <use transform="translate(30.449219 -16.3125)scale(0.7)" xlink:href="#DejaVuSans-61"/>
    </g>
   </g>
   <g id="text_3">
    <!-- $V_t$ -->
    <defs>
     <path d="M 28.609375 0 
L 0.78125 72.90625 
L 11.078125 72.90625 
L 34.1875 11.53125 
L 57.328125 72.90625 
L 67.578125 72.90625 
L 39.796875 0 
z
" id="DejaVuSans-56"/>
     <path d="M 18.3125 70.21875 
L 18.3125 54.6875 
L 36.8125 54.6875 
L 36.8125 47.703125 
L 18.3125 47.703125 
L 18.3125 18.015625 
Q 18.3125 11.328125 20.140625 9.421875 
Q 21.96875 7.515625 27.59375 7.515625 
L 36.8125 7.515625 
L 36.8125 0 
L 27.59375 0 
Q 17.1875 0 13.234375 3.875 
Q 9.28125 7.765625 9.28125 18.015625 
L 9.28125 47.703125 
L 2.6875 47.703125 
L 2.6875 54.6875 
L 9.28125 54.6875 
L 9.28125 70.21875 
z
" id="DejaVuSans-74"/>
    </defs>
    <g transform="translate(119.84 85.69)scale(0.16 -0.16)">
     <use transform="translate(0 0.09375)" xlink:href="#DejaVuSans-56"/>
     <use transform="translate(69.365234 -16.3125)scale(0.7)" xlink:href="#DejaVuSans-74"/>
    </g>
   </g>
   <g id="text_4">
    <!-- V -->
    <g transform="translate(149.8075 85.69)scale(0.16 -0.16)">
     <use xlink:href="#DejaVuSans-56"/>
    </g>
   </g>
   <g id="text_5">
    <!-- $\omega_m$ -->
    <defs>
     <path d="M 26.859375 -1.421875 
Q 6.59375 -1.421875 6.59375 27.59375 
Q 6.59375 39.0625 14.15625 54.6875 
L 23.828125 54.6875 
Q 16.84375 39.0625 16.84375 27.34375 
Q 16.84375 6.203125 27.6875 6.203125 
Q 37.59375 6.203125 37.59375 32.46875 
L 45.90625 32.46875 
Q 45.90625 6.203125 55.8125 6.203125 
Q 66.65625 6.203125 66.65625 27.34375 
Q 66.65625 39.0625 59.671875 54.6875 
L 69.34375 54.6875 
Q 76.90625 39.0625 76.90625 27.59375 
Q 76.90625 -1.421875 56.640625 -1.421875 
Q 43.359375 -1.421875 41.75 13.1875 
Q 39.75 -1.421875 26.859375 -1.421875 
z
" id="DejaVuSans-3c9"/>
     <path d="M 52 44.1875 
Q 55.375 50.25 60.0625 53.125 
Q 64.75 56 71.09375 56 
Q 79.640625 56 84.28125 50.015625 
Q 88.921875 44.046875 88.921875 33.015625 
L 88.921875 0 
L 79.890625 0 
L 79.890625 32.71875 
Q 79.890625 40.578125 77.09375 44.375 
Q 74.3125 48.1875 68.609375 48.1875 
Q 61.625 48.1875 57.5625 43.546875 
Q 53.515625 38.921875 53.515625 30.90625 
L 53.515625 0 
L 44.484375 0 
L 44.484375 32.71875 
Q 44.484375 40.625 41.703125 44.40625 
Q 38.921875 48.1875 33.109375 48.1875 
Q 26.21875 48.1875 22.15625 43.53125 
Q 18.109375 38.875 18.109375 30.90625 
L 18.109375 0 
L 9.078125 0 
L 9.078125 54.6875 
L 18.109375 54.6875 
L 18.109375 46.1875 
Q 21.1875 51.21875 25.484375 53.609375 
Q 29.78125 56 35.6875 56 
Q 41.65625 56 45.828125 52.96875 
Q 50 49.953125 52 44.1875 
z
" id="DejaVuSans-6d"/>
    </defs>
    <g transform="translate(7.2 85.69)scale(0.16 -0.16)">
     <use transform="translate(0 0.3125)" xlink:href="#DejaVuSans-3c9"/>
     <use transform="translate(84.697266 -16.09375)scale(0.7)" xlink:href="#DejaVuSans-6d"/>
    </g>
   </g>
   <g id="text_6">
    <!-- − -->
    <defs>
     <path d="M 10.59375 35.5 
L 73.1875 35.5 
L 73.1875 27.203125 
L 10.59375 27.203125 
z
" id="DejaVuSans-2212"/>
    </defs>
    <g transform="translate(84 106.615)scale(0.16 -0.16)">
     <use xlink:href="#DejaVuSans-2212"/>
    </g>
   </g>
   <g id="text_7">
    <!-- $E_a$ -->
    <defs>
     <path d="M 9.8125 72.90625 
L 55.90625 72.90625 
L 55.90625 64.59375 
L 19.671875 64.59375 
L 19.671875 43.015625 
L 54.390625 43.015625 
L 54.390625 34.71875 
L 19.671875 34.71875 
L 19.671875 8.296875 
L 56.78125 8.296875 
L 56.78125 0 
L 9.8125 0 
z
" id="DejaVuSans-45"/>
    </defs>
    <g transform="translate(84 85.69)scale(0.16 -0.16)">
     <use transform="translate(0 0.09375)" xlink:href="#DejaVuSans-45"/>
     <use transform="translate(64.140625 -16.3125)scale(0.7)" xlink:href="#DejaVuSans-61"/>
    </g>
   </g>
   <g id="text_8">
    <!-- + -->
    <defs>
     <path d="M 46 62.703125 
L 46 35.5 
L 73.1875 35.5 
L 73.1875 27.203125 
L 46 27.203125 
L 46 0 
L 37.796875 0 
L 37.796875 27.203125 
L 10.59375 27.203125 
L 10.59375 35.5 
L 37.796875 35.5 
L 37.796875 62.703125 
z
" id="DejaVuSans-2b"/>
    </defs>
    <g transform="translate(84 64.765)scale(0.16 -0.16)">
     <use xlink:href="#DejaVuSans-2b"/>
    </g>
   </g>
   <g id="text_9">
    <!-- A -->
    <defs>
     <path d="M 34.1875 63.1875 
L 20.796875 26.90625 
L 47.609375 26.90625 
z
M 28.609375 72.90625 
L 39.796875 72.90625 
L 67.578125 0 
L 57.328125 0 
L 50.6875 18.703125 
L 17.828125 18.703125 
L 11.1875 0 
L 0.78125 0 
z
" id="DejaVuSans-41"/>
    </defs>
    <g transform="translate(198.4075 43.84)scale(0.16 -0.16)">
     <use xlink:href="#DejaVuSans-41"/>
    </g>
   </g>
   <g id="text_10">
    <!-- $V_{DC}$ -->
    <defs>
     <path d="M 19.671875 64.796875 
L 19.671875 8.109375 
L 31.59375 8.109375 
Q 46.6875 8.109375 53.6875 14.9375 
Q 60.6875 21.78125 60.6875 36.53125 
Q 60.6875 51.171875 53.6875 57.984375 
Q 46.6875 64.796875 31.59375 64.796875 
z
M 9.8125 72.90625 
L 30.078125 72.90625 
Q 51.265625 72.90625 61.171875 64.09375 
Q 71.09375 55.28125 71.09375 36.53125 
Q 71.09375 17.671875 61.125 8.828125 
Q 51.171875 0 30.078125 0 
L 9.8125 0 
z
" id="DejaVuSans-44"/>
     <path d="M 64.40625 67.28125 
L 64.40625 56.890625 
Q 59.421875 61.53125 53.78125 63.8125 
Q 48.140625 66.109375 41.796875 66.109375 
Q 29.296875 66.109375 22.65625 58.46875 
Q 16.015625 50.828125 16.015625 36.375 
Q 16.015625 21.96875 22.65625 14.328125 
Q 29.296875 6.6875 41.796875 6.6875 
Q 48.140625 6.6875 53.78125 8.984375 
Q 59.421875 11.28125 64.40625 15.921875 
L 64.40625 5.609375 
Q 59.234375 2.09375 53.4375 0.328125 
Q 47.65625 -1.421875 41.21875 -1.421875 
Q 24.65625 -1.421875 15.125 8.703125 
Q 5.609375 18.84375 5.609375 36.375 
Q 5.609375 53.953125 15.125 64.078125 
Q 24.65625 74.21875 41.21875 74.21875 
Q 47.75 74.21875 53.53125 72.484375 
Q 59.328125 70.75 64.40625 67.28125 
z
" id="DejaVuSans-43"/>
    </defs>
    <g transform="translate(302.24 85.69)scale(0.16 -0.16)">
     <use transform="translate(0 0.09375)" xlink:href="#DejaVuSans-56"/>
     <use transform="translate(69.365234 -16.3125)scale(0.7)" xlink:href="#DejaVuSans-44"/>
     <use transform="translate(123.266602 -16.3125)scale(0.7)" xlink:href="#DejaVuSans-43"/>
    </g>
   </g>
  </g>
 </g>
 <defs>
  <clipPath id="p2d5930f19a">
   <rect height="112.995" width="370.008" x="15.636" y="17.8025"/>
  </clipPath>
 </defs>
</svg>
