<?xml version="1.0" encoding="utf-8" standalone="no"?>
<!DOCTYPE svg PUBLIC "-//W3C//DTD SVG 1.1//EN"
  "http://www.w3.org/Graphics/SVG/1.1/DTD/svg11.dtd">
<!-- Created with matplotlib (http://matplotlib.org/) -->
<svg height="143.345875pt" version="1.1" viewBox="0 0 324.583 143.345875" width="324.583pt" xmlns="http://www.w3.org/2000/svg" xmlns:xlink="http://www.w3.org/1999/xlink">
 <defs>
  <style type="text/css">
*{stroke-linecap:butt;stroke-linejoin:round;}
  </style>
 </defs>
 <g id="figure_1">
  <g id="patch_1">
   <path d="M 0 143.345875 
L 324.583 143.345875 
L 324.583 0 
L 0 0 
z
" style="fill:none;"/>
  </g>
  <g id="axes_1">
   <g id="patch_2">
    <path clip-path="url(#p4fee61b234)" d="M 183.7565 39.425 
C 183.7565 38.500412 183.329514 37.612747 182.570282 36.958965 
C 181.811051 36.305183 180.780215 35.9375 179.7065 35.9375 
C 178.632785 35.9375 177.601949 36.305183 176.842718 36.958965 
C 176.083486 37.612747 175.6565 38.500412 175.6565 39.425 
" style="fill:none;stroke:#000000;stroke-linejoin:miter;stroke-width:1.5;"/>
   </g>
   <g id="patch_3">
    <path clip-path="url(#p4fee61b234)" d="M 191.8565 39.425 
C 191.8565 38.500412 191.429514 37.612747 190.670282 36.958965 
C 189.911051 36.305183 188.880215 35.9375 187.8065 35.9375 
C 186.732785 35.9375 185.701949 36.305183 184.942718 36.958965 
C 184.183486 37.612747 183.7565 38.500412 183.7565 39.425 
" style="fill:none;stroke:#000000;stroke-linejoin:miter;stroke-width:1.5;"/>
   </g>
   <g id="patch_4">
    <path clip-path="url(#p4fee61b234)" d="M 199.9565 39.425 
C 199.9565 38.500412 199.529514 37.612747 198.770282 36.958965 
C 198.011051 36.305183 196.980215 35.9375 195.9065 35.9375 
C 194.832785 35.9375 193.801949 36.305183 193.042718 36.958965 
C 192.283486 37.612747 191.8565 38.500412 191.8565 39.425 
" style="fill:none;stroke:#000000;stroke-linejoin:miter;stroke-width:1.5;"/>
   </g>
   <g id="patch_5">
    <path clip-path="url(#p4fee61b234)" d="M 208.0565 39.425 
C 208.0565 38.500412 207.629514 37.612747 206.870282 36.958965 
C 206.111051 36.305183 205.080215 35.9375 204.0065 35.9375 
C 202.932785 35.9375 201.901949 36.305183 201.142718 36.958965 
C 200.383486 37.612747 199.9565 38.500412 199.9565 39.425 
" style="fill:none;stroke:#000000;stroke-linejoin:miter;stroke-width:1.5;"/>
   </g>
   <g id="patch_6">
    <path clip-path="url(#p4fee61b234)" d="M 248.5565 39.425 
C 248.5565 38.500412 248.129514 37.612747 247.370282 36.958965 
C 246.611051 36.305183 245.580215 35.9375 244.5065 35.9375 
C 243.432785 35.9375 242.401949 36.305183 241.642718 36.958965 
C 240.883486 37.612747 240.4565 38.500412 240.4565 39.425 
" style="fill:none;stroke:#000000;stroke-linejoin:miter;stroke-width:1.5;"/>
   </g>
   <g id="patch_7">
    <path clip-path="url(#p4fee61b234)" d="M 256.6565 39.425 
C 256.6565 38.500412 256.229514 37.612747 255.470282 36.958965 
C 254.711051 36.305183 253.680215 35.9375 252.6065 35.9375 
C 251.532785 35.9375 250.501949 36.305183 249.742718 36.958965 
C 248.983486 37.612747 248.5565 38.500412 248.5565 39.425 
" style="fill:none;stroke:#000000;stroke-linejoin:miter;stroke-width:1.5;"/>
   </g>
   <g id="patch_8">
    <path clip-path="url(#p4fee61b234)" d="M 264.7565 39.425 
C 264.7565 38.500412 264.329514 37.612747 263.570282 36.958965 
C 262.811051 36.305183 261.780215 35.9375 260.7065 35.9375 
C 259.632785 35.9375 258.601949 36.305183 257.842718 36.958965 
C 257.083486 37.612747 256.6565 38.500412 256.6565 39.425 
" style="fill:none;stroke:#000000;stroke-linejoin:miter;stroke-width:1.5;"/>
   </g>
   <g id="patch_9">
    <path clip-path="url(#p4fee61b234)" d="M 272.8565 39.425 
C 272.8565 38.500412 272.429514 37.612747 271.670282 36.958965 
C 270.911051 36.305183 269.880215 35.9375 268.8065 35.9375 
C 267.732785 35.9375 266.701949 36.305183 265.942718 36.958965 
C 265.183486 37.612747 264.7565 38.500412 264.7565 39.425 
" style="fill:none;stroke:#000000;stroke-linejoin:miter;stroke-width:1.5;"/>
   </g>
   <g id="patch_10">
    <path clip-path="url(#p4fee61b234)" d="M 94.6565 88.25 
C 93.582785 88.25 92.551949 88.617683 91.792718 89.271465 
C 91.033486 89.925247 90.6065 90.812912 90.6065 91.7375 
C 90.6065 92.662088 91.033486 93.549753 91.792718 94.203535 
C 92.551949 94.857317 93.582785 95.225 94.6565 95.225 
" style="fill:none;stroke:#000000;stroke-linejoin:miter;stroke-width:1.5;"/>
   </g>
   <g id="patch_11">
    <path clip-path="url(#p4fee61b234)" d="M 94.6565 81.275 
C 93.582785 81.275 92.551949 81.642683 91.792718 82.296465 
C 91.033486 82.950247 90.6065 83.837912 90.6065 84.7625 
C 90.6065 85.687088 91.033486 86.574753 91.792718 87.228535 
C 92.551949 87.882317 93.582785 88.25 94.6565 88.25 
" style="fill:none;stroke:#000000;stroke-linejoin:miter;stroke-width:1.5;"/>
   </g>
   <g id="patch_12">
    <path clip-path="url(#p4fee61b234)" d="M 94.6565 74.3 
C 93.582785 74.3 92.551949 74.667683 91.792718 75.321465 
C 91.033486 75.975247 90.6065 76.862912 90.6065 77.7875 
C 90.6065 78.712088 91.033486 79.599753 91.792718 80.253535 
C 92.551949 80.907317 93.582785 81.275 94.6565 81.275 
" style="fill:none;stroke:#000000;stroke-linejoin:miter;stroke-width:1.5;"/>
   </g>
   <g id="patch_13">
    <path clip-path="url(#p4fee61b234)" d="M 94.6565 67.325 
C 93.582785 67.325 92.551949 67.692683 91.792718 68.346465 
C 91.033486 69.000247 90.6065 69.887912 90.6065 70.8125 
C 90.6065 71.737088 91.033486 72.624753 91.792718 73.278535 
C 92.551949 73.932317 93.582785 74.3 94.6565 74.3 
" style="fill:none;stroke:#000000;stroke-linejoin:miter;stroke-width:1.5;"/>
   </g>
   <g id="patch_14">
    <path clip-path="url(#p4fee61b234)" d="M 78.4565 28.265 
L 68.7365 31.055 
L 68.7365 28.27895 
L 46.0565 28.27895 
L 46.0565 28.25105 
L 68.7365 28.25105 
L 68.7365 25.475 
z
" style="stroke:#000000;stroke-linejoin:miter;stroke-width:1.5;"/>
   </g>
   <g id="patch_15">
    <path clip-path="url(#p4fee61b234)" d="M 240.4565 50.585 
L 230.7365 53.375 
L 230.7365 50.59895 
L 208.0565 50.59895 
L 208.0565 50.57105 
L 230.7365 50.57105 
L 230.7365 47.795 
z
" style="stroke:#000000;stroke-linejoin:miter;stroke-width:1.5;"/>
   </g>
   <g id="patch_16">
    <path clip-path="url(#p4fee61b234)" d="M 240.4565 111.965 
L 230.7365 114.755 
L 230.7365 111.97895 
L 208.0565 111.97895 
L 208.0565 111.95105 
L 230.7365 111.95105 
L 230.7365 109.175 
z
" style="stroke:#000000;stroke-linejoin:miter;stroke-width:1.5;"/>
   </g>
   <g id="line2d_1">
    <path clip-path="url(#p4fee61b234)" d="M 29.8565 39.425 
" style="fill:none;stroke:#000000;stroke-linecap:round;stroke-width:1.5;"/>
   </g>
   <g id="line2d_2">
    <path clip-path="url(#p4fee61b234)" d="M 29.8565 39.425 
L 62.2565 39.425 
L 94.6565 39.425 
" style="fill:none;stroke:#000000;stroke-linecap:round;stroke-width:1.5;"/>
   </g>
   <g id="line2d_3">
    <path clip-path="url(#p4fee61b234)" d="M 94.6565 39.425 
" style="fill:none;stroke:#000000;stroke-linecap:round;stroke-width:1.5;"/>
   </g>
   <g id="line2d_4">
    <path clip-path="url(#p4fee61b234)" d="M 94.6565 39.425 
L 110.8565 39.425 
L 113.5565 32.45 
L 118.9565 46.4 
L 124.3565 32.45 
L 129.7565 46.4 
L 135.1565 32.45 
L 140.5565 46.4 
L 143.2565 39.425 
L 159.4565 39.425 
" style="fill:none;stroke:#000000;stroke-linecap:round;stroke-width:1.5;"/>
   </g>
   <g id="line2d_5">
    <path clip-path="url(#p4fee61b234)" d="M 159.4565 39.425 
L 175.6565 39.425 
M 208.0565 39.425 
L 224.2565 39.425 
" style="fill:none;stroke:#000000;stroke-linecap:round;stroke-width:1.5;"/>
   </g>
   <g id="line2d_6">
    <path clip-path="url(#p4fee61b234)" d="M 224.2565 39.425 
L 224.2565 39.425 
L 224.2565 39.425 
" style="fill:none;stroke:#000000;stroke-linecap:round;stroke-width:1.5;"/>
   </g>
   <g id="line2d_7">
    <path clip-path="url(#p4fee61b234)" d="M 224.2565 39.425 
L 240.4565 39.425 
M 272.8565 39.425 
L 289.0565 39.425 
" style="fill:none;stroke:#000000;stroke-linecap:round;stroke-width:1.5;"/>
   </g>
   <g id="line2d_8">
    <path clip-path="url(#p4fee61b234)" d="M 289.0565 39.425 
L 289.0565 46.4 
L 289.0565 53.375 
" style="fill:none;stroke:#000000;stroke-linecap:round;stroke-width:1.5;"/>
   </g>
   <g id="line2d_9">
    <path clip-path="url(#p4fee61b234)" d="M 289.0565 53.375 
L 289.0565 67.325 
L 297.1565 69.65 
L 280.9565 74.3 
L 297.1565 78.95 
L 280.9565 83.6 
L 297.1565 88.25 
L 280.9565 92.9 
L 289.0565 95.225 
L 289.0565 109.175 
" style="fill:none;stroke:#000000;stroke-linecap:round;stroke-width:1.5;"/>
   </g>
   <g id="line2d_10">
    <path clip-path="url(#p4fee61b234)" d="M 289.0565 109.175 
L 289.0565 116.15 
L 289.0565 123.125 
" style="fill:none;stroke:#000000;stroke-linecap:round;stroke-width:1.5;"/>
   </g>
   <g id="line2d_11">
    <path clip-path="url(#p4fee61b234)" d="M 289.0565 123.125 
L 256.6565 123.125 
L 224.2565 123.125 
" style="fill:none;stroke:#000000;stroke-linecap:round;stroke-width:1.5;"/>
   </g>
   <g id="line2d_12">
    <path clip-path="url(#p4fee61b234)" d="M 224.2565 123.125 
L 224.2565 123.125 
L 224.2565 123.125 
" style="fill:none;stroke:#000000;stroke-linecap:round;stroke-width:1.5;"/>
   </g>
   <g id="line2d_13">
    <path clip-path="url(#p4fee61b234)" d="M 224.2565 123.125 
L 159.4565 123.125 
L 94.6565 123.125 
" style="fill:none;stroke:#000000;stroke-linecap:round;stroke-width:1.5;"/>
   </g>
   <g id="line2d_14">
    <path clip-path="url(#p4fee61b234)" d="M 94.6565 123.125 
" style="fill:none;stroke:#000000;stroke-linecap:round;stroke-width:1.5;"/>
   </g>
   <g id="line2d_15">
    <path clip-path="url(#p4fee61b234)" d="M 94.6565 123.125 
L 94.6565 95.225 
M 94.6565 67.325 
L 94.6565 39.425 
" style="fill:none;stroke:#000000;stroke-linecap:round;stroke-width:1.5;"/>
   </g>
   <g id="line2d_16">
    <path clip-path="url(#p4fee61b234)" d="M 94.6565 123.125 
L 62.2565 123.125 
L 29.8565 123.125 
" style="fill:none;stroke:#000000;stroke-linecap:round;stroke-width:1.5;"/>
   </g>
   <g id="line2d_17">
    <path clip-path="url(#p4fee61b234)" d="M 29.8565 123.125 
" style="fill:none;stroke:#000000;stroke-linecap:round;stroke-width:1.5;"/>
   </g>
   <g id="patch_17">
    <path clip-path="url(#p4fee61b234)" d="M 29.8565 41.5175 
C 30.500944 41.5175 31.119079 41.297021 31.574769 40.904621 
C 32.03046 40.512221 32.2865 39.979937 32.2865 39.425 
C 32.2865 38.870063 32.03046 38.337779 31.574769 37.945379 
C 31.119079 37.552979 30.500944 37.3325 29.8565 37.3325 
C 29.212056 37.3325 28.593921 37.552979 28.138231 37.945379 
C 27.68254 38.337779 27.4265 38.870063 27.4265 39.425 
C 27.4265 39.979937 27.68254 40.512221 28.138231 40.904621 
C 28.593921 41.297021 29.212056 41.5175 29.8565 41.5175 
z
" style="fill:#ffffff;stroke:#000000;stroke-linejoin:miter;stroke-width:1.5;"/>
   </g>
   <g id="patch_18">
    <path clip-path="url(#p4fee61b234)" d="M 94.6565 41.5175 
C 95.300944 41.5175 95.919079 41.297021 96.374769 40.904621 
C 96.83046 40.512221 97.0865 39.979937 97.0865 39.425 
C 97.0865 38.870063 96.83046 38.337779 96.374769 37.945379 
C 95.919079 37.552979 95.300944 37.3325 94.6565 37.3325 
C 94.012056 37.3325 93.393921 37.552979 92.938231 37.945379 
C 92.48254 38.337779 92.2265 38.870063 92.2265 39.425 
C 92.2265 39.979937 92.48254 40.512221 92.938231 40.904621 
C 93.393921 41.297021 94.012056 41.5175 94.6565 41.5175 
z
" style="stroke:#000000;stroke-linejoin:miter;stroke-width:1.5;"/>
   </g>
   <g id="patch_19">
    <path clip-path="url(#p4fee61b234)" d="M 94.6565 125.2175 
C 95.300944 125.2175 95.919079 124.997021 96.374769 124.604621 
C 96.83046 124.212221 97.0865 123.679937 97.0865 123.125 
C 97.0865 122.570063 96.83046 122.037779 96.374769 121.645379 
C 95.919079 121.252979 95.300944 121.0325 94.6565 121.0325 
C 94.012056 121.0325 93.393921 121.252979 92.938231 121.645379 
C 92.48254 122.037779 92.2265 122.570063 92.2265 123.125 
C 92.2265 123.679937 92.48254 124.212221 92.938231 124.604621 
C 93.393921 124.997021 94.012056 125.2175 94.6565 125.2175 
z
" style="stroke:#000000;stroke-linejoin:miter;stroke-width:1.5;"/>
   </g>
   <g id="patch_20">
    <path clip-path="url(#p4fee61b234)" d="M 29.8565 125.2175 
C 30.500944 125.2175 31.119079 124.997021 31.574769 124.604621 
C 32.03046 124.212221 32.2865 123.679937 32.2865 123.125 
C 32.2865 122.570063 32.03046 122.037779 31.574769 121.645379 
C 31.119079 121.252979 30.500944 121.0325 29.8565 121.0325 
C 29.212056 121.0325 28.593921 121.252979 28.138231 121.645379 
C 27.68254 122.037779 27.4265 122.570063 27.4265 123.125 
C 27.4265 123.679937 27.68254 124.212221 28.138231 124.604621 
C 28.593921 124.997021 29.212056 125.2175 29.8565 125.2175 
z
" style="fill:#ffffff;stroke:#000000;stroke-linejoin:miter;stroke-width:1.5;"/>
   </g>
   <g id="text_1">
    <!-- $I_1$ -->
    <defs>
     <path d="M 9.8125 72.90625 
L 19.671875 72.90625 
L 19.671875 0 
L 9.8125 0 
z
" id="DejaVuSans-49"/>
     <path d="M 12.40625 8.296875 
L 28.515625 8.296875 
L 28.515625 63.921875 
L 10.984375 60.40625 
L 10.984375 69.390625 
L 28.421875 72.90625 
L 38.28125 72.90625 
L 38.28125 8.296875 
L 54.390625 8.296875 
L 54.390625 0 
L 12.40625 0 
z
" id="DejaVuSans-31"/>
    </defs>
    <g transform="translate(56.0165 19.3575)scale(0.16 -0.16)">
     <use transform="translate(0 0.09375)" xlink:href="#DejaVuSans-49"/>
     <use transform="translate(30.449219 -16.3125)scale(0.7)" xlink:href="#DejaVuSans-31"/>
    </g>
   </g>
   <g id="text_2">
    <!-- $R_1$ -->
    <defs>
     <path d="M 44.390625 34.1875 
Q 47.5625 33.109375 50.5625 29.59375 
Q 53.5625 26.078125 56.59375 19.921875 
L 66.609375 0 
L 56 0 
L 46.6875 18.703125 
Q 43.0625 26.03125 39.671875 28.421875 
Q 36.28125 30.8125 30.421875 30.8125 
L 19.671875 30.8125 
L 19.671875 0 
L 9.8125 0 
L 9.8125 72.90625 
L 32.078125 72.90625 
Q 44.578125 72.90625 50.734375 67.671875 
Q 56.890625 62.453125 56.890625 51.90625 
Q 56.890625 45.015625 53.6875 40.46875 
Q 50.484375 35.9375 44.390625 34.1875 
z
M 19.671875 64.796875 
L 19.671875 38.921875 
L 32.078125 38.921875 
Q 39.203125 38.921875 42.84375 42.21875 
Q 46.484375 45.515625 46.484375 51.90625 
Q 46.484375 58.296875 42.84375 61.546875 
Q 39.203125 64.796875 32.078125 64.796875 
z
" id="DejaVuSans-52"/>
    </defs>
    <g transform="translate(117.6165 26.3325)scale(0.16 -0.16)">
     <use transform="translate(0 0.09375)" xlink:href="#DejaVuSans-52"/>
     <use transform="translate(70.439453 -16.3125)scale(0.7)" xlink:href="#DejaVuSans-31"/>
    </g>
   </g>
   <g id="text_3">
    <!-- $jX_1$ -->
    <defs>
     <path d="M 9.421875 54.6875 
L 18.40625 54.6875 
L 18.40625 -0.984375 
Q 18.40625 -11.421875 14.421875 -16.109375 
Q 10.453125 -20.796875 1.609375 -20.796875 
L -1.8125 -20.796875 
L -1.8125 -13.1875 
L 0.59375 -13.1875 
Q 5.71875 -13.1875 7.5625 -10.8125 
Q 9.421875 -8.453125 9.421875 -0.984375 
z
M 9.421875 75.984375 
L 18.40625 75.984375 
L 18.40625 64.59375 
L 9.421875 64.59375 
z
" id="DejaVuSans-6a"/>
     <path d="M 6.296875 72.90625 
L 16.890625 72.90625 
L 35.015625 45.796875 
L 53.21875 72.90625 
L 63.8125 72.90625 
L 40.375 37.890625 
L 65.375 0 
L 54.78125 0 
L 34.28125 31 
L 13.625 0 
L 2.984375 0 
L 29 38.921875 
z
" id="DejaVuSans-58"/>
    </defs>
    <g transform="translate(180.2565 26.3)scale(0.16 -0.16)">
     <use transform="translate(0 0.015625)" xlink:href="#DejaVuSans-6a"/>
     <use transform="translate(27.783203 0.015625)" xlink:href="#DejaVuSans-58"/>
     <use transform="translate(97.246094 -16.390625)scale(0.7)" xlink:href="#DejaVuSans-31"/>
    </g>
   </g>
   <g id="text_4">
    <!-- $I_2^\prime$ -->
    <defs>
     <path d="M 1.953125 54.6875 
L 10.40625 72.90625 
L 20.3125 72.90625 
L 6.203125 54.6875 
z
" id="DejaVuSans-2032"/>
     <path d="M 19.1875 8.296875 
L 53.609375 8.296875 
L 53.609375 0 
L 7.328125 0 
L 7.328125 8.296875 
Q 12.9375 14.109375 22.625 23.890625 
Q 32.328125 33.6875 34.8125 36.53125 
Q 39.546875 41.84375 41.421875 45.53125 
Q 43.3125 49.21875 43.3125 52.78125 
Q 43.3125 58.59375 39.234375 62.25 
Q 35.15625 65.921875 28.609375 65.921875 
Q 23.96875 65.921875 18.8125 64.3125 
Q 13.671875 62.703125 7.8125 59.421875 
L 7.8125 69.390625 
Q 13.765625 71.78125 18.9375 73 
Q 24.125 74.21875 28.421875 74.21875 
Q 39.75 74.21875 46.484375 68.546875 
Q 53.21875 62.890625 53.21875 53.421875 
Q 53.21875 48.921875 51.53125 44.890625 
Q 49.859375 40.875 45.40625 35.40625 
Q 44.1875 33.984375 37.640625 27.21875 
Q 31.109375 20.453125 19.1875 8.296875 
z
" id="DejaVuSans-32"/>
    </defs>
    <g transform="translate(218.0165 70.565)scale(0.16 -0.16)">
     <use transform="translate(0 0.684375)" xlink:href="#DejaVuSans-49"/>
     <use transform="translate(30.449219 38.965625)scale(0.7)" xlink:href="#DejaVuSans-2032"/>
     <use transform="translate(30.449219 -26.659375)scale(0.7)" xlink:href="#DejaVuSans-32"/>
    </g>
   </g>
   <g id="text_5">
    <!-- $jX_2^\prime$ -->
    <g transform="translate(245.0565 25.18)scale(0.16 -0.16)">
     <use transform="translate(0 0.684375)" xlink:href="#DejaVuSans-6a"/>
     <use transform="translate(27.783203 0.684375)" xlink:href="#DejaVuSans-58"/>
     <use transform="translate(97.246094 38.965625)scale(0.7)" xlink:href="#DejaVuSans-2032"/>
     <use transform="translate(97.246094 -26.659375)scale(0.7)" xlink:href="#DejaVuSans-32"/>
    </g>
   </g>
   <g id="text_6">
    <!-- $\frac{R_2^\prime}{s}$ -->
    <defs>
     <path d="M 44.28125 53.078125 
L 44.28125 44.578125 
Q 40.484375 46.53125 36.375 47.5 
Q 32.28125 48.484375 27.875 48.484375 
Q 21.1875 48.484375 17.84375 46.4375 
Q 14.5 44.390625 14.5 40.28125 
Q 14.5 37.15625 16.890625 35.375 
Q 19.28125 33.59375 26.515625 31.984375 
L 29.59375 31.296875 
Q 39.15625 29.25 43.1875 25.515625 
Q 47.21875 21.78125 47.21875 15.09375 
Q 47.21875 7.46875 41.1875 3.015625 
Q 35.15625 -1.421875 24.609375 -1.421875 
Q 20.21875 -1.421875 15.453125 -0.5625 
Q 10.6875 0.296875 5.421875 2 
L 5.421875 11.28125 
Q 10.40625 8.6875 15.234375 7.390625 
Q 20.0625 6.109375 24.8125 6.109375 
Q 31.15625 6.109375 34.5625 8.28125 
Q 37.984375 10.453125 37.984375 14.40625 
Q 37.984375 18.0625 35.515625 20.015625 
Q 33.0625 21.96875 24.703125 23.78125 
L 21.578125 24.515625 
Q 13.234375 26.265625 9.515625 29.90625 
Q 5.8125 33.546875 5.8125 39.890625 
Q 5.8125 47.609375 11.28125 51.796875 
Q 16.75 56 26.8125 56 
Q 31.78125 56 36.171875 55.265625 
Q 40.578125 54.546875 44.28125 53.078125 
z
" id="DejaVuSans-73"/>
    </defs>
    <g transform="translate(262.5165 89.115)scale(0.16 -0.16)">
     <use transform="translate(0 63.479063)scale(0.7)" xlink:href="#DejaVuSans-52"/>
     <use transform="translate(49.307617 90.275937)scale(0.49)" xlink:href="#DejaVuSans-2032"/>
     <use transform="translate(49.307617 44.338437)scale(0.49)" xlink:href="#DejaVuSans-32"/>
     <use transform="translate(23 -26.111562)scale(0.7)" xlink:href="#DejaVuSans-73"/>
     <path d="M 0 19.338437 
L 0 25.588437 
L 82.396973 25.588437 
L 82.396973 19.338437 
L 0 19.338437 
z
"/>
    </g>
   </g>
   <g id="text_7">
    <!-- $P_{ag}$ -->
    <defs>
     <path d="M 19.671875 64.796875 
L 19.671875 37.40625 
L 32.078125 37.40625 
Q 38.96875 37.40625 42.71875 40.96875 
Q 46.484375 44.53125 46.484375 51.125 
Q 46.484375 57.671875 42.71875 61.234375 
Q 38.96875 64.796875 32.078125 64.796875 
z
M 9.8125 72.90625 
L 32.078125 72.90625 
Q 44.34375 72.90625 50.609375 67.359375 
Q 56.890625 61.8125 56.890625 51.125 
Q 56.890625 40.328125 50.609375 34.8125 
Q 44.34375 29.296875 32.078125 29.296875 
L 19.671875 29.296875 
L 19.671875 0 
L 9.8125 0 
z
" id="DejaVuSans-50"/>
     <path d="M 34.28125 27.484375 
Q 23.390625 27.484375 19.1875 25 
Q 14.984375 22.515625 14.984375 16.5 
Q 14.984375 11.71875 18.140625 8.90625 
Q 21.296875 6.109375 26.703125 6.109375 
Q 34.1875 6.109375 38.703125 11.40625 
Q 43.21875 16.703125 43.21875 25.484375 
L 43.21875 27.484375 
z
M 52.203125 31.203125 
L 52.203125 0 
L 43.21875 0 
L 43.21875 8.296875 
Q 40.140625 3.328125 35.546875 0.953125 
Q 30.953125 -1.421875 24.3125 -1.421875 
Q 15.921875 -1.421875 10.953125 3.296875 
Q 6 8.015625 6 15.921875 
Q 6 25.140625 12.171875 29.828125 
Q 18.359375 34.515625 30.609375 34.515625 
L 43.21875 34.515625 
L 43.21875 35.40625 
Q 43.21875 41.609375 39.140625 45 
Q 35.0625 48.390625 27.6875 48.390625 
Q 23 48.390625 18.546875 47.265625 
Q 14.109375 46.140625 10.015625 43.890625 
L 10.015625 52.203125 
Q 14.9375 54.109375 19.578125 55.046875 
Q 24.21875 56 28.609375 56 
Q 40.484375 56 46.34375 49.84375 
Q 52.203125 43.703125 52.203125 31.203125 
z
" id="DejaVuSans-61"/>
     <path d="M 45.40625 27.984375 
Q 45.40625 37.75 41.375 43.109375 
Q 37.359375 48.484375 30.078125 48.484375 
Q 22.859375 48.484375 18.828125 43.109375 
Q 14.796875 37.75 14.796875 27.984375 
Q 14.796875 18.265625 18.828125 12.890625 
Q 22.859375 7.515625 30.078125 7.515625 
Q 37.359375 7.515625 41.375 12.890625 
Q 45.40625 18.265625 45.40625 27.984375 
z
M 54.390625 6.78125 
Q 54.390625 -7.171875 48.1875 -13.984375 
Q 42 -20.796875 29.203125 -20.796875 
Q 24.46875 -20.796875 20.265625 -20.09375 
Q 16.0625 -19.390625 12.109375 -17.921875 
L 12.109375 -9.1875 
Q 16.0625 -11.328125 19.921875 -12.34375 
Q 23.78125 -13.375 27.78125 -13.375 
Q 36.625 -13.375 41.015625 -8.765625 
Q 45.40625 -4.15625 45.40625 5.171875 
L 45.40625 9.625 
Q 42.625 4.78125 38.28125 2.390625 
Q 33.9375 0 27.875 0 
Q 17.828125 0 11.671875 7.65625 
Q 5.515625 15.328125 5.515625 27.984375 
Q 5.515625 40.671875 11.671875 48.328125 
Q 17.828125 56 27.875 56 
Q 33.9375 56 38.28125 53.609375 
Q 42.625 51.21875 45.40625 46.390625 
L 45.40625 54.6875 
L 54.390625 54.6875 
z
" id="DejaVuSans-67"/>
    </defs>
    <g transform="translate(212.0965 101.425)scale(0.16 -0.16)">
     <use transform="translate(0 0.09375)" xlink:href="#DejaVuSans-50"/>
     <use transform="translate(61.259766 -16.3125)scale(0.7)" xlink:href="#DejaVuSans-61"/>
     <use transform="translate(104.155273 -16.3125)scale(0.7)" xlink:href="#DejaVuSans-67"/>
    </g>
   </g>
   <g id="text_8">
    <!-- $jX_m$ -->
    <defs>
     <path d="M 52 44.1875 
Q 55.375 50.25 60.0625 53.125 
Q 64.75 56 71.09375 56 
Q 79.640625 56 84.28125 50.015625 
Q 88.921875 44.046875 88.921875 33.015625 
L 88.921875 0 
L 79.890625 0 
L 79.890625 32.71875 
Q 79.890625 40.578125 77.09375 44.375 
Q 74.3125 48.1875 68.609375 48.1875 
Q 61.625 48.1875 57.5625 43.546875 
Q 53.515625 38.921875 53.515625 30.90625 
L 53.515625 0 
L 44.484375 0 
L 44.484375 32.71875 
Q 44.484375 40.625 41.703125 44.40625 
Q 38.921875 48.1875 33.109375 48.1875 
Q 26.21875 48.1875 22.15625 43.53125 
Q 18.109375 38.875 18.109375 30.90625 
L 18.109375 0 
L 9.078125 0 
L 9.078125 54.6875 
L 18.109375 54.6875 
L 18.109375 46.1875 
Q 21.1875 51.21875 25.484375 53.609375 
Q 29.78125 56 35.6875 56 
Q 41.65625 56 45.828125 52.96875 
Q 50 49.953125 52 44.1875 
z
" id="DejaVuSans-6d"/>
    </defs>
    <g transform="translate(56.2765 85.675)scale(0.16 -0.16)">
     <use transform="translate(0 0.015625)" xlink:href="#DejaVuSans-6a"/>
     <use transform="translate(27.783203 0.015625)" xlink:href="#DejaVuSans-58"/>
     <use transform="translate(97.246094 -16.390625)scale(0.7)" xlink:href="#DejaVuSans-6d"/>
    </g>
   </g>
  </g>
 </g>
 <defs>
  <clipPath id="p4fee61b234">
   <rect height="107.62425" width="303.183" x="10.7" y="25.021625"/>
  </clipPath>
 </defs>
</svg>
