<?xml version="1.0" encoding="utf-8" standalone="no"?>
<!DOCTYPE svg PUBLIC "-//W3C//DTD SVG 1.1//EN"
  "http://www.w3.org/Graphics/SVG/1.1/DTD/svg11.dtd">
<!-- Created with matplotlib (http://matplotlib.org/) -->
<svg height="146.900875pt" version="1.1" viewBox="0 0 360.223 146.900875" width="360.223pt" xmlns="http://www.w3.org/2000/svg" xmlns:xlink="http://www.w3.org/1999/xlink">
 <defs>
  <style type="text/css">
*{stroke-linecap:butt;stroke-linejoin:round;}
  </style>
 </defs>
 <g id="figure_1">
  <g id="patch_1">
   <path d="M 0 146.900875 
L 360.223 146.900875 
L 360.223 0 
L 0 0 
z
" style="fill:none;"/>
  </g>
  <g id="axes_1">
   <g id="patch_2">
    <path clip-path="url(#pe85ddf6647)" d="M 185.3765 42.98 
C 185.3765 42.055412 184.949514 41.167747 184.190282 40.513965 
C 183.431051 39.860183 182.400215 39.4925 181.3265 39.4925 
C 180.252785 39.4925 179.221949 39.860183 178.462718 40.513965 
C 177.703486 41.167747 177.2765 42.055412 177.2765 42.98 
" style="fill:none;stroke:#000000;stroke-linejoin:miter;stroke-width:1.5;"/>
   </g>
   <g id="patch_3">
    <path clip-path="url(#pe85ddf6647)" d="M 193.4765 42.98 
C 193.4765 42.055412 193.049514 41.167747 192.290282 40.513965 
C 191.531051 39.860183 190.500215 39.4925 189.4265 39.4925 
C 188.352785 39.4925 187.321949 39.860183 186.562718 40.513965 
C 185.803486 41.167747 185.3765 42.055412 185.3765 42.98 
" style="fill:none;stroke:#000000;stroke-linejoin:miter;stroke-width:1.5;"/>
   </g>
   <g id="patch_4">
    <path clip-path="url(#pe85ddf6647)" d="M 201.5765 42.98 
C 201.5765 42.055412 201.149514 41.167747 200.390282 40.513965 
C 199.631051 39.860183 198.600215 39.4925 197.5265 39.4925 
C 196.452785 39.4925 195.421949 39.860183 194.662718 40.513965 
C 193.903486 41.167747 193.4765 42.055412 193.4765 42.98 
" style="fill:none;stroke:#000000;stroke-linejoin:miter;stroke-width:1.5;"/>
   </g>
   <g id="patch_5">
    <path clip-path="url(#pe85ddf6647)" d="M 209.6765 42.98 
C 209.6765 42.055412 209.249514 41.167747 208.490282 40.513965 
C 207.731051 39.860183 206.700215 39.4925 205.6265 39.4925 
C 204.552785 39.4925 203.521949 39.860183 202.762718 40.513965 
C 202.003486 41.167747 201.5765 42.055412 201.5765 42.98 
" style="fill:none;stroke:#000000;stroke-linejoin:miter;stroke-width:1.5;"/>
   </g>
   <g id="patch_6">
    <path clip-path="url(#pe85ddf6647)" d="M 266.3765 42.98 
C 266.3765 42.055412 265.949514 41.167747 265.190282 40.513965 
C 264.431051 39.860183 263.400215 39.4925 262.3265 39.4925 
C 261.252785 39.4925 260.221949 39.860183 259.462718 40.513965 
C 258.703486 41.167747 258.2765 42.055412 258.2765 42.98 
" style="fill:none;stroke:#000000;stroke-linejoin:miter;stroke-width:1.5;"/>
   </g>
   <g id="patch_7">
    <path clip-path="url(#pe85ddf6647)" d="M 274.4765 42.98 
C 274.4765 42.055412 274.049514 41.167747 273.290282 40.513965 
C 272.531051 39.860183 271.500215 39.4925 270.4265 39.4925 
C 269.352785 39.4925 268.321949 39.860183 267.562718 40.513965 
C 266.803486 41.167747 266.3765 42.055412 266.3765 42.98 
" style="fill:none;stroke:#000000;stroke-linejoin:miter;stroke-width:1.5;"/>
   </g>
   <g id="patch_8">
    <path clip-path="url(#pe85ddf6647)" d="M 282.5765 42.98 
C 282.5765 42.055412 282.149514 41.167747 281.390282 40.513965 
C 280.631051 39.860183 279.600215 39.4925 278.5265 39.4925 
C 277.452785 39.4925 276.421949 39.860183 275.662718 40.513965 
C 274.903486 41.167747 274.4765 42.055412 274.4765 42.98 
" style="fill:none;stroke:#000000;stroke-linejoin:miter;stroke-width:1.5;"/>
   </g>
   <g id="patch_9">
    <path clip-path="url(#pe85ddf6647)" d="M 290.6765 42.98 
C 290.6765 42.055412 290.249514 41.167747 289.490282 40.513965 
C 288.731051 39.860183 287.700215 39.4925 286.6265 39.4925 
C 285.552785 39.4925 284.521949 39.860183 283.762718 40.513965 
C 283.003486 41.167747 282.5765 42.055412 282.5765 42.98 
" style="fill:none;stroke:#000000;stroke-linejoin:miter;stroke-width:1.5;"/>
   </g>
   <g id="patch_10">
    <path clip-path="url(#pe85ddf6647)" d="M 225.8765 91.805 
C 224.802785 91.805 223.771949 92.172683 223.012718 92.826465 
C 222.253486 93.480247 221.8265 94.367912 221.8265 95.2925 
C 221.8265 96.217088 222.253486 97.104753 223.012718 97.758535 
C 223.771949 98.412317 224.802785 98.78 225.8765 98.78 
" style="fill:none;stroke:#000000;stroke-linejoin:miter;stroke-width:1.5;"/>
   </g>
   <g id="patch_11">
    <path clip-path="url(#pe85ddf6647)" d="M 225.8765 84.83 
C 224.802785 84.83 223.771949 85.197683 223.012718 85.851465 
C 222.253486 86.505247 221.8265 87.392912 221.8265 88.3175 
C 221.8265 89.242088 222.253486 90.129753 223.012718 90.783535 
C 223.771949 91.437317 224.802785 91.805 225.8765 91.805 
" style="fill:none;stroke:#000000;stroke-linejoin:miter;stroke-width:1.5;"/>
   </g>
   <g id="patch_12">
    <path clip-path="url(#pe85ddf6647)" d="M 225.8765 77.855 
C 224.802785 77.855 223.771949 78.222683 223.012718 78.876465 
C 222.253486 79.530247 221.8265 80.417912 221.8265 81.3425 
C 221.8265 82.267088 222.253486 83.154753 223.012718 83.808535 
C 223.771949 84.462317 224.802785 84.83 225.8765 84.83 
" style="fill:none;stroke:#000000;stroke-linejoin:miter;stroke-width:1.5;"/>
   </g>
   <g id="patch_13">
    <path clip-path="url(#pe85ddf6647)" d="M 225.8765 70.88 
C 224.802785 70.88 223.771949 71.247683 223.012718 71.901465 
C 222.253486 72.555247 221.8265 73.442912 221.8265 74.3675 
C 221.8265 75.292088 222.253486 76.179753 223.012718 76.833535 
C 223.771949 77.487317 224.802785 77.855 225.8765 77.855 
" style="fill:none;stroke:#000000;stroke-linejoin:miter;stroke-width:1.5;"/>
   </g>
   <g id="patch_14">
    <path clip-path="url(#pe85ddf6647)" d="M 80.0765 31.82 
L 70.3565 34.61 
L 70.3565 31.83395 
L 47.6765 31.83395 
L 47.6765 31.80605 
L 70.3565 31.80605 
L 70.3565 29.03 
z
" style="stroke:#000000;stroke-linejoin:miter;stroke-width:1.5;"/>
   </g>
   <g id="patch_15">
    <path clip-path="url(#pe85ddf6647)" d="M 298.7765 31.82 
L 308.4965 29.03 
L 308.4965 31.80605 
L 331.1765 31.80605 
L 331.1765 31.83395 
L 308.4965 31.83395 
L 308.4965 34.61 
z
" style="stroke:#000000;stroke-linejoin:miter;stroke-width:1.5;"/>
   </g>
   <g id="line2d_1">
    <path clip-path="url(#pe85ddf6647)" d="M 31.4765 42.98 
" style="fill:none;stroke:#000000;stroke-linecap:round;stroke-width:1.5;"/>
   </g>
   <g id="line2d_2">
    <path clip-path="url(#pe85ddf6647)" d="M 31.4765 42.98 
L 63.8765 42.98 
L 96.2765 42.98 
" style="fill:none;stroke:#000000;stroke-linecap:round;stroke-width:1.5;"/>
   </g>
   <g id="line2d_3">
    <path clip-path="url(#pe85ddf6647)" d="M 96.2765 42.98 
L 112.4765 42.98 
L 115.1765 36.005 
L 120.5765 49.955 
L 125.9765 36.005 
L 131.3765 49.955 
L 136.7765 36.005 
L 142.1765 49.955 
L 144.8765 42.98 
L 161.0765 42.98 
" style="fill:none;stroke:#000000;stroke-linecap:round;stroke-width:1.5;"/>
   </g>
   <g id="line2d_4">
    <path clip-path="url(#pe85ddf6647)" d="M 161.0765 42.98 
L 177.2765 42.98 
M 209.6765 42.98 
L 225.8765 42.98 
" style="fill:none;stroke:#000000;stroke-linecap:round;stroke-width:1.5;"/>
   </g>
   <g id="line2d_5">
    <path clip-path="url(#pe85ddf6647)" d="M 225.8765 42.98 
" style="fill:none;stroke:#000000;stroke-linecap:round;stroke-width:1.5;"/>
   </g>
   <g id="line2d_6">
    <path clip-path="url(#pe85ddf6647)" d="M 225.8765 42.98 
L 233.9765 42.98 
L 242.0765 42.98 
" style="fill:none;stroke:#000000;stroke-linecap:round;stroke-width:1.5;"/>
   </g>
   <g id="line2d_7">
    <path clip-path="url(#pe85ddf6647)" d="M 242.0765 42.98 
L 258.2765 42.98 
M 290.6765 42.98 
L 306.8765 42.98 
" style="fill:none;stroke:#000000;stroke-linecap:round;stroke-width:1.5;"/>
   </g>
   <g id="line2d_8">
    <path clip-path="url(#pe85ddf6647)" d="M 306.8765 42.98 
L 314.9765 42.98 
L 323.0765 42.98 
" style="fill:none;stroke:#000000;stroke-linecap:round;stroke-width:1.5;"/>
   </g>
   <g id="line2d_9">
    <path clip-path="url(#pe85ddf6647)" d="M 323.0765 42.98 
L 323.0765 49.955 
L 323.0765 56.93 
" style="fill:none;stroke:#000000;stroke-linecap:round;stroke-width:1.5;"/>
   </g>
   <g id="line2d_10">
    <path clip-path="url(#pe85ddf6647)" d="M 323.0765 56.93 
L 323.0765 70.88 
L 331.1765 73.205 
L 314.9765 77.855 
L 331.1765 82.505 
L 314.9765 87.155 
L 331.1765 91.805 
L 314.9765 96.455 
L 323.0765 98.78 
L 323.0765 112.73 
" style="fill:none;stroke:#000000;stroke-linecap:round;stroke-width:1.5;"/>
   </g>
   <g id="line2d_11">
    <path clip-path="url(#pe85ddf6647)" d="M 323.0765 112.73 
L 323.0765 119.705 
L 323.0765 126.68 
" style="fill:none;stroke:#000000;stroke-linecap:round;stroke-width:1.5;"/>
   </g>
   <g id="line2d_12">
    <path clip-path="url(#pe85ddf6647)" d="M 323.0765 126.68 
L 274.4765 126.68 
L 225.8765 126.68 
" style="fill:none;stroke:#000000;stroke-linecap:round;stroke-width:1.5;"/>
   </g>
   <g id="line2d_13">
    <path clip-path="url(#pe85ddf6647)" d="M 225.8765 126.68 
" style="fill:none;stroke:#000000;stroke-linecap:round;stroke-width:1.5;"/>
   </g>
   <g id="line2d_14">
    <path clip-path="url(#pe85ddf6647)" d="M 225.8765 126.68 
L 225.8765 98.78 
M 225.8765 70.88 
L 225.8765 42.98 
" style="fill:none;stroke:#000000;stroke-linecap:round;stroke-width:1.5;"/>
   </g>
   <g id="line2d_15">
    <path clip-path="url(#pe85ddf6647)" d="M 225.8765 126.68 
L 128.6765 126.68 
L 31.4765 126.68 
" style="fill:none;stroke:#000000;stroke-linecap:round;stroke-width:1.5;"/>
   </g>
   <g id="line2d_16">
    <path clip-path="url(#pe85ddf6647)" d="M 31.4765 126.68 
" style="fill:none;stroke:#000000;stroke-linecap:round;stroke-width:1.5;"/>
   </g>
   <g id="patch_16">
    <path clip-path="url(#pe85ddf6647)" d="M 31.4765 45.0725 
C 32.120944 45.0725 32.739079 44.852021 33.194769 44.459621 
C 33.65046 44.067221 33.9065 43.534937 33.9065 42.98 
C 33.9065 42.425063 33.65046 41.892779 33.194769 41.500379 
C 32.739079 41.107979 32.120944 40.8875 31.4765 40.8875 
C 30.832056 40.8875 30.213921 41.107979 29.758231 41.500379 
C 29.30254 41.892779 29.0465 42.425063 29.0465 42.98 
C 29.0465 43.534937 29.30254 44.067221 29.758231 44.459621 
C 30.213921 44.852021 30.832056 45.0725 31.4765 45.0725 
z
" style="fill:#ffffff;stroke:#000000;stroke-linejoin:miter;stroke-width:1.5;"/>
   </g>
   <g id="patch_17">
    <path clip-path="url(#pe85ddf6647)" d="M 225.8765 45.0725 
C 226.520944 45.0725 227.139079 44.852021 227.594769 44.459621 
C 228.05046 44.067221 228.3065 43.534937 228.3065 42.98 
C 228.3065 42.425063 228.05046 41.892779 227.594769 41.500379 
C 227.139079 41.107979 226.520944 40.8875 225.8765 40.8875 
C 225.232056 40.8875 224.613921 41.107979 224.158231 41.500379 
C 223.70254 41.892779 223.4465 42.425063 223.4465 42.98 
C 223.4465 43.534937 223.70254 44.067221 224.158231 44.459621 
C 224.613921 44.852021 225.232056 45.0725 225.8765 45.0725 
z
" style="stroke:#000000;stroke-linejoin:miter;stroke-width:1.5;"/>
   </g>
   <g id="patch_18">
    <path clip-path="url(#pe85ddf6647)" d="M 225.8765 128.7725 
C 226.520944 128.7725 227.139079 128.552021 227.594769 128.159621 
C 228.05046 127.767221 228.3065 127.234937 228.3065 126.68 
C 228.3065 126.125063 228.05046 125.592779 227.594769 125.200379 
C 227.139079 124.807979 226.520944 124.5875 225.8765 124.5875 
C 225.232056 124.5875 224.613921 124.807979 224.158231 125.200379 
C 223.70254 125.592779 223.4465 126.125063 223.4465 126.68 
C 223.4465 127.234937 223.70254 127.767221 224.158231 128.159621 
C 224.613921 128.552021 225.232056 128.7725 225.8765 128.7725 
z
" style="stroke:#000000;stroke-linejoin:miter;stroke-width:1.5;"/>
   </g>
   <g id="patch_19">
    <path clip-path="url(#pe85ddf6647)" d="M 31.4765 128.7725 
C 32.120944 128.7725 32.739079 128.552021 33.194769 128.159621 
C 33.65046 127.767221 33.9065 127.234937 33.9065 126.68 
C 33.9065 126.125063 33.65046 125.592779 33.194769 125.200379 
C 32.739079 124.807979 32.120944 124.5875 31.4765 124.5875 
C 30.832056 124.5875 30.213921 124.807979 29.758231 125.200379 
C 29.30254 125.592779 29.0465 126.125063 29.0465 126.68 
C 29.0465 127.234937 29.30254 127.767221 29.758231 128.159621 
C 30.213921 128.552021 30.832056 128.7725 31.4765 128.7725 
z
" style="fill:#ffffff;stroke:#000000;stroke-linejoin:miter;stroke-width:1.5;"/>
   </g>
   <g id="text_1">
    <!-- $I_{as}$ -->
    <defs>
     <path d="M 9.8125 72.90625 
L 19.671875 72.90625 
L 19.671875 0 
L 9.8125 0 
z
" id="DejaVuSans-49"/>
     <path d="M 34.28125 27.484375 
Q 23.390625 27.484375 19.1875 25 
Q 14.984375 22.515625 14.984375 16.5 
Q 14.984375 11.71875 18.140625 8.90625 
Q 21.296875 6.109375 26.703125 6.109375 
Q 34.1875 6.109375 38.703125 11.40625 
Q 43.21875 16.703125 43.21875 25.484375 
L 43.21875 27.484375 
z
M 52.203125 31.203125 
L 52.203125 0 
L 43.21875 0 
L 43.21875 8.296875 
Q 40.140625 3.328125 35.546875 0.953125 
Q 30.953125 -1.421875 24.3125 -1.421875 
Q 15.921875 -1.421875 10.953125 3.296875 
Q 6 8.015625 6 15.921875 
Q 6 25.140625 12.171875 29.828125 
Q 18.359375 34.515625 30.609375 34.515625 
L 43.21875 34.515625 
L 43.21875 35.40625 
Q 43.21875 41.609375 39.140625 45 
Q 35.0625 48.390625 27.6875 48.390625 
Q 23 48.390625 18.546875 47.265625 
Q 14.109375 46.140625 10.015625 43.890625 
L 10.015625 52.203125 
Q 14.9375 54.109375 19.578125 55.046875 
Q 24.21875 56 28.609375 56 
Q 40.484375 56 46.34375 49.84375 
Q 52.203125 43.703125 52.203125 31.203125 
z
" id="DejaVuSans-61"/>
     <path d="M 44.28125 53.078125 
L 44.28125 44.578125 
Q 40.484375 46.53125 36.375 47.5 
Q 32.28125 48.484375 27.875 48.484375 
Q 21.1875 48.484375 17.84375 46.4375 
Q 14.5 44.390625 14.5 40.28125 
Q 14.5 37.15625 16.890625 35.375 
Q 19.28125 33.59375 26.515625 31.984375 
L 29.59375 31.296875 
Q 39.15625 29.25 43.1875 25.515625 
Q 47.21875 21.78125 47.21875 15.09375 
Q 47.21875 7.46875 41.1875 3.015625 
Q 35.15625 -1.421875 24.609375 -1.421875 
Q 20.21875 -1.421875 15.453125 -0.5625 
Q 10.6875 0.296875 5.421875 2 
L 5.421875 11.28125 
Q 10.40625 8.6875 15.234375 7.390625 
Q 20.0625 6.109375 24.8125 6.109375 
Q 31.15625 6.109375 34.5625 8.28125 
Q 37.984375 10.453125 37.984375 14.40625 
Q 37.984375 18.0625 35.515625 20.015625 
Q 33.0625 21.96875 24.703125 23.78125 
L 21.578125 24.515625 
Q 13.234375 26.265625 9.515625 29.90625 
Q 5.8125 33.546875 5.8125 39.890625 
Q 5.8125 47.609375 11.28125 51.796875 
Q 16.75 56 26.8125 56 
Q 31.78125 56 36.171875 55.265625 
Q 40.578125 54.546875 44.28125 53.078125 
z
" id="DejaVuSans-73"/>
    </defs>
    <g transform="translate(54.8365 22.9125)scale(0.16 -0.16)">
     <use transform="translate(0 0.09375)" xlink:href="#DejaVuSans-49"/>
     <use transform="translate(30.449219 -16.3125)scale(0.7)" xlink:href="#DejaVuSans-61"/>
     <use transform="translate(73.344727 -16.3125)scale(0.7)" xlink:href="#DejaVuSans-73"/>
    </g>
   </g>
   <g id="text_2">
    <!-- $R_1$ -->
    <defs>
     <path d="M 44.390625 34.1875 
Q 47.5625 33.109375 50.5625 29.59375 
Q 53.5625 26.078125 56.59375 19.921875 
L 66.609375 0 
L 56 0 
L 46.6875 18.703125 
Q 43.0625 26.03125 39.671875 28.421875 
Q 36.28125 30.8125 30.421875 30.8125 
L 19.671875 30.8125 
L 19.671875 0 
L 9.8125 0 
L 9.8125 72.90625 
L 32.078125 72.90625 
Q 44.578125 72.90625 50.734375 67.671875 
Q 56.890625 62.453125 56.890625 51.90625 
Q 56.890625 45.015625 53.6875 40.46875 
Q 50.484375 35.9375 44.390625 34.1875 
z
M 19.671875 64.796875 
L 19.671875 38.921875 
L 32.078125 38.921875 
Q 39.203125 38.921875 42.84375 42.21875 
Q 46.484375 45.515625 46.484375 51.90625 
Q 46.484375 58.296875 42.84375 61.546875 
Q 39.203125 64.796875 32.078125 64.796875 
z
" id="DejaVuSans-52"/>
     <path d="M 12.40625 8.296875 
L 28.515625 8.296875 
L 28.515625 63.921875 
L 10.984375 60.40625 
L 10.984375 69.390625 
L 28.421875 72.90625 
L 38.28125 72.90625 
L 38.28125 8.296875 
L 54.390625 8.296875 
L 54.390625 0 
L 12.40625 0 
z
" id="DejaVuSans-31"/>
    </defs>
    <g transform="translate(119.2365 29.8875)scale(0.16 -0.16)">
     <use transform="translate(0 0.09375)" xlink:href="#DejaVuSans-52"/>
     <use transform="translate(70.439453 -16.3125)scale(0.7)" xlink:href="#DejaVuSans-31"/>
    </g>
   </g>
   <g id="text_3">
    <!-- $jX_1$ -->
    <defs>
     <path d="M 9.421875 54.6875 
L 18.40625 54.6875 
L 18.40625 -0.984375 
Q 18.40625 -11.421875 14.421875 -16.109375 
Q 10.453125 -20.796875 1.609375 -20.796875 
L -1.8125 -20.796875 
L -1.8125 -13.1875 
L 0.59375 -13.1875 
Q 5.71875 -13.1875 7.5625 -10.8125 
Q 9.421875 -8.453125 9.421875 -0.984375 
z
M 9.421875 75.984375 
L 18.40625 75.984375 
L 18.40625 64.59375 
L 9.421875 64.59375 
z
" id="DejaVuSans-6a"/>
     <path d="M 6.296875 72.90625 
L 16.890625 72.90625 
L 35.015625 45.796875 
L 53.21875 72.90625 
L 63.8125 72.90625 
L 40.375 37.890625 
L 65.375 0 
L 54.78125 0 
L 34.28125 31 
L 13.625 0 
L 2.984375 0 
L 29 38.921875 
z
" id="DejaVuSans-58"/>
    </defs>
    <g transform="translate(181.8765 29.855)scale(0.16 -0.16)">
     <use transform="translate(0 0.015625)" xlink:href="#DejaVuSans-6a"/>
     <use transform="translate(27.783203 0.015625)" xlink:href="#DejaVuSans-58"/>
     <use transform="translate(97.246094 -16.390625)scale(0.7)" xlink:href="#DejaVuSans-31"/>
    </g>
   </g>
   <g id="text_4">
    <!-- $jX_2^\prime$ -->
    <defs>
     <path d="M 1.953125 54.6875 
L 10.40625 72.90625 
L 20.3125 72.90625 
L 6.203125 54.6875 
z
" id="DejaVuSans-2032"/>
     <path d="M 19.1875 8.296875 
L 53.609375 8.296875 
L 53.609375 0 
L 7.328125 0 
L 7.328125 8.296875 
Q 12.9375 14.109375 22.625 23.890625 
Q 32.328125 33.6875 34.8125 36.53125 
Q 39.546875 41.84375 41.421875 45.53125 
Q 43.3125 49.21875 43.3125 52.78125 
Q 43.3125 58.59375 39.234375 62.25 
Q 35.15625 65.921875 28.609375 65.921875 
Q 23.96875 65.921875 18.8125 64.3125 
Q 13.671875 62.703125 7.8125 59.421875 
L 7.8125 69.390625 
Q 13.765625 71.78125 18.9375 73 
Q 24.125 74.21875 28.421875 74.21875 
Q 39.75 74.21875 46.484375 68.546875 
Q 53.21875 62.890625 53.21875 53.421875 
Q 53.21875 48.921875 51.53125 44.890625 
Q 49.859375 40.875 45.40625 35.40625 
Q 44.1875 33.984375 37.640625 27.21875 
Q 31.109375 20.453125 19.1875 8.296875 
z
" id="DejaVuSans-32"/>
    </defs>
    <g transform="translate(262.8765 28.735)scale(0.16 -0.16)">
     <use transform="translate(0 0.684375)" xlink:href="#DejaVuSans-6a"/>
     <use transform="translate(27.783203 0.684375)" xlink:href="#DejaVuSans-58"/>
     <use transform="translate(97.246094 38.965625)scale(0.7)" xlink:href="#DejaVuSans-2032"/>
     <use transform="translate(97.246094 -26.659375)scale(0.7)" xlink:href="#DejaVuSans-32"/>
    </g>
   </g>
   <g id="text_5">
    <!-- $I_{ar}^\prime$ -->
    <defs>
     <path d="M 41.109375 46.296875 
Q 39.59375 47.171875 37.8125 47.578125 
Q 36.03125 48 33.890625 48 
Q 26.265625 48 22.1875 43.046875 
Q 18.109375 38.09375 18.109375 28.8125 
L 18.109375 0 
L 9.078125 0 
L 9.078125 54.6875 
L 18.109375 54.6875 
L 18.109375 46.1875 
Q 20.953125 51.171875 25.484375 53.578125 
Q 30.03125 56 36.53125 56 
Q 37.453125 56 38.578125 55.875 
Q 39.703125 55.765625 41.0625 55.515625 
z
" id="DejaVuSans-72"/>
    </defs>
    <g transform="translate(306.5765 21.6)scale(0.16 -0.16)">
     <use transform="translate(0 0.684375)" xlink:href="#DejaVuSans-49"/>
     <use transform="translate(30.449219 38.965625)scale(0.7)" xlink:href="#DejaVuSans-2032"/>
     <use transform="translate(30.449219 -26.659375)scale(0.7)" xlink:href="#DejaVuSans-61"/>
     <use transform="translate(73.344727 -26.659375)scale(0.7)" xlink:href="#DejaVuSans-72"/>
    </g>
   </g>
   <g id="text_6">
    <!-- $\frac{R_2^\prime}{s}$ -->
    <g transform="translate(296.5365 92.67)scale(0.16 -0.16)">
     <use transform="translate(0 63.479063)scale(0.7)" xlink:href="#DejaVuSans-52"/>
     <use transform="translate(49.307617 90.275937)scale(0.49)" xlink:href="#DejaVuSans-2032"/>
     <use transform="translate(49.307617 44.338437)scale(0.49)" xlink:href="#DejaVuSans-32"/>
     <use transform="translate(23 -26.111562)scale(0.7)" xlink:href="#DejaVuSans-73"/>
     <path d="M 0 19.338437 
L 0 25.588437 
L 82.396973 25.588437 
L 82.396973 19.338437 
L 0 19.338437 
z
"/>
    </g>
   </g>
   <g id="text_7">
    <!-- $jX_m$ -->
    <defs>
     <path d="M 52 44.1875 
Q 55.375 50.25 60.0625 53.125 
Q 64.75 56 71.09375 56 
Q 79.640625 56 84.28125 50.015625 
Q 88.921875 44.046875 88.921875 33.015625 
L 88.921875 0 
L 79.890625 0 
L 79.890625 32.71875 
Q 79.890625 40.578125 77.09375 44.375 
Q 74.3125 48.1875 68.609375 48.1875 
Q 61.625 48.1875 57.5625 43.546875 
Q 53.515625 38.921875 53.515625 30.90625 
L 53.515625 0 
L 44.484375 0 
L 44.484375 32.71875 
Q 44.484375 40.625 41.703125 44.40625 
Q 38.921875 48.1875 33.109375 48.1875 
Q 26.21875 48.1875 22.15625 43.53125 
Q 18.109375 38.875 18.109375 30.90625 
L 18.109375 0 
L 9.078125 0 
L 9.078125 54.6875 
L 18.109375 54.6875 
L 18.109375 46.1875 
Q 21.1875 51.21875 25.484375 53.609375 
Q 29.78125 56 35.6875 56 
Q 41.65625 56 45.828125 52.96875 
Q 50 49.953125 52 44.1875 
z
" id="DejaVuSans-6d"/>
    </defs>
    <g transform="translate(187.4965 89.23)scale(0.16 -0.16)">
     <use transform="translate(0 0.015625)" xlink:href="#DejaVuSans-6a"/>
     <use transform="translate(27.783203 0.015625)" xlink:href="#DejaVuSans-58"/>
     <use transform="translate(97.246094 -16.390625)scale(0.7)" xlink:href="#DejaVuSans-6d"/>
    </g>
   </g>
  </g>
 </g>
 <defs>
  <clipPath id="pe85ddf6647">
   <rect height="107.62425" width="338.823" x="10.7" y="28.576625"/>
  </clipPath>
 </defs>
</svg>
